<svg width="20" height="18" viewBox="0 0 20 18" fill="none" xmlns="http://www.w3.org/2000/svg">
<path fill-rule="evenodd" clip-rule="evenodd" d="M14.5801 0H4.89258C2.22876 0 0.0488281 2.02432 0.0488281 4.5V13.5C0.0488281 15.9748 2.22876 18 4.89258 18H14.5801C17.2439 18 19.4238 15.9748 19.4238 13.5V4.5C19.4238 2.02432 17.2439 0 14.5801 0ZM9.73633 12.7498C7.50675 12.7498 5.69979 11.0704 5.69979 9C5.69979 6.92865 7.50675 5.24992 9.73633 5.24992C11.9649 5.24992 13.7729 6.92865 13.7729 9C13.7729 11.0704 11.9649 12.7498 9.73633 12.7498ZM13.7729 4.12492C13.7729 4.74615 14.3144 5.24992 14.9838 5.24992C15.6532 5.24992 16.1947 4.74615 16.1947 4.12492C16.1947 3.5037 15.6532 2.99992 14.9838 2.99992C14.3144 2.99992 13.7729 3.5037 13.7729 4.12492Z" fill="white"/>
</svg>
