<svg width="2702" height="92" viewBox="0 0 2702 92" fill="none" xmlns="http://www.w3.org/2000/svg">
<path fill-rule="evenodd" clip-rule="evenodd" d="M722.063 8.81636L721.9 8.67249L721.682 8.67249L8.94604 8.67277V9.82561L721.464 9.82533L789.23 69.5162L789.235 69.5211L804.907 83.6887L805.071 83.8375H805.293H1355.11V83.8395H1898.36H1898.58L1898.75 83.6907L1914.42 69.5232L1914.42 69.5182L1982.19 9.82736L2693.55 9.82557V8.67273L1981.97 8.67452L1981.75 8.67452L1981.59 8.8184L1913.66 68.6581L1913.65 68.663L1898.14 82.6867H1356.61V82.6847H805.515L790.003 68.661L789.997 68.6561L722.063 8.81636Z" fill="url(#paint0_linear_22_3158)"/>
<defs>
<linearGradient id="paint0_linear_22_3158" x1="70.1511" y1="8.67239" x2="591.192" y2="978.417" gradientUnits="userSpaceOnUse">
<stop stop-color="#575757"/>
<stop offset="0.484375" stop-color="#616161"/>
<stop offset="1" stop-color="#292929"/>
</linearGradient>
</defs>
</svg>
