<svg width="632" height="574" viewBox="0 0 632 574" fill="none" xmlns="http://www.w3.org/2000/svg">
<mask id="mask0_1062_5775" style="mask-type:alpha" maskUnits="userSpaceOnUse" x="0" y="0" width="632" height="574">
<rect x="631.066" y="3.05176e-05" width="573.718" height="631.066" transform="rotate(90 631.066 3.05176e-05)" fill="url(#paint0_radial_1062_5775)"/>
</mask>
<g mask="url(#mask0_1062_5775)">
<rect x="620.801" y="73.8613" width="55.8862" height="55.8862" transform="rotate(90 620.801 73.8613)" stroke="white" stroke-width="0.707421"/>
<rect x="620.801" y="129.748" width="55.8862" height="55.8862" transform="rotate(90 620.801 129.748)" stroke="white" stroke-width="0.707421"/>
<rect x="620.801" y="185.634" width="55.8862" height="55.8862" transform="rotate(90 620.801 185.634)" stroke="white" stroke-width="0.707421"/>
<rect x="620.801" y="241.52" width="55.8862" height="55.8862" transform="rotate(90 620.801 241.52)" stroke="white" stroke-width="0.707421"/>
<rect x="620.801" y="297.406" width="55.8862" height="55.8862" transform="rotate(90 620.801 297.406)" stroke="white" stroke-width="0.707421"/>
<rect x="620.801" y="353.292" width="55.8862" height="55.8862" transform="rotate(90 620.801 353.292)" stroke="white" stroke-width="0.707421"/>
<rect x="620.801" y="409.179" width="55.8862" height="55.8862" transform="rotate(90 620.801 409.179)" fill="white" fill-opacity="0.25" stroke="white" stroke-width="0.707421"/>
<rect x="620.801" y="465.065" width="55.8862" height="55.8862" transform="rotate(90 620.801 465.065)" stroke="white" stroke-width="0.707421"/>
<rect x="620.801" y="520.951" width="55.8862" height="55.8862" transform="rotate(90 620.801 520.951)" stroke="white" stroke-width="0.707421"/>
<rect x="564.914" y="73.8613" width="55.8862" height="55.8862" transform="rotate(90 564.914 73.8613)" stroke="white" stroke-width="0.707421"/>
<rect x="564.914" y="129.748" width="55.8862" height="55.8862" transform="rotate(90 564.914 129.748)" stroke="white" stroke-width="0.707421"/>
<rect x="564.914" y="185.634" width="55.8862" height="55.8862" transform="rotate(90 564.914 185.634)" stroke="white" stroke-width="0.707421"/>
<rect x="564.914" y="241.52" width="55.8862" height="55.8862" transform="rotate(90 564.914 241.52)" stroke="white" stroke-width="0.707421"/>
<rect x="564.914" y="297.406" width="55.8862" height="55.8862" transform="rotate(90 564.914 297.406)" stroke="white" stroke-width="0.707421"/>
<rect x="564.914" y="353.292" width="55.8862" height="55.8862" transform="rotate(90 564.914 353.292)" stroke="white" stroke-width="0.707421"/>
<rect x="564.914" y="409.179" width="55.8862" height="55.8862" transform="rotate(90 564.914 409.179)" stroke="white" stroke-width="0.707421"/>
<rect x="564.914" y="465.065" width="55.8862" height="55.8862" transform="rotate(90 564.914 465.065)" stroke="white" stroke-width="0.707421"/>
<rect x="564.914" y="520.951" width="55.8862" height="55.8862" transform="rotate(90 564.914 520.951)" stroke="white" stroke-width="0.707421"/>
<rect x="509.029" y="73.8613" width="55.8862" height="55.8862" transform="rotate(90 509.029 73.8613)" stroke="white" stroke-width="0.707421"/>
<rect x="509.029" y="129.748" width="55.8862" height="55.8862" transform="rotate(90 509.029 129.748)" stroke="white" stroke-width="0.707421"/>
<rect x="509.029" y="185.634" width="55.8862" height="55.8862" transform="rotate(90 509.029 185.634)" stroke="white" stroke-width="0.707421"/>
<rect x="509.029" y="241.52" width="55.8862" height="55.8862" transform="rotate(90 509.029 241.52)" stroke="white" stroke-width="0.707421"/>
<rect x="509.029" y="297.406" width="55.8862" height="55.8862" transform="rotate(90 509.029 297.406)" fill="white" fill-opacity="0.25" stroke="white" stroke-width="0.707421"/>
<rect x="509.029" y="353.292" width="55.8862" height="55.8862" transform="rotate(90 509.029 353.292)" stroke="white" stroke-width="0.707421"/>
<rect x="509.029" y="409.179" width="55.8862" height="55.8862" transform="rotate(90 509.029 409.179)" fill="white" fill-opacity="0.25" stroke="white" stroke-width="0.707421"/>
<rect x="509.029" y="465.065" width="55.8862" height="55.8862" transform="rotate(90 509.029 465.065)" stroke="white" stroke-width="0.707421"/>
<rect x="509.029" y="520.951" width="55.8862" height="55.8862" transform="rotate(90 509.029 520.951)" stroke="white" stroke-width="0.707421"/>
<rect x="453.142" y="73.8613" width="55.8862" height="55.8862" transform="rotate(90 453.142 73.8613)" stroke="white" stroke-width="0.707421"/>
<rect x="453.142" y="129.748" width="55.8862" height="55.8862" transform="rotate(90 453.142 129.748)" stroke="white" stroke-width="0.707421"/>
<rect x="453.142" y="185.634" width="55.8862" height="55.8862" transform="rotate(90 453.142 185.634)" stroke="white" stroke-width="0.707421"/>
<rect x="453.142" y="241.52" width="55.8862" height="55.8862" transform="rotate(90 453.142 241.52)" stroke="white" stroke-width="0.707421"/>
<rect x="453.142" y="297.406" width="55.8862" height="55.8862" transform="rotate(90 453.142 297.406)" stroke="white" stroke-width="0.707421"/>
<rect x="453.142" y="353.292" width="55.8862" height="55.8862" transform="rotate(90 453.142 353.292)" stroke="white" stroke-width="0.707421"/>
<rect x="453.142" y="409.179" width="55.8862" height="55.8862" transform="rotate(90 453.142 409.179)" stroke="white" stroke-width="0.707421"/>
<rect x="453.142" y="465.065" width="55.8862" height="55.8862" transform="rotate(90 453.142 465.065)" stroke="white" stroke-width="0.707421"/>
<rect x="453.142" y="520.951" width="55.8862" height="55.8862" transform="rotate(90 453.142 520.951)" stroke="white" stroke-width="0.707421"/>
<rect x="397.256" y="73.8613" width="55.8862" height="55.8862" transform="rotate(90 397.256 73.8613)" stroke="white" stroke-width="0.707421"/>
<rect x="397.256" y="129.748" width="55.8862" height="55.8862" transform="rotate(90 397.256 129.748)" stroke="white" stroke-width="0.707421"/>
<rect x="397.256" y="185.634" width="55.8862" height="55.8862" transform="rotate(90 397.256 185.634)" stroke="white" stroke-width="0.707421"/>
<rect x="397.256" y="241.52" width="55.8862" height="55.8862" transform="rotate(90 397.256 241.52)" fill="white" fill-opacity="0.25" stroke="white" stroke-width="0.707421"/>
<rect x="397.256" y="297.406" width="55.8862" height="55.8862" transform="rotate(90 397.256 297.406)" stroke="white" stroke-width="0.707421"/>
<rect x="397.256" y="353.292" width="55.8862" height="55.8862" transform="rotate(90 397.256 353.292)" stroke="white" stroke-width="0.707421"/>
<rect x="397.256" y="409.179" width="55.8862" height="55.8862" transform="rotate(90 397.256 409.179)" stroke="white" stroke-width="0.707421"/>
<rect x="397.256" y="465.065" width="55.8862" height="55.8862" transform="rotate(90 397.256 465.065)" stroke="white" stroke-width="0.707421"/>
<rect x="397.256" y="520.951" width="55.8862" height="55.8862" transform="rotate(90 397.256 520.951)" stroke="white" stroke-width="0.707421"/>
<rect x="341.369" y="73.8613" width="55.8862" height="55.8862" transform="rotate(90 341.369 73.8613)" stroke="white" stroke-width="0.707421"/>
<rect x="341.369" y="129.748" width="55.8862" height="55.8862" transform="rotate(90 341.369 129.748)" stroke="white" stroke-width="0.707421"/>
<rect x="341.369" y="185.634" width="55.8862" height="55.8862" transform="rotate(90 341.369 185.634)" stroke="white" stroke-width="0.707421"/>
<rect x="341.369" y="241.52" width="55.8862" height="55.8862" transform="rotate(90 341.369 241.52)" stroke="white" stroke-width="0.707421"/>
<rect x="341.369" y="297.406" width="55.8862" height="55.8862" transform="rotate(90 341.369 297.406)" stroke="white" stroke-width="0.707421"/>
<rect x="341.369" y="353.292" width="55.8862" height="55.8862" transform="rotate(90 341.369 353.292)" stroke="white" stroke-width="0.707421"/>
<rect x="341.369" y="409.179" width="55.8862" height="55.8862" transform="rotate(90 341.369 409.179)" stroke="white" stroke-width="0.707421"/>
<rect x="341.369" y="465.065" width="55.8862" height="55.8862" transform="rotate(90 341.369 465.065)" stroke="white" stroke-width="0.707421"/>
<rect x="341.369" y="520.951" width="55.8862" height="55.8862" transform="rotate(90 341.369 520.951)" stroke="white" stroke-width="0.707421"/>
<rect x="285.484" y="73.8613" width="55.8862" height="55.8862" transform="rotate(90 285.484 73.8613)" stroke="white" stroke-width="0.707421"/>
<rect x="285.484" y="129.748" width="55.8862" height="55.8862" transform="rotate(90 285.484 129.748)" stroke="white" stroke-width="0.707421"/>
<rect x="285.484" y="185.634" width="55.8862" height="55.8862" transform="rotate(90 285.484 185.634)" stroke="white" stroke-width="0.707421"/>
<rect x="285.484" y="241.52" width="55.8862" height="55.8862" transform="rotate(90 285.484 241.52)" stroke="white" stroke-width="0.707421"/>
<rect x="285.484" y="297.406" width="55.8862" height="55.8862" transform="rotate(90 285.484 297.406)" stroke="white" stroke-width="0.707421"/>
<rect x="285.484" y="353.292" width="55.8862" height="55.8862" transform="rotate(90 285.484 353.292)" stroke="white" stroke-width="0.707421"/>
<rect x="285.484" y="409.179" width="55.8862" height="55.8862" transform="rotate(90 285.484 409.179)" stroke="white" stroke-width="0.707421"/>
<rect x="285.484" y="465.065" width="55.8862" height="55.8862" transform="rotate(90 285.484 465.065)" stroke="white" stroke-width="0.707421"/>
<rect x="285.484" y="520.951" width="55.8862" height="55.8862" transform="rotate(90 285.484 520.951)" stroke="white" stroke-width="0.707421"/>
</g>
<defs>
<radialGradient id="paint0_radial_1062_5775" cx="0" cy="0" r="1" gradientUnits="userSpaceOnUse" gradientTransform="translate(917.925 315.533) rotate(90) scale(388.981 353.633)">
<stop stop-color="#D9D9D9" stop-opacity="0.2"/>
<stop offset="0.802083" stop-color="#D9D9D9" stop-opacity="0"/>
</radialGradient>
</defs>
</svg>
