<svg width="136" height="18" viewBox="0 0 136 18" fill="none" xmlns="http://www.w3.org/2000/svg">
<path d="M6.4642 4.3432C7.2299 4.3432 7.91052 4.51677 8.50603 4.86391C9.10162 5.20316 9.58497 5.67653 9.95626 6.28403V0.130178H13.3091V17.5503H10.0955V15.7633C9.6237 16.5287 9.08617 17.0848 8.48283 17.432C7.87958 17.7791 7.12935 17.9526 6.23218 17.9526C4.75491 17.9526 3.50969 17.3452 2.49648 16.1302C1.49102 14.9073 0.988281 13.3412 0.988281 11.432C0.988281 9.23076 1.48328 7.49902 2.47327 6.23669C3.47101 4.97436 4.80131 4.3432 6.4642 4.3432ZM7.18349 15.1125C8.11935 15.1125 8.83092 14.7574 9.31815 14.0474C9.80546 13.3373 10.0491 12.4182 10.0491 11.2899C10.0491 9.71212 9.65847 8.58386 8.87732 7.90531C8.39777 7.49508 7.84092 7.28994 7.2067 7.28994C6.2399 7.28994 5.52834 7.66469 5.07201 8.4142C4.62343 9.15584 4.39913 10.0789 4.39913 11.1834C4.39913 12.3748 4.6273 13.3294 5.08361 14.0474C5.54768 14.7574 6.24764 15.1125 7.18349 15.1125ZM21.9987 15.1717C22.9655 15.1717 23.708 14.8205 24.2262 14.1184C24.7443 13.4162 25.0034 12.4182 25.0034 11.1242C25.0034 9.83037 24.7443 8.83632 24.2262 8.14202C23.708 7.43984 22.9655 7.08876 21.9987 7.08876C21.0319 7.08876 20.2854 7.43984 19.7595 8.14202C19.2414 8.83632 18.9823 9.83037 18.9823 11.1242C18.9823 12.4182 19.2414 13.4162 19.7595 14.1184C20.2854 14.8205 21.0319 15.1717 21.9987 15.1717ZM28.4723 11.1242C28.4723 13.0177 27.9386 14.639 26.8713 15.9882C25.804 17.3294 24.1836 18 22.0102 18C19.8369 18 18.2165 17.3294 17.1492 15.9882C16.0819 14.639 15.5481 13.0177 15.5481 11.1242C15.5481 9.26234 16.0819 7.64892 17.1492 6.28403C18.2165 4.91913 19.8369 4.23669 22.0102 4.23669C24.1836 4.23669 25.804 4.91913 26.8713 6.28403C27.9386 7.64892 28.4723 9.26234 28.4723 11.1242ZM44.9813 4.36687C45.5382 4.36687 46.0873 4.47732 46.6286 4.69823C47.1701 4.91913 47.6612 5.30572 48.1021 5.85798C48.4579 6.30769 48.6975 6.85997 48.8214 7.51479C48.8987 7.94869 48.9373 8.58386 48.9373 9.42011L48.9141 17.5503H45.5265V9.33725C45.5265 8.84812 45.4492 8.44579 45.2945 8.13014C45.0005 7.53058 44.4592 7.23077 43.6703 7.23077C42.7576 7.23077 42.1273 7.61736 41.7793 8.39053C41.6013 8.80078 41.5124 9.29391 41.5124 9.86989V17.5503H38.1828V9.86989C38.1828 9.10455 38.1054 8.54831 37.9507 8.20116C37.6723 7.57791 37.127 7.26627 36.3149 7.26627C35.3713 7.26627 34.7371 7.57791 34.4123 8.20116C34.2344 8.55623 34.1455 9.08483 34.1455 9.78693V17.5503H30.7926V4.67456H34.0062V6.55621C34.4162 5.88561 34.8029 5.40828 35.1663 5.12426C35.8083 4.61933 36.6397 4.36687 37.6608 4.36687C38.6275 4.36687 39.4087 4.58384 40.0042 5.01775C40.4837 5.42011 40.8472 5.93689 41.0947 6.56805C41.5279 5.81065 42.0654 5.25444 42.7073 4.89941C43.388 4.54439 44.1459 4.36687 44.9813 4.36687ZM58.9611 11.2781C58.7523 11.4122 58.5396 11.5227 58.323 11.6095C58.1142 11.6883 57.8241 11.7634 57.4528 11.8343L56.7103 11.9763C56.0143 12.1025 55.5154 12.2565 55.2137 12.4379C54.7033 12.7456 54.4481 13.2229 54.4481 13.8698C54.4481 14.4458 54.6028 14.8639 54.9121 15.1243C55.2293 15.3767 55.6122 15.5029 56.0607 15.5029C56.7723 15.5029 57.4258 15.2899 58.0214 14.8639C58.6246 14.4379 58.9378 13.6607 58.9611 12.5326V11.2781ZM56.954 9.70418C57.5651 9.62524 58.002 9.5267 58.265 9.40834C58.7368 9.20321 58.9727 8.88367 58.9727 8.44975C58.9727 7.92115 58.7909 7.55819 58.4275 7.36095C58.0716 7.15582 57.5457 7.05327 56.8497 7.05327C56.0685 7.05327 55.5154 7.2505 55.1906 7.64497C54.9586 7.9369 54.8039 8.3314 54.7265 8.8284H51.5361C51.6057 7.7002 51.9151 6.77318 52.4642 6.04734C53.3382 4.91124 54.8387 4.3432 56.9657 4.3432C58.3501 4.3432 59.5798 4.62327 60.655 5.18343C61.73 5.74359 62.2675 6.80079 62.2675 8.35507V14.2722C62.2675 14.6825 62.2753 15.1794 62.2907 15.7633C62.3139 16.2052 62.3796 16.5049 62.4879 16.6627C62.5962 16.8206 62.7586 16.9507 62.9752 17.0533V17.5503H59.3788C59.2782 17.2899 59.2086 17.0453 59.17 16.8166C59.1313 16.5878 59.1003 16.3274 59.0771 16.0356C58.6208 16.5404 58.0948 16.9704 57.4993 17.3255C56.7877 17.7436 55.9833 17.9526 55.0862 17.9526C53.9415 17.9526 52.9941 17.6213 52.2437 16.9586C51.5012 16.2879 51.1301 15.3412 51.1301 14.1184C51.1301 12.5326 51.7295 11.3847 52.9283 10.6746C53.5857 10.2879 54.5525 10.0118 55.8287 9.84616L56.954 9.70418ZM68.6136 3.11243H65.2607V0H68.6136V3.11243ZM65.2607 4.65089H68.6136V17.5503H65.2607V4.65089ZM78.8345 4.3432C80.1414 4.3432 81.209 4.69428 82.0366 5.39644C82.8722 6.09073 83.2896 7.24655 83.2896 8.86388V17.5503H79.9022V9.70418C79.9022 9.02561 79.8127 8.50492 79.6353 8.14202C79.3102 7.47929 78.6914 7.14793 77.7788 7.14793C76.6572 7.14793 75.8877 7.63314 75.47 8.60357C75.2535 9.11634 75.1452 9.77125 75.1452 10.568V17.5503H71.8503V4.67456H75.0407V6.55621C75.4662 5.89349 75.8684 5.41617 76.2474 5.12426C76.9279 4.60355 77.7903 4.3432 78.8345 4.3432ZM96.0238 11.2246C96.0238 10.5135 95.9293 9.84305 95.7394 9.21286C95.5486 8.56656 95.2714 8.00912 94.9078 7.54055C94.5586 7.05581 94.123 6.6761 93.601 6.40143C93.0934 6.11058 92.5156 5.96517 91.8658 5.96517C91.1215 5.96517 90.4801 6.11866 89.9416 6.42566C89.403 6.7165 88.9595 7.12045 88.611 7.63749C88.2625 8.15455 88.0091 8.76047 87.8507 9.4552C87.6923 10.1339 87.6289 10.869 87.6606 11.6608C87.6606 12.4526 87.7636 13.1553 87.9695 13.7693C88.1913 14.3672 88.4922 14.8761 88.8724 15.2963C89.2525 15.7164 89.6961 16.0396 90.2029 16.2657C90.7098 16.4758 91.2646 16.5809 91.8658 16.5809C92.5318 16.5809 93.1258 16.4435 93.6478 16.1688C94.1707 15.8942 94.6063 15.5225 94.9546 15.0539C95.3038 14.5691 95.5648 14.0036 95.7394 13.3574C95.9293 12.6949 96.0238 11.984 96.0238 11.2246ZM96.0238 0.0998817H97.4494V17.5503H96.0238V15.3447H95.977C95.7709 15.7649 95.5018 16.1365 95.1688 16.4597C94.852 16.7667 94.4956 17.0252 94.0996 17.2353C93.7198 17.4452 93.3238 17.6068 92.9116 17.72C92.4994 17.8331 92.0962 17.8896 91.7002 17.8896C90.7019 17.8896 89.8545 17.72 89.1575 17.3807C88.4605 17.0413 87.8824 16.5809 87.423 15.9991C86.9795 15.4013 86.6548 14.6985 86.4489 13.8906C86.2429 13.0826 86.14 12.2183 86.14 11.2973C86.14 10.4248 86.2509 9.58452 86.4726 8.77662C86.6944 7.96873 87.027 7.26587 87.4705 6.66803C87.9299 6.05403 88.5001 5.5693 89.1813 5.21383C89.8782 4.84219 90.694 4.65638 91.6282 4.65638C92.4994 4.65638 93.331 4.85835 94.123 5.2623C94.9312 5.65009 95.5648 6.23177 96.0238 7.00734V0.0998817ZM109.955 10.4005C109.955 9.78643 109.868 9.21286 109.694 8.67967C109.535 8.13031 109.29 7.66173 108.958 7.27394C108.641 6.87 108.237 6.55492 107.745 6.32871C107.255 6.08635 106.692 5.96517 106.059 5.96517C105.425 5.96517 104.863 6.08635 104.372 6.32871C103.897 6.57108 103.485 6.89424 103.136 7.29818C102.803 7.70213 102.534 8.1707 102.328 8.70391C102.122 9.2371 101.988 9.80262 101.924 10.4005H109.955ZM101.924 11.6123C101.924 12.291 102.011 12.9372 102.186 13.5512C102.36 14.1491 102.614 14.6742 102.947 15.1266C103.295 15.5629 103.73 15.9184 104.253 16.193C104.775 16.4515 105.377 16.5809 106.059 16.5809C106.993 16.5809 107.793 16.3304 108.458 15.8295C109.123 15.3286 109.567 14.6176 109.789 13.6966H111.38C111.207 14.2945 110.977 14.8519 110.692 15.369C110.407 15.8699 110.05 16.3142 109.623 16.702C109.195 17.0737 108.688 17.3645 108.102 17.5745C107.516 17.7846 106.835 17.8896 106.059 17.8896C105.077 17.8896 104.229 17.72 103.516 17.3807C102.803 17.0413 102.218 16.5809 101.759 15.9991C101.299 15.4013 100.958 14.7065 100.736 13.9148C100.515 13.1069 100.404 12.2425 100.404 11.3215C100.404 10.4005 100.531 9.53605 100.784 8.72815C101.053 7.92025 101.426 7.21739 101.901 6.61955C102.392 6.00556 102.986 5.52891 103.683 5.18959C104.379 4.83412 105.171 4.65638 106.059 4.65638C107.753 4.65638 109.085 5.25422 110.05 6.44989C111.017 7.62942 111.492 9.35022 111.476 11.6123H101.924ZM115.079 13.6239C115.301 14.7065 115.697 15.474 116.267 15.9264C116.853 16.3627 117.685 16.5809 118.762 16.5809C119.285 16.5809 119.736 16.5162 120.117 16.387C120.497 16.2577 120.805 16.088 121.043 15.878C121.297 15.6517 121.487 15.4013 121.613 15.1266C121.74 14.8519 121.803 14.5611 121.803 14.2541C121.803 13.6401 121.605 13.1877 121.209 12.8968C120.83 12.5898 120.346 12.3555 119.76 12.194C119.174 12.0162 118.541 11.8708 117.86 11.7577C117.178 11.6285 116.545 11.4427 115.959 11.2002C115.373 10.9579 114.881 10.6105 114.485 10.1581C114.106 9.70569 113.915 9.06746 113.915 8.24341C113.915 7.19316 114.287 6.33679 115.032 5.67432C115.792 4.99569 116.861 4.65638 118.239 4.65638C119.57 4.65638 120.647 4.96338 121.471 5.57737C122.31 6.17522 122.818 7.18507 122.991 8.60696H121.542C121.415 7.63749 121.051 6.95886 120.449 6.57108C119.863 6.16713 119.119 5.96517 118.216 5.96517C117.313 5.96517 116.624 6.16713 116.149 6.57108C115.673 6.95886 115.436 7.47592 115.436 8.12223C115.436 8.68775 115.626 9.12401 116.006 9.43097C116.402 9.72188 116.893 9.96421 117.479 10.1581C118.066 10.3359 118.699 10.4975 119.38 10.6429C120.061 10.7883 120.695 10.9983 121.28 11.273C121.867 11.5316 122.35 11.887 122.73 12.3394C123.126 12.7918 123.324 13.422 123.324 14.2299C123.324 14.8277 123.197 15.3609 122.944 15.8295C122.691 16.2819 122.342 16.6616 121.899 16.9686C121.455 17.2756 120.924 17.5018 120.307 17.6473C119.705 17.8088 119.039 17.8896 118.31 17.8896C117.582 17.8896 116.933 17.7765 116.363 17.5503C115.808 17.3403 115.333 17.0413 114.937 16.6536C114.541 16.2657 114.232 15.8133 114.01 15.2963C113.789 14.7792 113.662 14.2218 113.63 13.6239H115.079ZM126.032 17.5503V0.0998817H127.458V10.9579L133.493 4.99569H135.442L130.832 9.52801L135.988 17.5503H134.396L129.787 10.5459L127.458 12.7999V17.5503H126.032Z" fill="white"/>
</svg>
