<svg width="184" height="40" viewBox="0 0 184 40" fill="none" xmlns="http://www.w3.org/2000/svg">
<g clip-path="url(#clip0_1020_560)">
<path d="M28.3114 34.3618L27.2047 34.9843L26.0981 34.3618C20.6686 31.2147 16.4149 26.2349 14.167 20.3903C13.1987 17.8658 12.6108 15.2375 12.4033 12.5401C11.0546 11.9176 9.80962 11.3989 8.73755 11.0531C8.84131 14.5459 9.56752 17.9696 10.8125 21.2549C13.4063 27.964 18.2824 33.6701 24.5419 37.3013L27.2047 38.8229L29.8676 37.3013C32.7034 35.6759 35.2279 33.601 37.4066 31.2147C36.7841 30.4885 36.0233 29.6931 35.1242 28.7594C33.1876 30.9727 30.8705 32.8748 28.3114 34.3618ZM45.741 9.28935L45.6027 6.38437L43.0782 4.9319C38.3057 2.16528 32.8071 0.678223 27.2047 0.678223C22.2248 0.678223 17.2795 1.85404 12.8529 4.10191C14.2362 4.7244 15.7233 5.48522 17.2795 6.34978C20.4265 5.13939 23.8156 4.48232 27.2393 4.48232C32.1155 4.48232 36.8879 5.76188 41.0724 8.18264L42.1099 8.7706L42.179 9.981C42.179 10.0847 42.179 10.223 42.179 10.3268C42.179 13.7851 41.5565 17.1396 40.3116 20.3212C40.0003 21.1512 39.6199 21.9466 39.2395 22.742C40.1387 23.572 40.9686 24.402 41.7295 25.2319C42.4557 23.9524 43.1128 22.6037 43.6315 21.1857C45.0494 17.52 45.7757 13.6813 45.7757 9.70434C45.741 9.63514 45.741 9.46224 45.741 9.28935Z" fill="#D42530"/>
<path d="M36.0232 22.6382C36.4728 21.8082 36.8878 20.9436 37.2336 20.079C38.1674 17.6582 38.6515 15.0991 38.6515 12.5054C38.6515 12.4017 38.6515 12.3325 38.6515 12.2288L38.6169 11.3296L37.8215 10.88C34.6399 9.04711 31.0087 8.07881 27.3084 8.07881C24.5072 8.07881 21.7406 8.63212 19.1815 9.7042C13.994 6.38428 8.66829 3.85974 4.65671 3.85974C2.30509 3.85974 0.818029 5.24305 0.783446 7.49093C0.714281 11.6409 4.8642 18.0387 7.28499 21.1511C6.10918 19.5603 4.72587 16.3095 4.44921 15.4795C4.13797 14.5804 3.8613 13.6466 3.6884 12.6783C2.92758 8.4938 4.10338 7.73301 7.0775 8.25177C9.49827 8.66676 12.6453 10.0501 16.0345 11.9867V12.2633C16.0345 12.3671 16.0345 12.4362 16.0345 12.54C16.0345 15.1683 16.5186 17.6928 17.4523 20.1136C19.1123 24.5402 22.363 28.2751 26.4784 30.6959L27.3084 31.1801L28.1384 30.6959C30.5245 29.3126 32.5996 27.4797 34.2595 25.3356C42.421 32.7363 46.3634 38.9957 36.3344 35.6758C40.6919 37.9929 42.594 38.2695 43.9427 38.6154C49.718 40.1716 47.3318 33.0129 36.0232 22.6382ZM28.3805 18.3153L29.2104 22.1885H25.4409L25.7868 20.494C25.8213 20.3903 26.1326 18.8341 26.4092 17.4507C25.8213 17.1395 25.4064 16.517 25.4064 15.7908C25.4064 14.7533 26.2363 13.8887 27.3084 13.8887C28.3458 13.8887 29.2104 14.7187 29.2104 15.7908C29.2104 16.517 28.7955 17.1395 28.2075 17.4507L28.3805 18.3153Z" fill="white"/>
<path d="M59.0418 6.1582V25.8012H54.1311V6.1582H59.0418Z" fill="white"/>
<path d="M162.202 6.20581L160.024 10.4941H146.294V6.20581H162.202Z" fill="#D42530"/>
<path d="M160.058 13.745H146.294V17.9641H160.058V13.745Z" fill="#D42530"/>
<path d="M67.3419 14.2637V25.8143H62.4657V6.24055L62.4312 6.20597H62.4657V6.17139H67.3419V6.20597L75.2264 17.6183V6.20597H80.1721V25.7106L80.2415 25.8143H75.2264V25.6415L67.3419 14.2637Z" fill="white"/>
<path d="M99.4345 6.20581L97.2905 10.3903H83.5262V6.20581H99.4345ZM88.4025 17.9294V25.8142L83.5262 25.7796V13.7449H97.2905V17.9294H88.4025Z" fill="white"/>
<path d="M121.844 15.9583C121.844 18.8978 120.98 21.2494 119.251 23.0823C117.521 24.9152 115.101 25.7798 111.988 25.7798C108.876 25.7798 106.455 24.846 104.726 22.9786C102.997 21.1111 102.132 18.7595 102.132 15.9929C102.132 13.0533 103.065 10.7017 104.899 8.86882C106.732 7.03595 109.117 6.17139 111.988 6.17139C114.997 6.17139 117.383 7.07053 119.181 8.86882C120.945 10.6671 121.844 13.0533 121.844 15.9583ZM116.692 15.9583C116.692 14.4021 116.345 13.0533 115.654 11.9467C114.962 10.8401 113.821 10.3213 112.23 10.3213C110.536 10.3213 109.291 10.8746 108.53 11.9813C107.734 13.0879 107.354 14.4021 107.354 15.9583C107.354 17.2379 107.734 18.5174 108.53 19.7624C109.291 21.0074 110.536 21.6298 112.23 21.6298C113.821 21.6298 114.962 21.0765 115.654 19.9699C116.345 18.8632 116.692 17.5145 116.692 15.9583Z" fill="white"/>
<path d="M137.648 13.8488C141.107 14.4366 142.836 16.235 142.87 19.2437V19.797C142.836 23.3935 141.107 25.3994 137.683 25.8143H125.199L127.135 21.5607H136.438C137.441 21.3878 137.96 20.7653 137.96 19.6587C137.96 18.6903 137.407 18.137 136.335 17.9641H130.386C126.928 17.3762 125.199 15.5779 125.164 12.5692V12.0158C125.199 8.5576 126.928 6.62096 130.351 6.17139H142.836L140.864 10.3904H131.493C130.524 10.5288 130.04 11.1513 130.075 12.1888C130.075 13.1571 130.628 13.6759 131.7 13.8142H137.648V13.8488Z" fill="#D42530"/>
<path d="M162.202 25.7798L160.024 21.5261H146.294V25.7798H162.202Z" fill="#D42530"/>
<path d="M180.669 21.5607H178.767L178.733 21.5261H173.787C171.366 21.5261 170.122 19.6587 170.087 15.9237C170.156 12.258 171.54 10.4251 174.272 10.3905H180.669L182.64 6.13684H173.787C167.909 6.79391 164.934 10.0793 164.934 15.9583C164.934 21.8374 167.632 25.1227 172.992 25.7798H182.64L180.669 21.5607Z" fill="#D42530"/>
<path d="M54.6844 29.4139H54.2003H54.1657L54.1311 29.4486V33.1835L54.1657 33.218H54.6844H54.719V29.4486L54.6844 29.4139Z" fill="white"/>
<path d="M59.9066 29.427H59.4225H59.3879L59.3533 29.4615V32.2281L57.4859 29.427V29.3923H56.9326H56.898L56.8634 29.427V33.1619V33.1964L56.898 33.2311H57.3822H57.4167L57.4513 33.1964V30.4298L58.3159 31.7094C58.9038 32.574 59.2496 33.0927 59.3188 33.2311V33.2656H59.8721H59.9066L59.9413 33.2311V29.4615L59.9066 29.427Z" fill="white"/>
<path d="M64.1601 29.427H62.1543H62.1198L62.0852 29.4616V33.1965V33.2311H62.1198H62.6385H62.6731V31.6403H63.9181V31.0524H62.6731V30.0149H64.1256H64.1601L64.1947 29.9803V29.4616L64.1601 29.427Z" fill="white"/>
<path d="M67.6876 29.427C67.3072 29.427 66.9614 29.5308 66.6155 29.7728L66.4426 29.9112C66.0276 30.3262 65.8547 30.7757 65.8547 31.329C65.8547 31.7095 65.9584 32.0553 66.1314 32.3666C66.166 32.4702 66.2697 32.574 66.4426 32.7469C66.823 33.0582 67.2035 33.2311 67.6876 33.2311C68.1372 33.2311 68.5522 33.0582 68.9325 32.7469C69.313 32.3319 69.5205 31.8824 69.5205 31.329C69.5205 30.8449 69.3476 30.3953 69.0017 30.0149C68.6213 29.6345 68.1718 29.427 67.6876 29.427ZM67.6876 32.6778C67.3764 32.6778 67.0997 32.574 66.8576 32.3666C66.5464 32.0898 66.4081 31.744 66.4081 31.3636C66.4081 31.0524 66.5118 30.7757 66.6847 30.5336C66.9614 30.2224 67.2726 30.0494 67.653 30.0494C67.9989 30.0494 68.2755 30.1878 68.5522 30.4645C68.7942 30.7412 68.898 31.0524 68.898 31.3636V31.3982C68.898 31.6748 68.7942 31.9515 68.6559 32.1936C68.4139 32.4702 68.068 32.6778 67.6876 32.6778Z" fill="white"/>
<path d="M74.0857 30.7065C74.0857 30.3953 73.982 30.1532 73.7744 29.8766C73.4975 29.5653 73.1518 29.427 72.7368 29.427H71.4917H71.4571L71.4225 29.4616V33.1965V33.2311L71.4571 33.2657H71.9412H71.9758L72.0104 33.2311V31.9861H72.633C72.7017 32.0898 72.8749 32.4357 73.1862 32.989C73.3243 33.2657 73.3243 33.2657 73.3594 33.2657H73.9469H73.982L74.0163 33.2311L73.705 32.7123C73.3937 32.1936 73.29 31.9861 73.2205 31.8824C73.3243 31.8478 73.4631 31.7786 73.6013 31.6403C73.9126 31.3636 74.0857 31.0524 74.0857 30.7065ZM72.0104 30.0149H72.633C72.8749 30.0149 73.0481 30.0494 73.1518 30.1532C73.3594 30.2915 73.4631 30.4991 73.4631 30.7065V30.7412C73.4631 30.8795 73.4281 31.0178 73.3243 31.1215C73.1519 31.329 72.9443 31.3982 72.7368 31.3982H72.0104V30.0149Z" fill="white"/>
<path d="M79.8607 29.427H79.2038L77.8892 32.3666L77.2322 30.9141C76.5753 29.4616 76.5753 29.427 76.5753 29.427H75.9527H75.9184L75.8833 29.4616V33.1965V33.2311L75.9184 33.2657H76.4372H76.4715L76.5059 33.2311V30.7065L77.5779 33.0928C77.6473 33.2657 77.6473 33.2657 77.6817 33.2657H78.1311L79.2725 30.7065V33.2311V33.2657L79.3075 33.3002H79.8257H79.8607L79.8951 33.2657V29.4616L79.8607 29.427Z" fill="white"/>
<path d="M83.7344 29.427H83.2499L81.7285 33.1965V33.2657H82.316L82.6273 32.4702H84.357L84.5989 33.0582C84.6676 33.2311 84.6676 33.2657 84.7026 33.2657H85.2215L85.2902 33.2311L83.9763 30.0149C83.7687 29.427 83.7687 29.427 83.7344 29.427ZM84.1144 31.8478H82.8699L83.2499 30.9141C83.388 30.5682 83.4575 30.3953 83.4918 30.3262L84.1144 31.8478Z" fill="white"/>
<path d="M89.1981 29.427H86.7085H86.6734L86.639 29.4616V29.9458V29.9803L86.6734 30.0149H87.6423V33.1965V33.2311H87.6767H88.1955H88.2299V30.0149H89.1637H89.1981L89.2324 29.9803V29.4616L89.1981 29.427Z" fill="white"/>
<path d="M91.5153 29.427H90.9965L90.9622 29.4616V33.1965V33.2311H90.9965H91.481H91.5153H91.5497V29.4616L91.5153 29.427Z" fill="white"/>
<path d="M95.3539 29.427C94.9732 29.427 94.6276 29.5308 94.2819 29.7728L94.1088 29.9112C93.6937 30.3262 93.5212 30.7757 93.5212 31.329C93.5212 31.7095 93.625 32.0553 93.7975 32.3666C93.8325 32.4702 93.9363 32.574 94.1088 32.7469C94.4895 33.0582 94.8702 33.2311 95.3539 33.2311C95.8034 33.2311 96.2184 33.0582 96.5991 32.7469C96.9791 32.3319 97.1866 31.8824 97.1866 31.329C97.1866 30.8449 97.0142 30.3953 96.6678 30.0149C96.2878 29.6345 95.8384 29.427 95.3539 29.427ZM95.3539 32.6778C95.0427 32.6778 94.7664 32.574 94.5238 32.3666C94.2125 32.0898 94.0744 31.744 94.0744 31.3636C94.0744 31.0524 94.1782 30.7757 94.3514 30.5336C94.6276 30.2224 94.9389 30.0494 95.3196 30.0494C95.6652 30.0494 95.9422 30.1878 96.2184 30.4645C96.4603 30.7412 96.5641 31.0524 96.5641 31.3636V31.3982C96.5641 31.6748 96.4603 31.9515 96.3222 32.1936C96.0803 32.4702 95.7347 32.6778 95.3539 32.6778Z" fill="white"/>
<path d="M102.167 29.427H101.682H101.648L101.613 29.4615V32.2281L99.7456 29.427V29.3923H99.1925H99.1581L99.123 29.427V33.1619V33.1964L99.1581 33.2311H99.6419H99.6769L99.7113 33.1964V30.4298L100.576 31.7094C101.164 32.6085 101.51 33.0927 101.579 33.2311V33.2656H102.132H102.167L102.201 33.2311V29.4615L102.167 29.427Z" fill="white"/>
<path d="M108.945 31.2944C108.876 31.2252 108.806 31.1907 108.738 31.1561C108.668 31.1215 108.564 31.0869 108.461 31.0524C108.287 31.0177 108.115 30.9832 108.011 30.9486C107.838 30.914 107.7 30.8448 107.631 30.8103C107.596 30.7756 107.562 30.7756 107.527 30.7411C107.458 30.6719 107.423 30.6027 107.423 30.499C107.423 30.4298 107.458 30.3606 107.492 30.2569C107.492 30.2223 107.527 30.1877 107.596 30.1186C107.734 29.9803 107.907 29.9457 108.115 29.9457C108.323 29.9457 108.53 30.0149 108.668 30.1877C108.738 30.2569 108.738 30.2915 108.772 30.2915L108.806 30.3261L109.325 30.0494L109.291 30.0149C109.256 29.9803 109.256 29.9457 109.221 29.9111C109.187 29.8765 109.153 29.8073 109.083 29.7382C109.014 29.669 108.979 29.6344 108.945 29.6344C108.876 29.5999 108.841 29.5653 108.772 29.5307C108.564 29.427 108.391 29.3923 108.184 29.3923H108.149C108.011 29.3923 107.873 29.427 107.734 29.4615C107.666 29.4961 107.562 29.5307 107.527 29.5653C107.458 29.5999 107.423 29.6344 107.354 29.7036C107.285 29.7382 107.251 29.8073 107.181 29.8765C107.008 30.084 106.939 30.3261 106.939 30.5682C106.939 30.9486 107.112 31.2253 107.492 31.4327C107.666 31.5019 107.907 31.6057 108.287 31.6748C108.426 31.7094 108.495 31.7094 108.564 31.744C108.599 31.744 108.634 31.7786 108.668 31.8131C108.806 31.9169 108.876 32.0207 108.876 32.1936C108.876 32.2973 108.841 32.401 108.806 32.4702C108.772 32.5048 108.738 32.5393 108.703 32.574C108.668 32.6085 108.634 32.6431 108.599 32.6431C108.461 32.7123 108.323 32.7469 108.184 32.7469H108.149C108.011 32.7469 107.873 32.7123 107.734 32.6431C107.7 32.6085 107.63 32.574 107.596 32.5393C107.562 32.5048 107.527 32.4702 107.492 32.4357C107.458 32.3665 107.423 32.2973 107.389 32.2627L107.354 32.2281L106.835 32.4702V32.5048C106.835 32.5048 106.835 32.5393 106.904 32.6085C106.939 32.6777 106.974 32.7123 107.043 32.816C107.077 32.8506 107.112 32.9198 107.181 32.989C107.215 33.0235 107.285 33.0581 107.319 33.0927C107.562 33.2656 107.838 33.3693 108.149 33.3693C108.357 33.3693 108.53 33.3348 108.703 33.2656C108.772 33.231 108.841 33.1964 108.876 33.1619C108.945 33.1273 108.979 33.0927 109.083 32.989C109.153 32.9198 109.187 32.8852 109.221 32.8506C109.36 32.6431 109.429 32.4356 109.429 32.1936C109.429 31.9515 109.36 31.744 109.221 31.571C109.049 31.4327 109.014 31.3636 108.945 31.2944Z" fill="white"/>
<path d="M113.267 29.427H111.262H111.227V29.4616V33.1965V33.2311H111.262H113.267H113.302V32.6778H111.78V31.6403H112.956L112.991 31.6057V31.087V31.0524H111.78V30.0149H113.302V29.4616L113.267 29.427Z" fill="white"/>
<path d="M116.899 30.0149C117.21 30.0149 117.521 30.1532 117.764 30.3953C117.867 30.499 117.936 30.6027 117.971 30.6719L118.005 30.7065L118.04 30.6719C118.455 30.4644 118.455 30.4298 118.489 30.4298L118.524 30.3953V30.3606C118.455 30.2569 118.385 30.1186 118.247 29.9803C117.867 29.5999 117.452 29.3923 116.968 29.3923C116.484 29.3923 116.034 29.5999 115.654 30.0149C115.343 30.3953 115.169 30.8448 115.169 31.2944C115.169 31.7786 115.343 32.1936 115.654 32.574C116.034 32.989 116.484 33.1964 117.002 33.1964C117.521 33.1964 117.971 32.989 118.351 32.574C118.455 32.4702 118.524 32.3319 118.593 32.2281V32.159L118.109 31.8823L118.075 31.9169C118.04 31.986 117.971 32.0898 117.832 32.2281C117.59 32.4702 117.313 32.574 117.037 32.574H116.899C116.622 32.574 116.38 32.4702 116.173 32.2973C115.861 32.0207 115.688 31.6748 115.688 31.2598C115.688 30.914 115.826 30.6027 116.069 30.3261C116.311 30.1186 116.588 30.0149 116.899 30.0149Z" fill="white"/>
<path d="M123.331 29.427H122.847H122.812L122.778 29.4615V31.8131C122.778 31.986 122.744 32.159 122.674 32.2973C122.536 32.5394 122.328 32.6777 122.052 32.6777H121.672C121.602 32.6777 121.533 32.6777 121.464 32.6431C121.291 32.574 121.153 32.4702 121.049 32.3319C120.945 32.1936 120.91 32.0207 120.91 31.744V29.4615V29.427L120.876 29.3923H120.392H120.357V29.4615V31.8477C120.357 32.0898 120.426 32.3319 120.53 32.574C120.6 32.6777 120.668 32.7814 120.772 32.8852C121.014 33.1273 121.325 33.2311 121.74 33.2311H121.983C122.294 33.2311 122.536 33.1619 122.744 33.0235C122.985 32.8506 123.159 32.6431 123.262 32.3319C123.331 32.1936 123.331 31.986 123.331 31.6748V29.4615V29.427Z" fill="white"/>
<path d="M128.138 30.7065C128.138 30.3953 128.034 30.1532 127.827 29.8766C127.55 29.5653 127.204 29.427 126.789 29.427H125.545H125.509L125.475 29.4616V33.1965V33.2311L125.509 33.2657H125.994H126.028L126.063 33.2311V31.9861H126.685C126.755 32.0898 126.928 32.4011 127.239 32.989C127.377 33.2657 127.377 33.2657 127.412 33.2657H128H128.034L128.069 33.2311L127.758 32.7123C127.447 32.1936 127.343 31.9861 127.273 31.8824C127.377 31.8478 127.515 31.7786 127.654 31.6403C128 31.3636 128.138 31.0524 128.138 30.7065ZM126.098 30.0149H126.72C126.962 30.0149 127.135 30.0494 127.239 30.1532C127.447 30.2915 127.55 30.4991 127.55 30.7065V30.7412C127.55 30.8795 127.515 31.0178 127.412 31.1215C127.239 31.329 127.032 31.3982 126.824 31.3982H126.098V30.0149Z" fill="white"/>
<path d="M130.525 29.427H130.006H129.971V29.4616V33.1965V33.2311H130.006H130.49H130.525V29.4616V29.427Z" fill="white"/>
<path d="M134.812 29.427H132.323L132.288 29.4616V29.9458V29.9803L132.323 30.0149H133.291V33.1965V33.2311H133.81H133.844V30.0149H134.812L134.848 29.9803V29.4616L134.812 29.427Z" fill="white"/>
<path d="M138.928 29.427C138.893 29.4961 138.375 30.1877 137.925 30.8103L137.441 30.1186C137.026 29.4961 136.922 29.427 136.922 29.3923H136.265H136.23V29.4615L137.475 31.1561C137.579 31.329 137.613 31.3636 137.648 31.3636V33.1273V33.1619L137.683 33.1964H138.202H138.236L138.271 33.1619V31.3636L139.654 29.4615V29.3923L138.928 29.427Z" fill="white"/>
<path d="M146.018 31.2944C145.948 31.2252 145.88 31.1907 145.81 31.1561C145.741 31.1215 145.637 31.0869 145.533 31.0524C145.361 31.0177 145.188 30.9832 145.084 30.9486C144.911 30.914 144.773 30.8448 144.703 30.8103C144.669 30.7756 144.634 30.7756 144.599 30.7411C144.531 30.6719 144.496 30.6027 144.496 30.499C144.496 30.4298 144.531 30.3606 144.565 30.2569C144.565 30.2223 144.599 30.1877 144.669 30.1186C144.807 29.9803 144.98 29.9457 145.188 29.9457C145.395 29.9457 145.603 30.0149 145.741 30.1877C145.81 30.2569 145.81 30.2915 145.845 30.2915L145.879 30.3261L146.398 30.0494L146.363 30.0149C146.329 29.9803 146.329 29.9457 146.294 29.9111C146.26 29.8765 146.225 29.8073 146.156 29.7382C146.086 29.669 146.052 29.6344 146.018 29.6344C145.948 29.5999 145.914 29.5653 145.845 29.5307C145.637 29.427 145.465 29.3923 145.257 29.3923H145.222C145.084 29.3923 144.946 29.427 144.807 29.4615C144.738 29.4961 144.634 29.5307 144.599 29.5653C144.531 29.5999 144.496 29.6344 144.427 29.7036C144.357 29.7382 144.323 29.8073 144.254 29.8765C144.081 30.084 144.012 30.3261 144.012 30.5682C144.012 30.9486 144.185 31.2253 144.565 31.4327C144.738 31.5019 144.98 31.6057 145.361 31.6748C145.499 31.7094 145.568 31.7094 145.637 31.744C145.672 31.744 145.706 31.7786 145.741 31.8131C145.88 31.9169 145.948 32.0207 145.948 32.1936C145.948 32.2973 145.914 32.401 145.879 32.4702C145.845 32.5048 145.81 32.5393 145.776 32.574C145.741 32.6085 145.706 32.6431 145.672 32.6431C145.533 32.7123 145.395 32.7469 145.257 32.7469H145.222C145.084 32.7469 144.946 32.7123 144.807 32.6431C144.773 32.6085 144.703 32.574 144.669 32.5393C144.634 32.5048 144.599 32.4702 144.565 32.4357C144.531 32.3665 144.496 32.2973 144.461 32.2627L144.427 32.2281L143.908 32.4702V32.5048C143.908 32.5048 143.908 32.5393 143.977 32.6085C144.012 32.6777 144.046 32.7123 144.116 32.816C144.15 32.8506 144.185 32.9198 144.254 32.989C144.289 33.0235 144.357 33.0581 144.393 33.0927C144.634 33.2656 144.911 33.3693 145.222 33.3693C145.429 33.3693 145.603 33.3348 145.776 33.2656C145.845 33.231 145.914 33.1964 145.948 33.1619C146.018 33.1273 146.052 33.0927 146.156 32.989C146.225 32.9198 146.26 32.8852 146.294 32.8506C146.433 32.6431 146.502 32.4356 146.502 32.1936C146.502 31.9515 146.433 31.744 146.294 31.571C146.156 31.4327 146.086 31.3636 146.018 31.2944Z" fill="white"/>
<path d="M149.96 29.427C149.579 29.427 149.234 29.5308 148.888 29.7728L148.715 29.9112C148.3 30.3262 148.127 30.7757 148.127 31.329C148.127 31.7095 148.23 32.0553 148.404 32.3666C148.438 32.4702 148.542 32.574 148.715 32.7469C149.096 33.0582 149.476 33.2311 149.96 33.2311C150.409 33.2311 150.824 33.0582 151.204 32.7469C151.585 32.3319 151.793 31.8824 151.793 31.329C151.793 30.8449 151.62 30.3953 151.274 30.0149C150.894 29.6345 150.444 29.427 149.96 29.427ZM149.96 32.6778C149.649 32.6778 149.372 32.574 149.13 32.3666C148.819 32.0898 148.68 31.744 148.68 31.3636C148.68 31.0524 148.784 30.7757 148.957 30.5336C149.234 30.2224 149.545 30.0494 149.925 30.0494C150.271 30.0494 150.548 30.1878 150.824 30.4645C151.066 30.7412 151.17 31.0524 151.17 31.3636V31.3982C151.17 31.6748 151.066 31.9515 150.928 32.1936C150.686 32.4702 150.34 32.6778 149.96 32.6778Z" fill="white"/>
<path d="M155.908 32.6778H154.317V29.4616L154.282 29.427H153.764L153.729 29.4616V33.1965V33.2311H153.764H155.873H155.908H155.943V32.7123V32.6778H155.908Z" fill="white"/>
<path d="M160.646 29.427H160.162H160.127L160.093 29.4615V31.8131C160.093 31.986 160.058 32.159 159.989 32.2973C159.851 32.5393 159.643 32.6777 159.366 32.6777H158.986C158.917 32.6777 158.847 32.6777 158.779 32.6431C158.605 32.574 158.467 32.4702 158.364 32.3319C158.26 32.1936 158.225 32.0207 158.225 31.744V29.4615V29.427L158.19 29.3923H157.707H157.672L157.637 29.427V31.8131C157.637 32.0552 157.707 32.2973 157.81 32.5394C157.879 32.6431 157.949 32.7469 158.052 32.8506C158.294 33.0927 158.605 33.1964 159.021 33.1964H159.262C159.574 33.1964 159.816 33.1273 160.023 32.989C160.266 32.8161 160.438 32.6085 160.542 32.2973C160.611 32.159 160.611 31.9515 160.611 31.6402V29.4615L160.646 29.427Z" fill="white"/>
<path d="M164.969 29.427H162.479H162.444L162.41 29.4616V29.9458V29.9803L162.444 30.0149H163.412V33.1965V33.2311H163.447H163.966H164V30.0149H164.934H164.969L165.003 29.9803V29.4616H164.969V29.427Z" fill="white"/>
<path d="M167.286 29.427H166.767L166.732 29.4616V33.1965V33.2311H166.767H167.251H167.286H167.32V29.4616L167.286 29.427Z" fill="white"/>
<path d="M171.124 29.427C170.744 29.427 170.398 29.5308 170.052 29.7728L169.879 29.9112C169.464 30.3262 169.292 30.7757 169.292 31.329C169.292 31.7095 169.396 32.0553 169.568 32.3666C169.603 32.4702 169.707 32.574 169.879 32.7469C170.26 33.0582 170.64 33.2311 171.124 33.2311C171.574 33.2311 171.989 33.0582 172.37 32.7469C172.75 32.3319 172.957 31.8824 172.957 31.329C172.957 30.8449 172.785 30.3953 172.438 30.0149C172.058 29.6345 171.609 29.427 171.124 29.427ZM171.124 32.6778C170.813 32.6778 170.536 32.574 170.294 32.3666C169.983 32.0898 169.845 31.744 169.845 31.3636C169.845 31.0524 169.949 30.7757 170.121 30.5336C170.398 30.2224 170.709 30.0494 171.09 30.0494C171.436 30.0494 171.713 30.1878 171.989 30.4645C172.231 30.7412 172.335 31.0524 172.335 31.3636V31.3982C172.335 31.6748 172.231 31.9515 172.093 32.1936C171.851 32.4702 171.505 32.6778 171.124 32.6778Z" fill="white"/>
<path d="M177.937 29.427H177.418H177.384L177.349 29.4615V32.2281L175.482 29.427V29.3923H174.929H174.894L174.859 29.427V33.1619V33.1964L174.894 33.2311H175.378H175.413L175.447 33.1964V30.4298L176.312 31.7094C176.9 32.6085 177.245 33.0927 177.315 33.2311V33.2656H177.868H177.903L177.937 33.2311V29.4615V29.427Z" fill="white"/>
<path d="M182.225 31.5019C182.191 31.4327 182.121 31.3981 182.053 31.329C181.983 31.2598 181.915 31.2253 181.845 31.1907C181.776 31.1561 181.672 31.1215 181.568 31.0869C181.396 31.0523 181.223 31.0177 181.119 30.9832C180.946 30.9486 180.808 30.8794 180.738 30.8448C180.704 30.8103 180.669 30.8103 180.634 30.7757C180.566 30.7065 180.531 30.6373 180.531 30.5336V30.499C180.531 30.4298 180.566 30.3606 180.6 30.2569C180.6 30.2223 180.634 30.1877 180.704 30.1186C180.842 29.9803 181.015 29.9457 181.223 29.9457C181.43 29.9457 181.638 30.0149 181.776 30.1877C181.845 30.2569 181.845 30.2915 181.88 30.2915L181.915 30.3261L182.433 30.0494L182.398 30.0149C182.364 29.9803 182.364 29.9457 182.329 29.9111C182.295 29.8765 182.26 29.8073 182.191 29.7382C182.121 29.669 182.087 29.6344 182.053 29.6344C181.983 29.5999 181.949 29.5653 181.88 29.5307C181.672 29.427 181.5 29.3923 181.292 29.3923H181.257C181.119 29.3923 180.981 29.427 180.842 29.4615C180.773 29.4961 180.669 29.5307 180.634 29.5653C180.566 29.5999 180.531 29.6344 180.462 29.7036C180.393 29.7382 180.358 29.8073 180.289 29.8765C180.116 30.084 180.047 30.3261 180.047 30.5682C180.047 30.9486 180.22 31.2253 180.6 31.4327C180.773 31.5019 181.015 31.6057 181.396 31.6748C181.534 31.7094 181.603 31.7094 181.672 31.744C181.707 31.744 181.741 31.7786 181.776 31.8131C181.915 31.9169 181.983 32.0207 181.983 32.1936C181.983 32.2973 181.949 32.401 181.915 32.4702C181.88 32.5048 181.845 32.5393 181.811 32.574C181.776 32.6085 181.741 32.6431 181.707 32.6431C181.568 32.7123 181.43 32.7469 181.292 32.7469H181.257C181.119 32.7469 180.981 32.7123 180.842 32.6431C180.808 32.6085 180.738 32.574 180.704 32.5393C180.669 32.5048 180.634 32.4702 180.6 32.4357C180.566 32.3665 180.531 32.2973 180.496 32.2627L180.462 32.2281L179.943 32.4702V32.5048C179.943 32.5048 179.943 32.5393 180.013 32.6085C180.047 32.6777 180.081 32.7123 180.151 32.816C180.185 32.8506 180.22 32.9198 180.289 32.989C180.324 33.0235 180.393 33.0581 180.428 33.0927C180.669 33.2656 180.946 33.3693 181.257 33.3693C181.465 33.3693 181.638 33.3348 181.811 33.2656C181.88 33.231 181.949 33.1964 181.983 33.1619C182.053 33.1273 182.087 33.0927 182.191 32.989C182.26 32.9198 182.295 32.8852 182.329 32.8506C182.468 32.6431 182.537 32.4356 182.537 32.1936C182.433 31.8823 182.364 31.6748 182.225 31.5019Z" fill="white"/>
</g>
<defs>
<clipPath id="clip0_1020_560">
<rect width="182.483" height="38.6435" fill="white" transform="translate(0.782593 0.678223)"/>
</clipPath>
</defs>
</svg>
