<svg width="117" height="22" viewBox="0 0 117 22" fill="none" xmlns="http://www.w3.org/2000/svg">
<g clip-path="url(#clip0_1062_6339)">
<path d="M23.9941 0H0.994141V22H23.9941V0Z" fill="#0086FF"/>
<path d="M3.99414 6.51061V9.55587L4.37108 10H6.99414V6.51364H5.50321C5.52566 5.37578 6.02264 4.78461 6.99414 4.74015V3C4.99414 3.26678 3.99414 4.43699 3.99414 6.51061Z" fill="white"/>
<path d="M8.99414 6.51061V9.55587L9.38207 10H11.9941V6.51364H10.5058C10.5325 5.37578 11.0286 4.78461 11.9941 4.74015V3C9.99414 3.26678 8.99414 4.43699 8.99414 6.51061Z" fill="white"/>
<path d="M17.9941 14.2552V14.7448L14.1544 18L12.9941 17.2571L15.0724 14.5007L12.9941 11.7429L14.1544 11L17.9941 14.2552Z" fill="white"/>
<path d="M21.9941 14.2552V14.7448L18.1544 18L16.9941 17.2571L19.0724 14.5007L16.9941 11.7429L18.1544 11L21.9941 14.2552Z" fill="white"/>
<path d="M32.8929 7.53674C32.9774 7.42267 33.0969 7.28089 33.2499 7.11304C33.4029 6.94518 33.7423 6.71704 34.2651 6.43022C34.7687 6.14801 35.3338 6.00006 35.9081 6C37.1129 6 38.0951 6.42642 38.8547 7.27926C39.6143 8.1321 39.9941 9.28153 39.9941 10.7276V17H37.0953V11.06C37.119 10.4705 36.9107 9.89582 36.5168 9.46459C36.1307 9.05855 35.5947 8.83835 35.0412 8.85837C34.4478 8.83073 33.8728 9.07225 33.4698 9.51837C33.081 9.95294 32.8866 10.5776 32.8866 11.3924V17H29.9941V6.21511H32.8929V7.53674Z" fill="white"/>
<path d="M48.8964 15.7143C48.8062 15.8119 48.6802 15.9334 48.5202 16.0773C48.1994 16.3113 47.846 16.5028 47.4699 16.6466C46.9439 16.8793 46.3696 17 45.7881 17C44.6669 17 43.754 16.7068 43.0493 16.1205C42.3756 15.593 41.9889 14.8096 41.9956 13.9858C41.9699 13.1827 42.2888 12.4037 42.8807 11.8238C43.4731 11.2481 44.2885 10.875 45.3268 10.7045L48.9015 10.1032C48.9156 9.68768 48.7277 9.2887 48.3908 9.01904C48.0504 8.73761 47.5721 8.59689 46.9559 8.59689C46.4733 8.58639 45.994 8.67479 45.5515 8.85594C45.2184 8.97998 44.9168 9.16849 44.6664 9.40922L44.4076 9.66187L42.6901 8.0564L42.8756 7.82934C43.0392 7.65436 43.2155 7.49032 43.4033 7.33842C43.6778 7.10553 43.9767 6.89927 44.2953 6.72278C44.6963 6.51233 45.1219 6.346 45.5634 6.22707C46.0835 6.07668 46.6245 6.00014 47.1686 6C48.5883 6 49.7475 6.3987 50.6463 7.1961C51.5338 7.9714 52.0242 9.06742 51.9927 10.2056V16.7937H48.8964V15.7143ZM48.2734 14.0017C48.6887 13.5828 48.8964 13.0013 48.8964 12.2572V11.9373L46.3703 12.3691C45.526 12.4949 45.1038 12.892 45.1038 13.5604C45.1038 14.2768 45.6009 14.635 46.595 14.635C47.2255 14.661 47.8372 14.4302 48.2734 14.0017Z" fill="white"/>
<path d="M67.9109 11.06C67.9109 10.3723 67.7419 9.83348 67.4038 9.44346C67.0827 9.06305 66.5973 8.84709 66.0887 8.85842C65.5165 8.84784 64.9722 9.09634 64.6181 9.52983C64.231 9.97634 64.0383 10.5989 64.0383 11.3925V17H60.9584V11.06C60.9584 10.3723 60.7855 9.83348 60.4395 9.44346C60.1199 9.06487 59.6374 8.84911 59.1312 8.85842C58.5572 8.84858 58.0112 9.09673 57.6538 9.52983C57.265 9.97634 57.0689 10.5989 57.0689 11.3925V17H53.9941V6.21518H57.0689V7.5368C57.1721 7.38658 57.288 7.24486 57.4154 7.1131C57.7143 6.84306 58.0498 6.61336 58.4128 6.43029C58.9062 6.1474 59.4699 5.99873 60.044 6.00007C60.4652 5.99752 60.8837 6.06477 61.2813 6.19888C61.6135 6.3038 61.9258 6.46011 62.2059 6.6617C62.4211 6.82281 62.6208 7.00225 62.8026 7.19784C62.9408 7.33936 63.0549 7.50106 63.1407 7.67695L63.2303 7.86924C63.259 7.82687 63.3097 7.76006 63.379 7.67043C63.5207 7.50994 63.6738 7.35911 63.8371 7.21903C64.0703 7.00877 64.322 6.81848 64.5893 6.65029C64.9179 6.45523 65.2721 6.30341 65.6424 6.19888C66.08 6.06623 66.5361 5.99918 66.9947 6.00007C68.2276 6.00007 69.2024 6.39933 69.9191 7.19784C70.6358 7.99635 70.9941 9.17294 70.9941 10.7276V17H67.9109V11.06Z" fill="white"/>
<path d="M75.0777 12.4707C75.1968 13.0531 75.5296 13.5724 76.0131 13.9301C76.564 14.3404 77.2431 14.5506 77.9343 14.5247C78.4695 14.5302 78.9995 14.4211 79.4873 14.205C79.863 14.0578 80.2044 13.8376 80.4911 13.5576L80.8024 13.2379L82.3391 15.1769L82.1402 15.3719C81.9584 15.5329 81.7662 15.6824 81.565 15.8195C81.2694 16.0281 80.9571 16.213 80.6313 16.3725C80.2214 16.565 79.7906 16.7114 79.3472 16.8089C78.8139 16.9372 78.2667 17.0011 77.7176 16.9992C76.1991 17.0254 74.7359 16.4409 73.6681 15.3815C72.5822 14.3738 71.9754 12.9666 71.9946 11.5004C72.0116 8.46516 74.5191 6.01048 77.6133 6C79.1527 6 80.4346 6.50405 81.4591 7.51216C82.4835 8.52027 82.9952 9.77934 82.9941 11.2894L82.8866 12.4707H75.0777ZM76.0033 9.01953C75.5579 9.38536 75.2344 9.87361 75.0745 10.4214H80.0267C79.9249 9.8802 79.6374 9.38945 79.2119 9.03072C78.7673 8.6611 78.1991 8.46582 77.6166 8.48244C77.0304 8.46504 76.4576 8.65576 76.0033 9.01953Z" fill="white"/>
<path d="M84.579 13.4507C85.3726 12.8498 86.6138 12.8498 87.4075 13.4507C87.7807 13.7179 87.9941 14.0998 87.9941 14.5008C87.9941 14.9018 87.7807 15.2838 87.4075 15.5509C86.6127 16.1497 85.3737 16.1497 84.579 15.5509C84.2068 15.2833 83.9941 14.9015 83.9941 14.5008C83.9941 14.1001 84.2068 13.7184 84.579 13.4507Z" fill="white"/>
<path d="M95.8987 15.7149C95.8085 15.8124 95.6825 15.9339 95.5224 16.0777C95.202 16.3113 94.8491 16.5027 94.4735 16.6468C93.9467 16.8794 93.3716 17 92.7894 17C91.6678 17 90.7546 16.707 90.0496 16.1209C89.3757 15.5936 88.9889 14.8106 88.9956 13.9871C88.9697 13.1841 89.2895 12.4051 89.8828 11.8261C90.4731 11.2507 91.2887 10.8777 92.3297 10.7072L95.9055 10.1062C95.9192 9.69096 95.7313 9.29235 95.3947 9.02252C95.0541 8.74121 94.5751 8.60055 93.9575 8.60055C93.4748 8.59026 92.9955 8.67861 92.5527 8.85949C92.2195 8.98347 91.9178 9.1719 91.6673 9.41253L91.4085 9.66507L89.6903 8.0603L89.8759 7.83333C90.0395 7.65843 90.2159 7.49447 90.4038 7.34263C90.6784 7.10984 90.9773 6.90367 91.2961 6.72726C91.6973 6.5169 92.1229 6.35064 92.5647 6.23176C93.0835 6.08022 93.6236 6.00211 94.167 6C95.5894 6 96.749 6.39853 97.6458 7.19558C98.5336 7.97054 99.0242 9.06608 98.9927 10.2037V16.789H95.8987V15.7149ZM95.2755 14.0031C95.691 13.5843 95.8987 13.003 95.8987 12.2592V11.9396L93.3735 12.3711C92.5266 12.4969 92.1038 12.8938 92.1049 13.5619C92.1049 14.278 92.6021 14.636 93.5966 14.636C94.2272 14.6621 94.8392 14.4313 95.2755 14.0031Z" fill="white"/>
<path d="M113.905 11.06C113.905 10.3723 113.736 9.83348 113.398 9.44346C113.078 9.06285 112.592 8.84684 112.084 8.85842C111.512 8.84835 110.968 9.09675 110.614 9.52983C110.227 9.97634 110.034 10.5989 110.034 11.3925V17H106.956V11.06C106.956 10.3723 106.783 9.83348 106.437 9.44346C106.117 9.06488 105.635 8.84912 105.129 8.85842C104.555 8.84858 104.01 9.09673 103.652 9.52983C103.264 9.97634 103.068 10.5989 103.068 11.3925V17H99.9941V6.21518H103.068V7.5368C103.168 7.38688 103.281 7.24517 103.406 7.1131C103.704 6.84306 104.04 6.61336 104.403 6.43029C104.9 6.14499 105.469 5.99623 106.048 6.00007C106.469 5.99752 106.888 6.06477 107.285 6.19889C107.617 6.30345 107.93 6.45979 108.209 6.6617C108.425 6.82281 108.624 7.00225 108.806 7.19784C108.944 7.33936 109.058 7.50106 109.144 7.67695L109.233 7.86925C109.262 7.82688 109.313 7.76006 109.384 7.67043C109.524 7.50943 109.677 7.35856 109.84 7.21903C110.073 7.00877 110.325 6.81848 110.592 6.65029C110.92 6.45523 111.274 6.30341 111.645 6.19889C112.082 6.06624 112.538 5.99918 112.996 6.00007C114.228 6.00007 115.202 6.39933 115.919 7.19784C116.637 7.99636 116.995 9.17294 116.994 10.7276V17H113.905V11.06Z" fill="white"/>
</g>
<defs>
<clipPath id="clip0_1062_6339">
<rect width="116" height="22" fill="white" transform="translate(0.994141)"/>
</clipPath>
</defs>
</svg>
