<svg width="125" height="27" viewBox="0 0 125 27" fill="none" xmlns="http://www.w3.org/2000/svg">
<g clip-path="url(#clip0_1915_516)">
<path d="M18.8068 23.0116L18.0507 23.4368L17.2947 23.0116C13.5855 20.8616 10.6795 17.4595 9.14382 13.4667C8.4823 11.742 8.08068 9.94645 7.9389 8.10368C7.01749 7.67839 6.16697 7.324 5.43457 7.08776C5.50546 9.47393 6.00158 11.8129 6.8521 14.0574C8.62408 18.6407 11.9553 22.539 16.2316 25.0197L18.0507 26.0592L19.8699 25.0197C21.8073 23.9093 23.532 22.4918 25.0204 20.8616C24.5951 20.3654 24.0754 19.8221 23.4611 19.1841C22.138 20.6962 20.5551 21.9956 18.8068 23.0116ZM30.7142 5.88285L30.6197 3.89826L28.895 2.90598C25.6346 1.01591 21.8782 0 18.0507 0C14.6487 0 11.2701 0.803279 8.24607 2.33896C9.19109 2.76422 10.207 3.28399 11.2701 3.87463C13.4201 3.04773 15.7354 2.59884 18.0744 2.59884C21.4056 2.59884 24.666 3.47299 27.5247 5.12678L28.2335 5.52845L28.2807 6.35536C28.2807 6.4262 28.2807 6.5207 28.2807 6.59159C28.2807 8.9542 27.8555 11.2459 27.0049 13.4195C26.7923 13.9865 26.5324 14.5299 26.2725 15.0733C26.8868 15.6403 27.4538 16.2073 27.9736 16.7743C28.4697 15.9002 28.9186 14.9788 29.273 14.0101C30.2417 11.5058 30.7378 8.88331 30.7378 6.16636C30.7142 6.11908 30.7142 6.00097 30.7142 5.88285Z" fill="white"/>
<path d="M24.0753 15.0024C24.3824 14.4354 24.6659 13.8447 24.9022 13.2541C25.5401 11.6003 25.8708 9.85197 25.8708 8.08004C25.8708 8.00915 25.8708 7.96192 25.8708 7.89103L25.8472 7.27674L25.3038 6.96962C23.1303 5.71743 20.6495 5.05592 18.1216 5.05592C16.2079 5.05592 14.3178 5.43393 12.5695 6.16633C9.02562 3.89827 5.38726 2.17358 2.64667 2.17358C1.04012 2.17358 0.024209 3.11862 0.000583221 4.65429C-0.0466684 7.48941 2.78843 11.8602 4.44223 13.9865C3.63896 12.8997 2.69392 10.6789 2.50492 10.1119C2.29229 9.49757 2.10328 8.85967 1.98515 8.19815C1.46539 5.33942 2.26866 4.81968 4.30048 5.17408C5.95428 5.45759 8.10421 6.40261 10.4196 7.72564V7.91464C10.4196 7.98553 10.4196 8.03276 10.4196 8.10365C10.4196 9.89924 10.7503 11.6239 11.3882 13.2777C12.5223 16.3018 14.7431 18.8534 17.5546 20.5072L18.1216 20.838L18.6886 20.5072C20.3188 19.5622 21.7363 18.31 22.8704 16.8452C28.446 21.9011 31.1394 26.1774 24.2879 23.9093C27.2648 25.4923 28.5642 25.6813 29.4856 25.9175C33.4311 26.9807 31.8009 22.0901 24.0753 15.0024ZM18.854 12.0492L19.421 14.6952H16.8458L17.0821 13.5376C17.1057 13.4667 17.3183 12.4036 17.5073 11.4585C17.1057 11.2459 16.8222 10.8206 16.8222 10.3245C16.8222 9.61573 17.3892 9.02506 18.1216 9.02506C18.8303 9.02506 19.421 9.59207 19.421 10.3245C19.421 10.8206 19.1375 11.2459 18.7358 11.4585L18.854 12.0492Z" fill="white"/>
<path d="M39.8009 3.7439V17.1634H36.446V3.7439H39.8009Z" fill="white"/>
<path d="M110.277 3.77637L108.789 6.70599H99.4087V3.77637H110.277Z" fill="white"/>
<path d="M108.812 8.92676H99.4087V11.8091H108.812V8.92676Z" fill="white"/>
<path d="M45.4712 9.28112V17.1721H42.1399V3.79994L42.1163 3.77631H42.1399V3.75269H45.4712V3.77631L50.8577 11.5728V3.77631H54.2364V17.1012L54.2838 17.1721H50.8577V17.054L45.4712 9.28112Z" fill="white"/>
<path d="M67.3958 3.77637L65.9311 6.6351H56.5278V3.77637H67.3958ZM59.8591 11.7855V17.1722L56.5278 17.1486V8.92681H65.9311V11.7855H59.8591Z" fill="white"/>
<path d="M82.7053 10.4388C82.7053 12.447 82.1148 14.0535 80.9336 15.3057C79.752 16.5579 78.0985 17.1485 75.9719 17.1485C73.8457 17.1485 72.1918 16.5106 71.0106 15.2348C69.8295 13.959 69.2389 12.3525 69.2389 10.4624C69.2389 8.45422 69.8764 6.84768 71.1289 5.59549C72.381 4.34333 74.0109 3.75269 75.9719 3.75269C78.0276 3.75269 79.6576 4.36696 80.8862 5.59549C82.0913 6.82402 82.7053 8.45422 82.7053 10.4388ZM79.1853 10.4388C79.1853 9.37563 78.9487 8.45422 78.4764 7.6982C78.0037 6.94218 77.2244 6.58779 76.1376 6.58779C74.9799 6.58779 74.1292 6.9658 73.6096 7.72181C73.0659 8.47783 72.8063 9.37563 72.8063 10.4388C72.8063 11.3129 73.0659 12.1871 73.6096 13.0377C74.1292 13.8882 74.9799 14.3134 76.1376 14.3134C77.2244 14.3134 78.0037 13.9354 78.4764 13.1794C78.9487 12.4234 79.1853 11.502 79.1853 10.4388Z" fill="white"/>
<path d="M93.5024 8.99762C95.8652 9.39924 97.0464 10.6278 97.0698 12.6833V13.0613C97.0464 15.5183 95.8652 16.8886 93.5259 17.1721H84.9972L86.3202 14.2662H92.6757C93.3606 14.1481 93.7151 13.7228 93.7151 12.9668C93.7151 12.3052 93.3372 11.9272 92.6048 11.8091H88.5412C86.1784 11.4074 84.9972 10.1789 84.9738 8.12344V7.74543C84.9972 5.38287 86.1784 4.05982 88.5172 3.75269H97.0464L95.6995 6.63501H89.297C88.6355 6.72952 88.3046 7.1548 88.3285 7.86359C88.3285 8.52511 88.7064 8.8795 89.4388 8.97401H93.5024V8.99762Z" fill="white"/>
<path d="M110.277 17.1486L108.789 14.2427H99.4087V17.1486H110.277Z" fill="white"/>
<path d="M122.893 14.2661H121.594L121.57 14.2425H118.191C116.537 14.2425 115.687 12.9667 115.663 10.4151C115.711 7.91077 116.656 6.65858 118.522 6.63496H122.893L124.239 3.729H118.191C114.175 4.17789 112.143 6.42235 112.143 10.4387C112.143 14.4551 113.986 16.6996 117.648 17.1485H124.239L122.893 14.2661Z" fill="white"/>
<path d="M36.8241 19.6313H36.4933H36.4697L36.446 19.655V22.2066L36.4697 22.2302H36.8241H36.8477V19.655L36.8241 19.6313Z" fill="white"/>
<path d="M40.3917 19.6404H40.0609H40.0373L40.0137 19.664V21.554L38.7379 19.6404V19.6167H38.3599H38.3362L38.3126 19.6404V22.1919V22.2155L38.3362 22.2392H38.667H38.6906L38.7142 22.2155V20.3255L39.3049 21.1996C39.7065 21.7903 39.9428 22.1447 39.99 22.2392V22.2628H40.3681H40.3917L40.4153 22.2392V19.664L40.3917 19.6404Z" fill="white"/>
<path d="M43.2975 19.6404H41.9272H41.9036L41.88 19.664V22.2156V22.2392H41.9036H42.258H42.2816V21.1524H43.1321V20.7508H42.2816V20.042H43.2739H43.2975L43.3212 20.0184V19.664L43.2975 19.6404Z" fill="white"/>
<path d="M45.7073 19.6404C45.4474 19.6404 45.2112 19.7113 44.9749 19.8766L44.8568 19.9712C44.5733 20.2547 44.4552 20.5618 44.4552 20.9398C44.4552 21.1997 44.526 21.4359 44.6442 21.6486C44.6678 21.7194 44.7387 21.7903 44.8568 21.9084C45.1167 22.1211 45.3766 22.2392 45.7073 22.2392C46.0145 22.2392 46.298 22.1211 46.5579 21.9084C46.8178 21.6249 46.9595 21.3178 46.9595 20.9398C46.9595 20.609 46.8414 20.3019 46.6051 20.042C46.3452 19.7821 46.0381 19.6404 45.7073 19.6404ZM45.7073 21.8612C45.4947 21.8612 45.3057 21.7903 45.1403 21.6486C44.9277 21.4595 44.8332 21.2233 44.8332 20.9634C44.8332 20.7508 44.9041 20.5618 45.0222 20.3964C45.2112 20.1838 45.4238 20.0656 45.6837 20.0656C45.92 20.0656 46.109 20.1602 46.298 20.3492C46.4634 20.5382 46.5342 20.7508 46.5342 20.9634V20.987C46.5342 21.176 46.4634 21.365 46.3689 21.5304C46.2035 21.7194 45.9672 21.8612 45.7073 21.8612Z" fill="white"/>
<path d="M50.0784 20.5145C50.0784 20.3019 50.0075 20.1365 49.8657 19.9475C49.6765 19.7349 49.4404 19.6404 49.1568 19.6404H48.3062H48.2826L48.2589 19.664V22.2156V22.2392L48.2826 22.2628H48.6133H48.6369L48.6606 22.2392V21.3887H49.0859C49.1328 21.4595 49.2512 21.6958 49.4638 22.0738C49.5582 22.2628 49.5582 22.2628 49.5821 22.2628H49.9835H50.0075L50.0309 22.2392L49.8183 21.8848C49.6056 21.5304 49.5347 21.3887 49.4873 21.3178C49.5582 21.2942 49.653 21.2469 49.7474 21.1524C49.96 20.9634 50.0784 20.7508 50.0784 20.5145ZM48.6606 20.042H49.0859C49.2512 20.042 49.3695 20.0656 49.4404 20.1365C49.5821 20.231 49.653 20.3728 49.653 20.5145V20.5382C49.653 20.6327 49.6291 20.7272 49.5582 20.798C49.4404 20.9398 49.2986 20.987 49.1568 20.987H48.6606V20.042Z" fill="white"/>
<path d="M54.0236 19.6404H53.5748L52.6768 21.6486L52.228 20.6563C51.7792 19.664 51.7792 19.6404 51.7792 19.6404H51.3538H51.3304L51.3064 19.664V22.2156V22.2392L51.3304 22.2628H51.6848H51.7083L51.7317 22.2392V20.5145L52.4641 22.1447C52.5115 22.2628 52.5115 22.2628 52.535 22.2628H52.842L53.6218 20.5145V22.2392V22.2628L53.6457 22.2864H53.9997H54.0236L54.0471 22.2628V19.664L54.0236 19.6404Z" fill="white"/>
<path d="M56.67 19.6404H56.3391L55.2997 22.2156V22.2628H55.7011L55.9137 21.7194H57.0954L57.2606 22.1211C57.3075 22.2392 57.3075 22.2628 57.3315 22.2628H57.6859L57.7329 22.2392L56.8353 20.042C56.6935 19.6404 56.6935 19.6404 56.67 19.6404ZM56.9296 21.2942H56.0795L56.3391 20.6563C56.4334 20.42 56.4808 20.3019 56.5043 20.2547L56.9296 21.2942Z" fill="white"/>
<path d="M60.4027 19.6404H58.7018H58.6779L58.6544 19.664V19.9948V20.0184L58.6779 20.042H59.3398V22.2156V22.2392H59.3633H59.7178H59.7412V20.042H60.3792H60.4027L60.4262 20.0184V19.664L60.4027 19.6404Z" fill="white"/>
<path d="M61.9857 19.6404H61.6313L61.6078 19.664V22.2156V22.2392H61.6313H61.9622H61.9857H62.0092V19.664L61.9857 19.6404Z" fill="white"/>
<path d="M64.6081 19.6404C64.348 19.6404 64.1119 19.7113 63.8758 19.8766L63.7575 19.9712C63.4739 20.2547 63.3561 20.5618 63.3561 20.9398C63.3561 21.1997 63.427 21.4359 63.5448 21.6486C63.5687 21.7194 63.6396 21.7903 63.7575 21.9084C64.0175 22.1211 64.2776 22.2392 64.6081 22.2392C64.9151 22.2392 65.1987 22.1211 65.4588 21.9084C65.7184 21.6249 65.8602 21.3178 65.8602 20.9398C65.8602 20.609 65.7423 20.3019 65.5057 20.042C65.2461 19.7821 64.9391 19.6404 64.6081 19.6404ZM64.6081 21.8612C64.3955 21.8612 64.2067 21.7903 64.041 21.6486C63.8283 21.4595 63.734 21.2233 63.734 20.9634C63.734 20.7508 63.8049 20.5618 63.9232 20.3964C64.1119 20.1838 64.3246 20.0656 64.5847 20.0656C64.8208 20.0656 65.01 20.1602 65.1987 20.3492C65.3639 20.5382 65.4348 20.7508 65.4348 20.9634V20.987C65.4348 21.176 65.3639 21.365 65.2696 21.5304C65.1043 21.7194 64.8682 21.8612 64.6081 21.8612Z" fill="white"/>
<path d="M69.2624 19.6404H68.9314H68.9079L68.8844 19.664V21.554L67.6084 19.6404V19.6167H67.2305H67.2071L67.1831 19.6404V22.1919V22.2155L67.2071 22.2392H67.5376H67.5615L67.585 22.2155V20.3255L68.1756 21.1996C68.5774 21.8139 68.8136 22.1447 68.861 22.2392V22.2628H69.2389H69.2624L69.2858 22.2392V19.664L69.2624 19.6404Z" fill="white"/>
<path d="M73.8932 20.9161C73.8457 20.8689 73.7983 20.8453 73.7514 20.8216C73.7039 20.798 73.6331 20.7744 73.5622 20.7508C73.4439 20.7271 73.326 20.7035 73.2551 20.6799C73.1368 20.6563 73.0425 20.609 72.9951 20.5854C72.9716 20.5617 72.9481 20.5617 72.9242 20.5381C72.8772 20.4909 72.8533 20.4436 72.8533 20.3727C72.8533 20.3255 72.8772 20.2782 72.9007 20.2074C72.9007 20.1837 72.9242 20.1601 72.9716 20.1129C73.0659 20.0184 73.1843 19.9947 73.326 19.9947C73.4678 19.9947 73.6096 20.042 73.7039 20.1601C73.7514 20.2074 73.7514 20.231 73.7748 20.231L73.7983 20.2546L74.1528 20.0656L74.1293 20.042C74.1058 20.0184 74.1058 19.9947 74.0819 19.9711C74.0584 19.9475 74.0349 19.9002 73.9875 19.853C73.9401 19.8057 73.9166 19.7821 73.8932 19.7821C73.8457 19.7585 73.8223 19.7349 73.7748 19.7112C73.6331 19.6404 73.5147 19.6167 73.373 19.6167H73.3495C73.2552 19.6167 73.1608 19.6404 73.0659 19.664C73.019 19.6876 72.9481 19.7112 72.9242 19.7349C72.8772 19.7585 72.8533 19.7821 72.8063 19.8294C72.7589 19.853 72.7355 19.9002 72.688 19.9475C72.5697 20.0892 72.5228 20.2546 72.5228 20.42C72.5228 20.6799 72.6406 20.8689 72.9007 21.0106C73.019 21.0579 73.1843 21.1288 73.4439 21.176C73.5387 21.1996 73.5856 21.1996 73.6331 21.2233C73.6565 21.2233 73.6805 21.2469 73.7039 21.2705C73.7983 21.3414 73.8457 21.4123 73.8457 21.5304C73.8457 21.6013 73.8223 21.6721 73.7983 21.7194C73.7748 21.743 73.7514 21.7666 73.7274 21.7903C73.704 21.8139 73.6805 21.8375 73.6565 21.8375C73.5622 21.8848 73.4678 21.9084 73.373 21.9084H73.3495C73.2552 21.9084 73.1608 21.8848 73.0659 21.8375C73.0425 21.8139 72.9951 21.7903 72.9716 21.7666C72.9481 21.743 72.9242 21.7194 72.9007 21.6958C72.8772 21.6485 72.8533 21.6013 72.8298 21.5776L72.8063 21.554L72.4519 21.7194V21.743C72.4519 21.743 72.4519 21.7666 72.4988 21.8139C72.5228 21.8611 72.5463 21.8848 72.5937 21.9556C72.6171 21.9793 72.6406 22.0265 72.688 22.0738C72.7115 22.0974 72.7589 22.121 72.7824 22.1446C72.9481 22.2628 73.1368 22.3337 73.3495 22.3337C73.4913 22.3337 73.6096 22.31 73.7274 22.2628C73.7748 22.2391 73.8223 22.2155 73.8457 22.1919C73.8932 22.1683 73.9166 22.1446 73.9875 22.0738C74.0349 22.0265 74.0584 22.0029 74.0819 21.9793C74.1767 21.8375 74.2236 21.6958 74.2236 21.5304C74.2236 21.365 74.1767 21.2233 74.0819 21.1051C73.964 21.0106 73.9401 20.9634 73.8932 20.9161Z" fill="white"/>
<path d="M76.846 19.6404H75.4756H75.4521V19.664V22.2156V22.2392H75.4756H76.846H76.8699V21.8612H75.8301V21.1524H76.6333L76.6573 21.1288V20.7744V20.7508H75.8301V20.042H76.8699V19.664L76.846 19.6404Z" fill="white"/>
<path d="M79.3272 20.042C79.5393 20.042 79.752 20.1365 79.9177 20.3019C79.9886 20.3727 80.0356 20.4436 80.0595 20.4909L80.083 20.5145L80.1064 20.4909C80.39 20.3491 80.39 20.3255 80.4135 20.3255L80.4374 20.3019V20.2782C80.39 20.2074 80.3426 20.1129 80.2482 20.0184C79.9886 19.7585 79.7051 19.6167 79.3741 19.6167C79.0436 19.6167 78.7361 19.7585 78.4765 20.042C78.2638 20.3019 78.1455 20.609 78.1455 20.9161C78.1455 21.2469 78.2638 21.5304 78.4765 21.7903C78.7361 22.0738 79.0436 22.2155 79.3976 22.2155C79.752 22.2155 80.0595 22.0738 80.3191 21.7903C80.39 21.7194 80.4374 21.6249 80.4844 21.554V21.5068L80.1539 21.3178L80.1304 21.3414C80.1064 21.3886 80.0595 21.4595 79.9647 21.554C79.7994 21.7194 79.6102 21.7903 79.4215 21.7903H79.3272C79.138 21.7903 78.9727 21.7194 78.8309 21.6013C78.6183 21.4123 78.4999 21.176 78.4999 20.8925C78.4999 20.6563 78.5943 20.4436 78.76 20.2546C78.9253 20.1129 79.1145 20.042 79.3272 20.042Z" fill="white"/>
<path d="M83.7213 19.6404H83.3908H83.3668L83.3434 19.664V21.2705C83.3434 21.3886 83.3199 21.5068 83.2725 21.6013C83.1781 21.7667 83.0363 21.8612 82.8471 21.8612H82.5875C82.5401 21.8612 82.4927 21.8612 82.4458 21.8375C82.3275 21.7903 82.2331 21.7194 82.1622 21.6249C82.0913 21.5304 82.0674 21.4123 82.0674 21.2233V19.664V19.6404L82.0439 19.6167H81.7134H81.6895V19.664V21.2941C81.6895 21.4595 81.7369 21.6249 81.8078 21.7903C81.8552 21.8612 81.9021 21.932 81.973 22.0029C82.1383 22.1683 82.3509 22.2392 82.6345 22.2392H82.8002C83.0129 22.2392 83.1781 22.1919 83.3199 22.0974C83.4851 21.9793 83.6034 21.8375 83.6743 21.6249C83.7213 21.5304 83.7213 21.3886 83.7213 21.176V19.664V19.6404Z" fill="white"/>
<path d="M87.0051 20.5145C87.0051 20.3019 86.9342 20.1365 86.7924 19.9475C86.6037 19.7349 86.3671 19.6404 86.0835 19.6404H85.2333H85.2094L85.1859 19.664V22.2156V22.2392L85.2094 22.2628H85.5404H85.5638L85.5878 22.2392V21.3887H86.0126C86.06 21.4595 86.1784 21.6722 86.391 22.0738C86.4854 22.2628 86.4854 22.2628 86.5088 22.2628H86.9107H86.9342L86.9576 22.2392L86.7455 21.8848C86.5328 21.5304 86.4619 21.3887 86.4145 21.3178C86.4854 21.2942 86.5797 21.2469 86.6746 21.1524C86.9107 20.9634 87.0051 20.7508 87.0051 20.5145ZM85.6112 20.042H86.0366C86.2018 20.042 86.3201 20.0656 86.391 20.1365C86.5328 20.231 86.6037 20.3728 86.6037 20.5145V20.5382C86.6037 20.6327 86.5797 20.7272 86.5088 20.798C86.391 20.9398 86.2492 20.987 86.1075 20.987H85.6112V20.042Z" fill="white"/>
<path d="M88.6356 19.6404H88.2812H88.2577V19.664V22.2156V22.2392H88.2812H88.6121H88.6356V19.664V19.6404Z" fill="white"/>
<path d="M91.5649 19.6404H89.864L89.8406 19.664V19.9948V20.0184L89.864 20.042H90.5255V22.2156V22.2392H90.88H90.9034V20.042H91.5649L91.5888 20.0184V19.664L91.5649 19.6404Z" fill="white"/>
<path d="M94.3766 19.6404C94.3526 19.6876 93.9987 20.1601 93.6911 20.5854L93.3606 20.1129C93.0771 19.6876 93.0062 19.6404 93.0062 19.6167H92.5574H92.5334V19.664L93.3841 20.8216C93.455 20.9398 93.4785 20.9634 93.5024 20.9634V22.1683V22.1919L93.5259 22.2155H93.8803H93.9038L93.9278 22.1919V20.9634L94.8728 19.664V19.6167L94.3766 19.6404Z" fill="white"/>
<path d="M99.2201 20.9161C99.1726 20.8689 99.1257 20.8453 99.0783 20.8216C99.0309 20.798 98.96 20.7744 98.8891 20.7508C98.7713 20.7271 98.6529 20.7035 98.5821 20.6799C98.4637 20.6563 98.3694 20.609 98.322 20.5854C98.2985 20.5617 98.275 20.5617 98.2511 20.5381C98.2041 20.4909 98.1802 20.4436 98.1802 20.3727C98.1802 20.3255 98.2041 20.2782 98.2276 20.2074C98.2276 20.1837 98.2511 20.1601 98.2985 20.1129C98.3929 20.0184 98.5112 19.9947 98.6529 19.9947C98.7947 19.9947 98.9365 20.042 99.0309 20.1601C99.0783 20.2074 99.0783 20.231 99.1017 20.231L99.1252 20.2546L99.4797 20.0656L99.4562 20.042C99.4327 20.0184 99.4327 19.9947 99.4088 19.9711C99.3853 19.9475 99.3618 19.9002 99.3144 19.853C99.267 19.8057 99.2435 19.7821 99.2201 19.7821C99.1726 19.7585 99.1492 19.7349 99.1017 19.7112C98.96 19.6404 98.8421 19.6167 98.7004 19.6167H98.6764C98.5821 19.6167 98.4877 19.6404 98.3929 19.664C98.3459 19.6876 98.275 19.7112 98.2511 19.7349C98.2041 19.7585 98.1802 19.7821 98.1333 19.8294C98.0858 19.853 98.0624 19.9002 98.0149 19.9475C97.8971 20.0892 97.8497 20.2546 97.8497 20.42C97.8497 20.6799 97.968 20.8689 98.2276 21.0106C98.3459 21.0579 98.5112 21.1288 98.7713 21.176C98.8656 21.1996 98.913 21.1996 98.96 21.2233C98.9839 21.2233 99.0074 21.2469 99.0309 21.2705C99.1257 21.3414 99.1726 21.4123 99.1726 21.5304C99.1726 21.6013 99.1492 21.6721 99.1252 21.7194C99.1017 21.743 99.0783 21.7666 99.0548 21.7903C99.0309 21.8139 99.0074 21.8375 98.9839 21.8375C98.8891 21.8848 98.7947 21.9084 98.7004 21.9084H98.6764C98.5821 21.9084 98.4877 21.8848 98.3929 21.8375C98.3694 21.8139 98.322 21.7903 98.2985 21.7666C98.275 21.743 98.2511 21.7194 98.2276 21.6958C98.2041 21.6485 98.1802 21.6013 98.1567 21.5776L98.1333 21.554L97.7788 21.7194V21.743C97.7788 21.743 97.7788 21.7666 97.8262 21.8139C97.8497 21.8611 97.8732 21.8848 97.9206 21.9556C97.9441 21.9793 97.968 22.0265 98.0149 22.0738C98.0389 22.0974 98.0858 22.121 98.1098 22.1446C98.275 22.2628 98.4637 22.3337 98.6764 22.3337C98.8182 22.3337 98.9365 22.31 99.0548 22.2628C99.1017 22.2391 99.1492 22.2155 99.1726 22.1919C99.2201 22.1683 99.2435 22.1446 99.3144 22.0738C99.3618 22.0265 99.3853 22.0029 99.4088 21.9793C99.5036 21.8375 99.5506 21.6958 99.5506 21.5304C99.5506 21.365 99.5036 21.2233 99.4088 21.1051C99.3144 21.0106 99.267 20.9634 99.2201 20.9161Z" fill="white"/>
<path d="M101.913 19.6404C101.653 19.6404 101.417 19.7113 101.181 19.8766L101.063 19.9712C100.779 20.2547 100.661 20.5618 100.661 20.9398C100.661 21.1997 100.732 21.4359 100.85 21.6486C100.873 21.7194 100.944 21.7903 101.063 21.9084C101.323 22.1211 101.582 22.2392 101.913 22.2392C102.22 22.2392 102.504 22.1211 102.763 21.9084C103.024 21.6249 103.165 21.3178 103.165 20.9398C103.165 20.609 103.047 20.3019 102.811 20.042C102.551 19.7821 102.244 19.6404 101.913 19.6404ZM101.913 21.8612C101.701 21.8612 101.511 21.7903 101.346 21.6486C101.134 21.4595 101.039 21.2233 101.039 20.9634C101.039 20.7508 101.11 20.5618 101.228 20.3964C101.417 20.1838 101.63 20.0656 101.889 20.0656C102.126 20.0656 102.315 20.1602 102.504 20.3492C102.669 20.5382 102.74 20.7508 102.74 20.9634V20.987C102.74 21.176 102.669 21.365 102.575 21.5304C102.41 21.7194 102.173 21.8612 101.913 21.8612Z" fill="white"/>
<path d="M105.977 21.8612H104.89V19.664L104.866 19.6404H104.512L104.488 19.664V22.2156V22.2392H104.512H105.953H105.977H106V21.8848V21.8612H105.977Z" fill="white"/>
<path d="M109.213 19.6404H108.883H108.859L108.835 19.664V21.2705C108.835 21.3886 108.812 21.5068 108.765 21.6013C108.67 21.7666 108.528 21.8612 108.339 21.8612H108.08C108.032 21.8612 107.985 21.8611 107.938 21.8375C107.82 21.7903 107.725 21.7194 107.654 21.6249C107.583 21.5304 107.56 21.4123 107.56 21.2233V19.664V19.6404L107.536 19.6167H107.206H107.182L107.158 19.6404V21.2705C107.158 21.4359 107.206 21.6013 107.276 21.7667C107.323 21.8375 107.371 21.9084 107.442 21.9793C107.607 22.1447 107.82 22.2155 108.103 22.2155H108.268C108.481 22.2155 108.646 22.1683 108.788 22.0738C108.954 21.9557 109.072 21.8139 109.142 21.6013C109.19 21.5068 109.19 21.365 109.19 21.1524V19.664L109.213 19.6404Z" fill="white"/>
<path d="M112.167 19.6404H110.466H110.442L110.418 19.664V19.9948V20.0184L110.442 20.042H111.103V22.2156V22.2392H111.127H111.482H111.505V20.042H112.143H112.167L112.19 20.0184V19.664H112.167V19.6404Z" fill="white"/>
<path d="M113.75 19.6404H113.395L113.371 19.664V22.2156V22.2392H113.395H113.726H113.75H113.773V19.664L113.75 19.6404Z" fill="white"/>
<path d="M116.372 19.6404C116.112 19.6404 115.876 19.7113 115.64 19.8766L115.521 19.9712C115.238 20.2547 115.12 20.5618 115.12 20.9398C115.12 21.1997 115.191 21.4359 115.309 21.6486C115.333 21.7194 115.404 21.7903 115.521 21.9084C115.782 22.1211 116.041 22.2392 116.372 22.2392C116.679 22.2392 116.963 22.1211 117.223 21.9084C117.482 21.6249 117.624 21.3178 117.624 20.9398C117.624 20.609 117.506 20.3019 117.27 20.042C117.01 19.7821 116.703 19.6404 116.372 19.6404ZM116.372 21.8612C116.159 21.8612 115.97 21.7903 115.805 21.6486C115.592 21.4595 115.498 21.2233 115.498 20.9634C115.498 20.7508 115.569 20.5618 115.687 20.3964C115.876 20.1838 116.089 20.0656 116.349 20.0656C116.585 20.0656 116.774 20.1602 116.963 20.3492C117.128 20.5382 117.199 20.7508 117.199 20.9634V20.987C117.199 21.176 117.128 21.365 117.034 21.5304C116.868 21.7194 116.632 21.8612 116.372 21.8612Z" fill="white"/>
<path d="M121.026 19.6404H120.672H120.649L120.625 19.664V21.554L119.349 19.6404V19.6167H118.971H118.947L118.924 19.6404V22.1919V22.2155L118.947 22.2392H119.278H119.302L119.325 22.2155V20.3255L119.916 21.1996C120.318 21.8139 120.554 22.1447 120.601 22.2392V22.2628H120.979H121.003L121.026 22.2392V19.664V19.6404Z" fill="white"/>
<path d="M123.956 21.0579C123.932 21.0106 123.885 20.987 123.838 20.9398C123.791 20.8925 123.744 20.8689 123.696 20.8453C123.649 20.8216 123.578 20.798 123.507 20.7744C123.389 20.7507 123.271 20.7271 123.2 20.7035C123.082 20.6799 122.987 20.6326 122.94 20.609C122.916 20.5854 122.893 20.5854 122.869 20.5618C122.822 20.5145 122.798 20.4672 122.798 20.3964V20.3727C122.798 20.3255 122.822 20.2782 122.846 20.2074C122.846 20.1837 122.869 20.1601 122.916 20.1129C123.011 20.0184 123.129 19.9947 123.271 19.9947C123.413 19.9947 123.554 20.042 123.649 20.1601C123.696 20.2074 123.696 20.231 123.72 20.231L123.744 20.2546L124.098 20.0656L124.074 20.042C124.051 20.0184 124.051 19.9947 124.027 19.9711C124.003 19.9475 123.98 19.9002 123.932 19.853C123.885 19.8057 123.861 19.7821 123.838 19.7821C123.791 19.7585 123.767 19.7349 123.72 19.7112C123.578 19.6404 123.46 19.6167 123.318 19.6167H123.294C123.2 19.6167 123.106 19.6404 123.011 19.664C122.964 19.6876 122.893 19.7112 122.869 19.7349C122.822 19.7585 122.798 19.7821 122.751 19.8294C122.704 19.853 122.68 19.9002 122.633 19.9475C122.515 20.0892 122.468 20.2546 122.468 20.42C122.468 20.6799 122.586 20.8689 122.846 21.0106C122.964 21.0579 123.129 21.1288 123.389 21.176C123.484 21.1996 123.531 21.1996 123.578 21.2233C123.602 21.2233 123.625 21.2469 123.649 21.2705C123.744 21.3414 123.791 21.4123 123.791 21.5304C123.791 21.6013 123.767 21.6721 123.744 21.7194C123.72 21.743 123.696 21.7666 123.673 21.7903C123.649 21.8139 123.625 21.8375 123.602 21.8375C123.507 21.8848 123.413 21.9084 123.318 21.9084H123.294C123.2 21.9084 123.106 21.8848 123.011 21.8375C122.987 21.8139 122.94 21.7903 122.916 21.7666C122.893 21.743 122.869 21.7194 122.846 21.6958C122.822 21.6485 122.798 21.6013 122.775 21.5776L122.751 21.554L122.397 21.7194V21.743C122.397 21.743 122.397 21.7666 122.444 21.8139C122.468 21.8611 122.491 21.8848 122.539 21.9556C122.562 21.9793 122.586 22.0265 122.633 22.0738C122.657 22.0974 122.704 22.121 122.728 22.1446C122.893 22.2628 123.082 22.3337 123.294 22.3337C123.436 22.3337 123.554 22.31 123.673 22.2628C123.72 22.2391 123.767 22.2155 123.791 22.1919C123.838 22.1683 123.861 22.1446 123.932 22.0738C123.98 22.0265 124.003 22.0029 124.027 21.9793C124.122 21.8375 124.168 21.6958 124.168 21.5304C124.098 21.3178 124.051 21.176 123.956 21.0579Z" fill="white"/>
</g>
<defs>
<clipPath id="clip0_1915_516">
<rect width="124.667" height="26.4" fill="white"/>
</clipPath>
</defs>
</svg>
