<svg width="138" height="39" viewBox="0 0 138 39" fill="none" xmlns="http://www.w3.org/2000/svg">
<g clip-path="url(#clip0_786_4809)">
<path d="M24.8068 29.0116L24.0507 29.4368L23.2947 29.0116C19.5855 26.8616 16.6795 23.4595 15.1438 19.4667C14.4823 17.742 14.0807 15.9464 13.9389 14.1037C13.0175 13.6784 12.167 13.324 11.4346 13.0878C11.5055 15.4739 12.0016 17.8129 12.8521 20.0574C14.6241 24.6407 17.9553 28.539 22.2316 31.0197L24.0507 32.0592L25.8699 31.0197C27.8073 29.9093 29.532 28.4918 31.0204 26.8616C30.5951 26.3654 30.0754 25.8221 29.4611 25.1841C28.138 26.6962 26.5551 27.9956 24.8068 29.0116ZM36.7142 11.8828L36.6197 9.89826L34.895 8.90598C31.6346 7.01591 27.8782 6 24.0507 6C20.6487 6 17.2701 6.80328 14.2461 8.33896C15.1911 8.76422 16.207 9.28399 17.2701 9.87463C19.4201 9.04773 21.7354 8.59884 24.0744 8.59884C27.4056 8.59884 30.666 9.47299 33.5247 11.1268L34.2335 11.5285L34.2807 12.3554C34.2807 12.4262 34.2807 12.5207 34.2807 12.5916C34.2807 14.9542 33.8555 17.2459 33.0049 19.4195C32.7923 19.9865 32.5324 20.5299 32.2725 21.0733C32.8868 21.6403 33.4538 22.2073 33.9736 22.7743C34.4697 21.9002 34.9186 20.9788 35.273 20.0101C36.2417 17.5058 36.7378 14.8833 36.7378 12.1664C36.7142 12.1191 36.7142 12.001 36.7142 11.8828Z" fill="white"/>
<path d="M30.0753 21.0024C30.3824 20.4354 30.6659 19.8447 30.9022 19.2541C31.5401 17.6003 31.8708 15.852 31.8708 14.08C31.8708 14.0091 31.8708 13.9619 31.8708 13.891L31.8472 13.2767L31.3038 12.9696C29.1303 11.7174 26.6495 11.0559 24.1216 11.0559C22.2079 11.0559 20.3178 11.4339 18.5695 12.1663C15.0256 9.89827 11.3873 8.17358 8.64667 8.17358C7.04012 8.17358 6.02421 9.11862 6.00058 10.6543C5.95333 13.4894 8.78843 17.8602 10.4422 19.9865C9.63896 18.8997 8.69392 16.6789 8.50492 16.1119C8.29229 15.4976 8.10328 14.8597 7.98515 14.1982C7.46539 11.3394 8.26866 10.8197 10.3005 11.1741C11.9543 11.4576 14.1042 12.4026 16.4196 13.7256V13.9146C16.4196 13.9855 16.4196 14.0328 16.4196 14.1036C16.4196 15.8992 16.7503 17.6239 17.3882 19.2777C18.5223 22.3018 20.7431 24.8534 23.5546 26.5072L24.1216 26.838L24.6886 26.5072C26.3188 25.5622 27.7363 24.31 28.8704 22.8452C34.446 27.9011 37.1394 32.1774 30.2879 29.9093C33.2648 31.4923 34.5642 31.6813 35.4856 31.9175C39.4311 32.9807 37.8009 28.0901 30.0753 21.0024ZM24.854 18.0492L25.421 20.6952H22.8458L23.0821 19.5376C23.1057 19.4667 23.3183 18.4036 23.5073 17.4585C23.1057 17.2459 22.8222 16.8206 22.8222 16.3245C22.8222 15.6157 23.3892 15.0251 24.1216 15.0251C24.8303 15.0251 25.421 15.5921 25.421 16.3245C25.421 16.8206 25.1375 17.2459 24.7358 17.4585L24.854 18.0492Z" fill="white"/>
<path d="M45.8009 9.7439V23.1634H42.446V9.7439H45.8009Z" fill="white"/>
<path d="M116.277 9.77637L114.789 12.706H105.409V9.77637H116.277Z" fill="white"/>
<path d="M114.812 14.9268H105.409V17.8091H114.812V14.9268Z" fill="white"/>
<path d="M51.4712 15.2811V23.1721H48.1399V9.79994L48.1163 9.77631H48.1399V9.75269H51.4712V9.77631L56.8577 17.5728V9.77631H60.2364V23.1012L60.2838 23.1721H56.8577V23.054L51.4712 15.2811Z" fill="white"/>
<path d="M73.3958 9.77637L71.9311 12.6351H62.5278V9.77637H73.3958ZM65.8591 17.7855V23.1722L62.5278 23.1486V14.9268H71.9311V17.7855H65.8591Z" fill="white"/>
<path d="M88.7053 16.4388C88.7053 18.447 88.1148 20.0535 86.9336 21.3057C85.752 22.5579 84.0985 23.1485 81.9719 23.1485C79.8457 23.1485 78.1918 22.5106 77.0106 21.2348C75.8295 19.959 75.2389 18.3525 75.2389 16.4624C75.2389 14.4542 75.8764 12.8477 77.1289 11.5955C78.381 10.3433 80.0109 9.75269 81.9719 9.75269C84.0276 9.75269 85.6576 10.367 86.8862 11.5955C88.0913 12.824 88.7053 14.4542 88.7053 16.4388ZM85.1853 16.4388C85.1853 15.3756 84.9487 14.4542 84.4764 13.6982C84.0037 12.9422 83.2244 12.5878 82.1376 12.5878C80.9799 12.5878 80.1292 12.9658 79.6096 13.7218C79.0659 14.4778 78.8063 15.3756 78.8063 16.4388C78.8063 17.3129 79.0659 18.1871 79.6096 19.0377C80.1292 19.8882 80.9799 20.3134 82.1376 20.3134C83.2244 20.3134 84.0037 19.9354 84.4764 19.1794C84.9487 18.4234 85.1853 17.502 85.1853 16.4388Z" fill="white"/>
<path d="M99.5024 14.9976C101.865 15.3992 103.046 16.6278 103.07 18.6833V19.0613C103.046 21.5183 101.865 22.8886 99.5259 23.1721H90.9972L92.3202 20.2662H98.6757C99.3606 20.1481 99.7151 19.7228 99.7151 18.9668C99.7151 18.3052 99.3372 17.9272 98.6048 17.8091H94.5412C92.1784 17.4074 90.9972 16.1789 90.9738 14.1234V13.7454C90.9972 11.3829 92.1784 10.0598 94.5172 9.75269H103.046L101.699 12.635H95.297C94.6355 12.7295 94.3046 13.1548 94.3285 13.8636C94.3285 14.5251 94.7064 14.8795 95.4388 14.974H99.5024V14.9976Z" fill="white"/>
<path d="M116.277 23.1486L114.789 20.2427H105.409V23.1486H116.277Z" fill="white"/>
<path d="M128.893 20.2661H127.594L127.57 20.2425H124.191C122.537 20.2425 121.687 18.9667 121.663 16.4151C121.711 13.9108 122.656 12.6586 124.522 12.635H128.893L130.239 9.729H124.191C120.175 10.1779 118.143 12.4223 118.143 16.4387C118.143 20.4551 119.986 22.6996 123.648 23.1485H130.239L128.893 20.2661Z" fill="white"/>
<path d="M42.8241 25.6313H42.4933H42.4697L42.446 25.655V28.2066L42.4697 28.2302H42.8241H42.8477V25.655L42.8241 25.6313Z" fill="white"/>
<path d="M46.3917 25.6404H46.0609H46.0373L46.0137 25.664V27.554L44.7379 25.6404V25.6167H44.3599H44.3362L44.3126 25.6404V28.1919V28.2155L44.3362 28.2392H44.667H44.6906L44.7142 28.2155V26.3255L45.3049 27.1996C45.7065 27.7903 45.9428 28.1447 45.99 28.2392V28.2628H46.3681H46.3917L46.4153 28.2392V25.664L46.3917 25.6404Z" fill="white"/>
<path d="M49.2975 25.6404H47.9272H47.9036L47.88 25.664V28.2156V28.2392H47.9036H48.258H48.2816V27.1524H49.1321V26.7508H48.2816V26.042H49.2739H49.2975L49.3212 26.0184V25.664L49.2975 25.6404Z" fill="white"/>
<path d="M51.7073 25.6404C51.4474 25.6404 51.2112 25.7113 50.9749 25.8766L50.8568 25.9712C50.5733 26.2547 50.4552 26.5618 50.4552 26.9398C50.4552 27.1997 50.526 27.4359 50.6442 27.6486C50.6678 27.7194 50.7387 27.7903 50.8568 27.9084C51.1167 28.1211 51.3766 28.2392 51.7073 28.2392C52.0145 28.2392 52.298 28.1211 52.5579 27.9084C52.8178 27.6249 52.9595 27.3178 52.9595 26.9398C52.9595 26.609 52.8414 26.3019 52.6051 26.042C52.3452 25.7821 52.0381 25.6404 51.7073 25.6404ZM51.7073 27.8612C51.4947 27.8612 51.3057 27.7903 51.1403 27.6486C50.9277 27.4595 50.8332 27.2233 50.8332 26.9634C50.8332 26.7508 50.9041 26.5618 51.0222 26.3964C51.2112 26.1838 51.4238 26.0656 51.6837 26.0656C51.92 26.0656 52.109 26.1602 52.298 26.3492C52.4634 26.5382 52.5342 26.7508 52.5342 26.9634V26.987C52.5342 27.176 52.4634 27.365 52.3689 27.5304C52.2035 27.7194 51.9672 27.8612 51.7073 27.8612Z" fill="white"/>
<path d="M56.0784 26.5145C56.0784 26.3019 56.0075 26.1365 55.8657 25.9475C55.6765 25.7349 55.4404 25.6404 55.1568 25.6404H54.3062H54.2826L54.2589 25.664V28.2156V28.2392L54.2826 28.2628H54.6133H54.6369L54.6606 28.2392V27.3887H55.0859C55.1328 27.4595 55.2512 27.6958 55.4638 28.0738C55.5582 28.2628 55.5582 28.2628 55.5821 28.2628H55.9835H56.0075L56.0309 28.2392L55.8183 27.8848C55.6056 27.5304 55.5347 27.3887 55.4873 27.3178C55.5582 27.2942 55.653 27.2469 55.7474 27.1524C55.96 26.9634 56.0784 26.7508 56.0784 26.5145ZM54.6606 26.042H55.0859C55.2512 26.042 55.3695 26.0656 55.4404 26.1365C55.5821 26.231 55.653 26.3728 55.653 26.5145V26.5382C55.653 26.6327 55.6291 26.7272 55.5582 26.798C55.4404 26.9398 55.2986 26.987 55.1568 26.987H54.6606V26.042Z" fill="white"/>
<path d="M60.0236 25.6404H59.5748L58.6768 27.6486L58.228 26.6563C57.7792 25.664 57.7792 25.6404 57.7792 25.6404H57.3538H57.3304L57.3064 25.664V28.2156V28.2392L57.3304 28.2628H57.6848H57.7083L57.7317 28.2392V26.5145L58.4641 28.1447C58.5115 28.2628 58.5115 28.2628 58.535 28.2628H58.842L59.6218 26.5145V28.2392V28.2628L59.6457 28.2864H59.9997H60.0236L60.0471 28.2628V25.664L60.0236 25.6404Z" fill="white"/>
<path d="M62.67 25.6404H62.3391L61.2997 28.2156V28.2628H61.7011L61.9137 27.7194H63.0954L63.2606 28.1211C63.3075 28.2392 63.3075 28.2628 63.3315 28.2628H63.6859L63.7329 28.2392L62.8353 26.042C62.6935 25.6404 62.6935 25.6404 62.67 25.6404ZM62.9296 27.2942H62.0795L62.3391 26.6563C62.4334 26.42 62.4808 26.3019 62.5043 26.2547L62.9296 27.2942Z" fill="white"/>
<path d="M66.4027 25.6404H64.7018H64.6779L64.6544 25.664V25.9948V26.0184L64.6779 26.042H65.3398V28.2156V28.2392H65.3633H65.7178H65.7412V26.042H66.3792H66.4027L66.4262 26.0184V25.664L66.4027 25.6404Z" fill="white"/>
<path d="M67.9857 25.6404H67.6313L67.6078 25.664V28.2156V28.2392H67.6313H67.9622H67.9857H68.0092V25.664L67.9857 25.6404Z" fill="white"/>
<path d="M70.6081 25.6404C70.348 25.6404 70.1119 25.7113 69.8758 25.8766L69.7575 25.9712C69.4739 26.2547 69.3561 26.5618 69.3561 26.9398C69.3561 27.1997 69.427 27.4359 69.5448 27.6486C69.5687 27.7194 69.6396 27.7903 69.7575 27.9084C70.0175 28.1211 70.2776 28.2392 70.6081 28.2392C70.9151 28.2392 71.1987 28.1211 71.4588 27.9084C71.7184 27.6249 71.8602 27.3178 71.8602 26.9398C71.8602 26.609 71.7423 26.3019 71.5057 26.042C71.2461 25.7821 70.9391 25.6404 70.6081 25.6404ZM70.6081 27.8612C70.3955 27.8612 70.2067 27.7903 70.041 27.6486C69.8283 27.4595 69.734 27.2233 69.734 26.9634C69.734 26.7508 69.8049 26.5618 69.9232 26.3964C70.1119 26.1838 70.3246 26.0656 70.5847 26.0656C70.8208 26.0656 71.01 26.1602 71.1987 26.3492C71.3639 26.5382 71.4348 26.7508 71.4348 26.9634V26.987C71.4348 27.176 71.3639 27.365 71.2696 27.5304C71.1043 27.7194 70.8682 27.8612 70.6081 27.8612Z" fill="white"/>
<path d="M75.2624 25.6404H74.9314H74.9079L74.8844 25.664V27.554L73.6084 25.6404V25.6167H73.2305H73.2071L73.1831 25.6404V28.1919V28.2155L73.2071 28.2392H73.5376H73.5615L73.585 28.2155V26.3255L74.1756 27.1996C74.5774 27.8139 74.8136 28.1447 74.861 28.2392V28.2628H75.2389H75.2624L75.2858 28.2392V25.664L75.2624 25.6404Z" fill="white"/>
<path d="M79.8932 26.9161C79.8457 26.8689 79.7983 26.8453 79.7514 26.8216C79.7039 26.798 79.6331 26.7744 79.5622 26.7508C79.4439 26.7271 79.326 26.7035 79.2551 26.6799C79.1368 26.6563 79.0425 26.609 78.9951 26.5854C78.9716 26.5617 78.9481 26.5617 78.9242 26.5381C78.8772 26.4909 78.8533 26.4436 78.8533 26.3727C78.8533 26.3255 78.8772 26.2782 78.9007 26.2074C78.9007 26.1837 78.9242 26.1601 78.9716 26.1129C79.0659 26.0184 79.1843 25.9947 79.326 25.9947C79.4678 25.9947 79.6096 26.042 79.7039 26.1601C79.7514 26.2074 79.7514 26.231 79.7748 26.231L79.7983 26.2546L80.1528 26.0656L80.1293 26.042C80.1058 26.0184 80.1058 25.9947 80.0819 25.9711C80.0584 25.9475 80.0349 25.9002 79.9875 25.853C79.9401 25.8057 79.9166 25.7821 79.8932 25.7821C79.8457 25.7585 79.8223 25.7349 79.7748 25.7112C79.6331 25.6404 79.5147 25.6167 79.373 25.6167H79.3495C79.2552 25.6167 79.1608 25.6404 79.0659 25.664C79.019 25.6876 78.9481 25.7112 78.9242 25.7349C78.8772 25.7585 78.8533 25.7821 78.8063 25.8294C78.7589 25.853 78.7355 25.9002 78.688 25.9475C78.5697 26.0892 78.5228 26.2546 78.5228 26.42C78.5228 26.6799 78.6406 26.8689 78.9007 27.0106C79.019 27.0579 79.1843 27.1288 79.4439 27.176C79.5387 27.1996 79.5856 27.1996 79.6331 27.2233C79.6565 27.2233 79.6805 27.2469 79.7039 27.2705C79.7983 27.3414 79.8457 27.4123 79.8457 27.5304C79.8457 27.6013 79.8223 27.6721 79.7983 27.7194C79.7748 27.743 79.7514 27.7666 79.7274 27.7903C79.704 27.8139 79.6805 27.8375 79.6565 27.8375C79.5622 27.8848 79.4678 27.9084 79.373 27.9084H79.3495C79.2552 27.9084 79.1608 27.8848 79.0659 27.8375C79.0425 27.8139 78.9951 27.7903 78.9716 27.7666C78.9481 27.743 78.9242 27.7194 78.9007 27.6958C78.8772 27.6485 78.8533 27.6013 78.8298 27.5776L78.8063 27.554L78.4519 27.7194V27.743C78.4519 27.743 78.4519 27.7666 78.4988 27.8139C78.5228 27.8611 78.5463 27.8848 78.5937 27.9556C78.6171 27.9793 78.6406 28.0265 78.688 28.0738C78.7115 28.0974 78.7589 28.121 78.7824 28.1446C78.9481 28.2628 79.1368 28.3337 79.3495 28.3337C79.4913 28.3337 79.6096 28.31 79.7274 28.2628C79.7748 28.2391 79.8223 28.2155 79.8457 28.1919C79.8932 28.1683 79.9166 28.1446 79.9875 28.0738C80.0349 28.0265 80.0584 28.0029 80.0819 27.9793C80.1767 27.8375 80.2236 27.6958 80.2236 27.5304C80.2236 27.365 80.1767 27.2233 80.0819 27.1051C79.964 27.0106 79.9401 26.9634 79.8932 26.9161Z" fill="white"/>
<path d="M82.846 25.6404H81.4756H81.4521V25.664V28.2156V28.2392H81.4756H82.846H82.8699V27.8612H81.8301V27.1524H82.6333L82.6573 27.1288V26.7744V26.7508H81.8301V26.042H82.8699V25.664L82.846 25.6404Z" fill="white"/>
<path d="M85.3272 26.042C85.5393 26.042 85.752 26.1365 85.9177 26.3019C85.9886 26.3727 86.0356 26.4436 86.0595 26.4909L86.083 26.5145L86.1064 26.4909C86.39 26.3491 86.39 26.3255 86.4135 26.3255L86.4374 26.3019V26.2782C86.39 26.2074 86.3426 26.1129 86.2482 26.0184C85.9886 25.7585 85.7051 25.6167 85.3741 25.6167C85.0436 25.6167 84.7361 25.7585 84.4765 26.042C84.2638 26.3019 84.1455 26.609 84.1455 26.9161C84.1455 27.2469 84.2638 27.5304 84.4765 27.7903C84.7361 28.0738 85.0436 28.2155 85.3976 28.2155C85.752 28.2155 86.0595 28.0738 86.3191 27.7903C86.39 27.7194 86.4374 27.6249 86.4844 27.554V27.5068L86.1539 27.3178L86.1304 27.3414C86.1064 27.3886 86.0595 27.4595 85.9647 27.554C85.7994 27.7194 85.6102 27.7903 85.4215 27.7903H85.3272C85.138 27.7903 84.9727 27.7194 84.8309 27.6013C84.6183 27.4123 84.4999 27.176 84.4999 26.8925C84.4999 26.6563 84.5943 26.4436 84.76 26.2546C84.9253 26.1129 85.1145 26.042 85.3272 26.042Z" fill="white"/>
<path d="M89.7213 25.6404H89.3908H89.3668L89.3434 25.664V27.2705C89.3434 27.3886 89.3199 27.5068 89.2725 27.6013C89.1781 27.7667 89.0363 27.8612 88.8471 27.8612H88.5875C88.5401 27.8612 88.4927 27.8612 88.4458 27.8375C88.3275 27.7903 88.2331 27.7194 88.1622 27.6249C88.0913 27.5304 88.0674 27.4123 88.0674 27.2233V25.664V25.6404L88.0439 25.6167H87.7134H87.6895V25.664V27.2941C87.6895 27.4595 87.7369 27.6249 87.8078 27.7903C87.8552 27.8612 87.9021 27.932 87.973 28.0029C88.1383 28.1683 88.3509 28.2392 88.6345 28.2392H88.8002C89.0129 28.2392 89.1781 28.1919 89.3199 28.0974C89.4851 27.9793 89.6034 27.8375 89.6743 27.6249C89.7213 27.5304 89.7213 27.3886 89.7213 27.176V25.664V25.6404Z" fill="white"/>
<path d="M93.0051 26.5145C93.0051 26.3019 92.9342 26.1365 92.7924 25.9475C92.6037 25.7349 92.3671 25.6404 92.0835 25.6404H91.2333H91.2094L91.1859 25.664V28.2156V28.2392L91.2094 28.2628H91.5404H91.5638L91.5878 28.2392V27.3887H92.0126C92.06 27.4595 92.1784 27.6722 92.391 28.0738C92.4854 28.2628 92.4854 28.2628 92.5088 28.2628H92.9107H92.9342L92.9576 28.2392L92.7455 27.8848C92.5328 27.5304 92.4619 27.3887 92.4145 27.3178C92.4854 27.2942 92.5797 27.2469 92.6746 27.1524C92.9107 26.9634 93.0051 26.7508 93.0051 26.5145ZM91.6112 26.042H92.0366C92.2018 26.042 92.3201 26.0656 92.391 26.1365C92.5328 26.231 92.6037 26.3728 92.6037 26.5145V26.5382C92.6037 26.6327 92.5797 26.7272 92.5088 26.798C92.391 26.9398 92.2492 26.987 92.1075 26.987H91.6112V26.042Z" fill="white"/>
<path d="M94.6356 25.6404H94.2812H94.2577V25.664V28.2156V28.2392H94.2812H94.6121H94.6356V25.664V25.6404Z" fill="white"/>
<path d="M97.5649 25.6404H95.864L95.8406 25.664V25.9948V26.0184L95.864 26.042H96.5255V28.2156V28.2392H96.88H96.9034V26.042H97.5649L97.5888 26.0184V25.664L97.5649 25.6404Z" fill="white"/>
<path d="M100.377 25.6404C100.353 25.6876 99.9987 26.1601 99.6911 26.5854L99.3606 26.1129C99.0771 25.6876 99.0062 25.6404 99.0062 25.6167H98.5574H98.5334V25.664L99.3841 26.8216C99.455 26.9398 99.4785 26.9634 99.5024 26.9634V28.1683V28.1919L99.5259 28.2155H99.8803H99.9038L99.9278 28.1919V26.9634L100.873 25.664V25.6167L100.377 25.6404Z" fill="white"/>
<path d="M105.22 26.9161C105.173 26.8689 105.126 26.8453 105.078 26.8216C105.031 26.798 104.96 26.7744 104.889 26.7508C104.771 26.7271 104.653 26.7035 104.582 26.6799C104.464 26.6563 104.369 26.609 104.322 26.5854C104.299 26.5617 104.275 26.5617 104.251 26.5381C104.204 26.4909 104.18 26.4436 104.18 26.3727C104.18 26.3255 104.204 26.2782 104.228 26.2074C104.228 26.1837 104.251 26.1601 104.299 26.1129C104.393 26.0184 104.511 25.9947 104.653 25.9947C104.795 25.9947 104.937 26.042 105.031 26.1601C105.078 26.2074 105.078 26.231 105.102 26.231L105.125 26.2546L105.48 26.0656L105.456 26.042C105.433 26.0184 105.433 25.9947 105.409 25.9711C105.385 25.9475 105.362 25.9002 105.314 25.853C105.267 25.8057 105.244 25.7821 105.22 25.7821C105.173 25.7585 105.149 25.7349 105.102 25.7112C104.96 25.6404 104.842 25.6167 104.7 25.6167H104.676C104.582 25.6167 104.488 25.6404 104.393 25.664C104.346 25.6876 104.275 25.7112 104.251 25.7349C104.204 25.7585 104.18 25.7821 104.133 25.8294C104.086 25.853 104.062 25.9002 104.015 25.9475C103.897 26.0892 103.85 26.2546 103.85 26.42C103.85 26.6799 103.968 26.8689 104.228 27.0106C104.346 27.0579 104.511 27.1288 104.771 27.176C104.866 27.1996 104.913 27.1996 104.96 27.2233C104.984 27.2233 105.007 27.2469 105.031 27.2705C105.126 27.3414 105.173 27.4123 105.173 27.5304C105.173 27.6013 105.149 27.6721 105.125 27.7194C105.102 27.743 105.078 27.7666 105.055 27.7903C105.031 27.8139 105.007 27.8375 104.984 27.8375C104.889 27.8848 104.795 27.9084 104.7 27.9084H104.676C104.582 27.9084 104.488 27.8848 104.393 27.8375C104.369 27.8139 104.322 27.7903 104.299 27.7666C104.275 27.743 104.251 27.7194 104.228 27.6958C104.204 27.6485 104.18 27.6013 104.157 27.5776L104.133 27.554L103.779 27.7194V27.743C103.779 27.743 103.779 27.7666 103.826 27.8139C103.85 27.8611 103.873 27.8848 103.921 27.9556C103.944 27.9793 103.968 28.0265 104.015 28.0738C104.039 28.0974 104.086 28.121 104.11 28.1446C104.275 28.2628 104.464 28.3337 104.676 28.3337C104.818 28.3337 104.937 28.31 105.055 28.2628C105.102 28.2391 105.149 28.2155 105.173 28.1919C105.22 28.1683 105.244 28.1446 105.314 28.0738C105.362 28.0265 105.385 28.0029 105.409 27.9793C105.504 27.8375 105.551 27.6958 105.551 27.5304C105.551 27.365 105.504 27.2233 105.409 27.1051C105.314 27.0106 105.267 26.9634 105.22 26.9161Z" fill="white"/>
<path d="M107.913 25.6404C107.653 25.6404 107.417 25.7113 107.181 25.8766L107.063 25.9712C106.779 26.2547 106.661 26.5618 106.661 26.9398C106.661 27.1997 106.732 27.4359 106.85 27.6486C106.873 27.7194 106.944 27.7903 107.063 27.9084C107.323 28.1211 107.582 28.2392 107.913 28.2392C108.22 28.2392 108.504 28.1211 108.763 27.9084C109.024 27.6249 109.165 27.3178 109.165 26.9398C109.165 26.609 109.047 26.3019 108.811 26.042C108.551 25.7821 108.244 25.6404 107.913 25.6404ZM107.913 27.8612C107.701 27.8612 107.511 27.7903 107.346 27.6486C107.134 27.4595 107.039 27.2233 107.039 26.9634C107.039 26.7508 107.11 26.5618 107.228 26.3964C107.417 26.1838 107.63 26.0656 107.889 26.0656C108.126 26.0656 108.315 26.1602 108.504 26.3492C108.669 26.5382 108.74 26.7508 108.74 26.9634V26.987C108.74 27.176 108.669 27.365 108.575 27.5304C108.41 27.7194 108.173 27.8612 107.913 27.8612Z" fill="white"/>
<path d="M111.977 27.8612H110.89V25.664L110.866 25.6404H110.512L110.488 25.664V28.2156V28.2392H110.512H111.953H111.977H112V27.8848V27.8612H111.977Z" fill="white"/>
<path d="M115.213 25.6404H114.883H114.859L114.835 25.664V27.2705C114.835 27.3886 114.812 27.5068 114.765 27.6013C114.67 27.7666 114.528 27.8612 114.339 27.8612H114.08C114.032 27.8612 113.985 27.8611 113.938 27.8375C113.82 27.7903 113.725 27.7194 113.654 27.6249C113.583 27.5304 113.56 27.4123 113.56 27.2233V25.664V25.6404L113.536 25.6167H113.206H113.182L113.158 25.6404V27.2705C113.158 27.4359 113.206 27.6013 113.276 27.7667C113.323 27.8375 113.371 27.9084 113.442 27.9793C113.607 28.1447 113.82 28.2155 114.103 28.2155H114.268C114.481 28.2155 114.646 28.1683 114.788 28.0738C114.954 27.9557 115.072 27.8139 115.142 27.6013C115.19 27.5068 115.19 27.365 115.19 27.1524V25.664L115.213 25.6404Z" fill="white"/>
<path d="M118.167 25.6404H116.466H116.442L116.418 25.664V25.9948V26.0184L116.442 26.042H117.103V28.2156V28.2392H117.127H117.482H117.505V26.042H118.143H118.167L118.19 26.0184V25.664H118.167V25.6404Z" fill="white"/>
<path d="M119.75 25.6404H119.395L119.371 25.664V28.2156V28.2392H119.395H119.726H119.75H119.773V25.664L119.75 25.6404Z" fill="white"/>
<path d="M122.372 25.6404C122.112 25.6404 121.876 25.7113 121.64 25.8766L121.521 25.9712C121.238 26.2547 121.12 26.5618 121.12 26.9398C121.12 27.1997 121.191 27.4359 121.309 27.6486C121.333 27.7194 121.404 27.7903 121.521 27.9084C121.782 28.1211 122.041 28.2392 122.372 28.2392C122.679 28.2392 122.963 28.1211 123.223 27.9084C123.482 27.6249 123.624 27.3178 123.624 26.9398C123.624 26.609 123.506 26.3019 123.27 26.042C123.01 25.7821 122.703 25.6404 122.372 25.6404ZM122.372 27.8612C122.159 27.8612 121.97 27.7903 121.805 27.6486C121.592 27.4595 121.498 27.2233 121.498 26.9634C121.498 26.7508 121.569 26.5618 121.687 26.3964C121.876 26.1838 122.089 26.0656 122.349 26.0656C122.585 26.0656 122.774 26.1602 122.963 26.3492C123.128 26.5382 123.199 26.7508 123.199 26.9634V26.987C123.199 27.176 123.128 27.365 123.034 27.5304C122.868 27.7194 122.632 27.8612 122.372 27.8612Z" fill="white"/>
<path d="M127.026 25.6404H126.672H126.649L126.625 25.664V27.554L125.349 25.6404V25.6167H124.971H124.947L124.924 25.6404V28.1919V28.2155L124.947 28.2392H125.278H125.302L125.325 28.2155V26.3255L125.916 27.1996C126.318 27.8139 126.554 28.1447 126.601 28.2392V28.2628H126.979H127.003L127.026 28.2392V25.664V25.6404Z" fill="white"/>
<path d="M129.956 27.0579C129.932 27.0106 129.885 26.987 129.838 26.9398C129.791 26.8925 129.744 26.8689 129.696 26.8453C129.649 26.8216 129.578 26.798 129.507 26.7744C129.389 26.7507 129.271 26.7271 129.2 26.7035C129.082 26.6799 128.987 26.6326 128.94 26.609C128.916 26.5854 128.893 26.5854 128.869 26.5618C128.822 26.5145 128.798 26.4672 128.798 26.3964V26.3727C128.798 26.3255 128.822 26.2782 128.846 26.2074C128.846 26.1837 128.869 26.1601 128.916 26.1129C129.011 26.0184 129.129 25.9947 129.271 25.9947C129.413 25.9947 129.554 26.042 129.649 26.1601C129.696 26.2074 129.696 26.231 129.72 26.231L129.744 26.2546L130.098 26.0656L130.074 26.042C130.051 26.0184 130.051 25.9947 130.027 25.9711C130.003 25.9475 129.98 25.9002 129.932 25.853C129.885 25.8057 129.861 25.7821 129.838 25.7821C129.791 25.7585 129.767 25.7349 129.72 25.7112C129.578 25.6404 129.46 25.6167 129.318 25.6167H129.294C129.2 25.6167 129.106 25.6404 129.011 25.664C128.964 25.6876 128.893 25.7112 128.869 25.7349C128.822 25.7585 128.798 25.7821 128.751 25.8294C128.704 25.853 128.68 25.9002 128.633 25.9475C128.515 26.0892 128.468 26.2546 128.468 26.42C128.468 26.6799 128.586 26.8689 128.846 27.0106C128.964 27.0579 129.129 27.1288 129.389 27.176C129.484 27.1996 129.531 27.1996 129.578 27.2233C129.602 27.2233 129.625 27.2469 129.649 27.2705C129.744 27.3414 129.791 27.4123 129.791 27.5304C129.791 27.6013 129.767 27.6721 129.744 27.7194C129.72 27.743 129.696 27.7666 129.673 27.7903C129.649 27.8139 129.625 27.8375 129.602 27.8375C129.507 27.8848 129.413 27.9084 129.318 27.9084H129.294C129.2 27.9084 129.106 27.8848 129.011 27.8375C128.987 27.8139 128.94 27.7903 128.916 27.7666C128.893 27.743 128.869 27.7194 128.846 27.6958C128.822 27.6485 128.798 27.6013 128.775 27.5776L128.751 27.554L128.397 27.7194V27.743C128.397 27.743 128.397 27.7666 128.444 27.8139C128.468 27.8611 128.491 27.8848 128.539 27.9556C128.562 27.9793 128.586 28.0265 128.633 28.0738C128.657 28.0974 128.704 28.121 128.728 28.1446C128.893 28.2628 129.082 28.3337 129.294 28.3337C129.436 28.3337 129.554 28.31 129.673 28.2628C129.72 28.2391 129.767 28.2155 129.791 28.1919C129.838 28.1683 129.861 28.1446 129.932 28.0738C129.98 28.0265 130.003 28.0029 130.027 27.9793C130.122 27.8375 130.168 27.6958 130.168 27.5304C130.098 27.3178 130.051 27.176 129.956 27.0579Z" fill="white"/>
</g>
<defs>
<clipPath id="clip0_786_4809">
<rect width="124.667" height="26.4" fill="white" transform="translate(6 6)"/>
</clipPath>
</defs>
</svg>
