<svg width="22" height="16" viewBox="0 0 22 16" fill="none" xmlns="http://www.w3.org/2000/svg">
<path d="M19.4038 3.99704C19.4178 4.17204 19.4178 4.34604 19.4178 4.52004C19.4178 9.84504 15.0552 15.981 7.08237 15.981C4.62605 15.981 2.34411 15.32 0.423828 14.172C0.772578 14.209 1.10841 14.222 1.47115 14.222C3.49799 14.222 5.36338 13.586 6.85417 12.501C4.94789 12.464 3.35053 11.304 2.79942 9.70804C3.06744 9.74504 3.33654 9.77004 3.61855 9.77004C4.00713 9.77004 4.39786 9.72004 4.7606 9.63304C2.77251 9.25904 1.28386 7.63804 1.28386 5.68004V5.63004C1.86188 5.92904 2.53247 6.11604 3.24289 6.14104C2.07501 5.41904 1.3097 4.18404 1.3097 2.78704C1.3097 2.03904 1.5239 1.35304 1.89956 0.755043C4.03404 3.19804 7.24275 4.79504 10.84 4.97004C10.7733 4.67004 10.7324 4.35904 10.7324 4.04704C10.7324 1.82704 12.6656 0.019043 15.0681 0.019043C16.3167 0.019043 17.4437 0.505043 18.2359 1.29104C19.2154 1.11604 20.154 0.779043 20.9872 0.318043C20.6653 1.25304 19.9797 2.03904 19.0809 2.53804C19.9538 2.45004 20.7999 2.22604 21.577 1.91404C20.9872 2.71204 20.2498 3.42304 19.4038 3.99704Z" fill="white"/>
</svg>
