<svg width="32" height="32" viewBox="0 0 32 32" fill="none" xmlns="http://www.w3.org/2000/svg">
<path d="M16 1C12.9014 1.00394 9.87997 1.96744 7.35106 3.75807C4.82214 5.5487 2.90984 8.07858 1.87695 11H30.1253C29.0923 8.07822 27.1797 5.54809 24.6503 3.75743C22.121 1.96677 19.0991 1.00349 16 1Z" fill="#E32D3C"/>
<path d="M1.87696 11C1.30269 12.6047 1.00613 14.2956 1 16C1.00542 17.7043 1.30124 19.3952 1.87476 21H30.1231C30.6974 19.3953 30.994 17.7044 31.0001 16C30.9947 14.2958 30.6989 12.6049 30.1253 11H1.87696Z" fill="#2B4896"/>
<path d="M1.87451 21.0001C2.90753 23.9219 4.82016 26.4521 7.34951 28.2427C9.87887 30.0334 12.9008 30.9967 15.9998 31.0002C19.0985 30.9962 22.1199 30.0327 24.6488 28.2421C27.1777 26.4515 29.09 23.9216 30.1229 21.0001H1.87451Z" fill="#F1C40F"/>
</svg>
