<svg width="584" height="454" viewBox="0 0 584 454" fill="none" xmlns="http://www.w3.org/2000/svg">
<rect x="1.11567" y="0.70625" width="64.6813" height="64.6813" stroke="white" stroke-width="0.81875"/>
<rect x="65.7968" y="0.70625" width="64.6813" height="64.6813" stroke="white" stroke-width="0.81875"/>
<rect x="130.478" y="0.70625" width="64.6813" height="64.6813" stroke="white" stroke-width="0.81875"/>
<rect x="195.159" y="0.70625" width="64.6813" height="64.6813" stroke="white" stroke-width="0.81875"/>
<rect x="259.841" y="0.70625" width="64.6813" height="64.6813" stroke="white" stroke-width="0.81875"/>
<rect x="324.522" y="0.70625" width="64.6813" height="64.6813" stroke="white" stroke-width="0.81875"/>
<rect x="389.203" y="0.70625" width="64.6813" height="64.6813" fill="white" fill-opacity="0.25" stroke="white" stroke-width="0.81875"/>
<rect x="453.884" y="0.70625" width="64.6813" height="64.6813" stroke="white" stroke-width="0.81875"/>
<rect x="518.566" y="0.70625" width="64.6813" height="64.6813" stroke="white" stroke-width="0.81875"/>
<rect x="1.11567" y="65.3875" width="64.6813" height="64.6813" stroke="white" stroke-width="0.81875"/>
<rect x="65.7968" y="65.3875" width="64.6813" height="64.6813" stroke="white" stroke-width="0.81875"/>
<rect x="130.478" y="65.3875" width="64.6813" height="64.6813" stroke="white" stroke-width="0.81875"/>
<rect x="195.159" y="65.3875" width="64.6813" height="64.6813" stroke="white" stroke-width="0.81875"/>
<rect x="259.841" y="65.3875" width="64.6813" height="64.6813" stroke="white" stroke-width="0.81875"/>
<rect x="324.522" y="65.3875" width="64.6813" height="64.6813" stroke="white" stroke-width="0.81875"/>
<rect x="389.203" y="65.3875" width="64.6813" height="64.6813" stroke="white" stroke-width="0.81875"/>
<rect x="453.884" y="65.3875" width="64.6813" height="64.6813" stroke="white" stroke-width="0.81875"/>
<rect x="518.566" y="65.3875" width="64.6813" height="64.6813" stroke="white" stroke-width="0.81875"/>
<rect x="1.11567" y="130.069" width="64.6813" height="64.6813" stroke="white" stroke-width="0.81875"/>
<rect x="65.7968" y="130.069" width="64.6813" height="64.6813" stroke="white" stroke-width="0.81875"/>
<rect x="130.478" y="130.069" width="64.6813" height="64.6813" stroke="white" stroke-width="0.81875"/>
<rect x="195.159" y="130.069" width="64.6813" height="64.6813" stroke="white" stroke-width="0.81875"/>
<rect x="259.841" y="130.069" width="64.6813" height="64.6813" fill="white" fill-opacity="0.25" stroke="white" stroke-width="0.81875"/>
<rect x="324.522" y="130.069" width="64.6813" height="64.6813" stroke="white" stroke-width="0.81875"/>
<rect x="389.203" y="130.069" width="64.6813" height="64.6813" fill="white" fill-opacity="0.25" stroke="white" stroke-width="0.81875"/>
<rect x="453.884" y="130.069" width="64.6813" height="64.6813" stroke="white" stroke-width="0.81875"/>
<rect x="518.566" y="130.069" width="64.6813" height="64.6813" stroke="white" stroke-width="0.81875"/>
<rect x="1.11567" y="194.75" width="64.6813" height="64.6813" stroke="white" stroke-width="0.81875"/>
<rect x="65.7968" y="194.75" width="64.6813" height="64.6813" stroke="white" stroke-width="0.81875"/>
<rect x="130.478" y="194.75" width="64.6813" height="64.6813" stroke="white" stroke-width="0.81875"/>
<rect x="195.159" y="194.75" width="64.6813" height="64.6813" stroke="white" stroke-width="0.81875"/>
<rect x="259.841" y="194.75" width="64.6813" height="64.6813" stroke="white" stroke-width="0.81875"/>
<rect x="324.522" y="194.75" width="64.6813" height="64.6813" stroke="white" stroke-width="0.81875"/>
<rect x="389.203" y="194.75" width="64.6813" height="64.6813" stroke="white" stroke-width="0.81875"/>
<rect x="453.884" y="194.75" width="64.6813" height="64.6813" stroke="white" stroke-width="0.81875"/>
<rect x="518.566" y="194.75" width="64.6813" height="64.6813" stroke="white" stroke-width="0.81875"/>
<rect x="1.11567" y="259.431" width="64.6813" height="64.6813" stroke="white" stroke-width="0.81875"/>
<rect x="65.7968" y="259.431" width="64.6813" height="64.6813" stroke="white" stroke-width="0.81875"/>
<rect x="130.478" y="259.431" width="64.6813" height="64.6813" stroke="white" stroke-width="0.81875"/>
<rect x="195.159" y="259.431" width="64.6813" height="64.6813" fill="white" fill-opacity="0.25" stroke="white" stroke-width="0.81875"/>
<rect x="259.841" y="259.431" width="64.6813" height="64.6813" stroke="white" stroke-width="0.81875"/>
<rect x="324.522" y="259.431" width="64.6813" height="64.6813" stroke="white" stroke-width="0.81875"/>
<rect x="389.203" y="259.431" width="64.6813" height="64.6813" stroke="white" stroke-width="0.81875"/>
<rect x="453.884" y="259.431" width="64.6813" height="64.6813" stroke="white" stroke-width="0.81875"/>
<rect x="518.566" y="259.431" width="64.6813" height="64.6813" stroke="white" stroke-width="0.81875"/>
<rect x="1.11567" y="324.113" width="64.6813" height="64.6813" stroke="white" stroke-width="0.81875"/>
<rect x="65.7968" y="324.113" width="64.6813" height="64.6813" stroke="white" stroke-width="0.81875"/>
<rect x="130.478" y="324.113" width="64.6813" height="64.6813" stroke="white" stroke-width="0.81875"/>
<rect x="195.159" y="324.113" width="64.6813" height="64.6813" stroke="white" stroke-width="0.81875"/>
<rect x="259.841" y="324.113" width="64.6813" height="64.6813" stroke="white" stroke-width="0.81875"/>
<rect x="324.522" y="324.113" width="64.6813" height="64.6813" stroke="white" stroke-width="0.81875"/>
<rect x="389.203" y="324.113" width="64.6813" height="64.6813" stroke="white" stroke-width="0.81875"/>
<rect x="453.884" y="324.113" width="64.6813" height="64.6813" stroke="white" stroke-width="0.81875"/>
<rect x="518.566" y="324.113" width="64.6813" height="64.6813" stroke="white" stroke-width="0.81875"/>
<rect x="1.11567" y="388.794" width="64.6813" height="64.6813" stroke="white" stroke-width="0.81875"/>
<rect x="65.7968" y="388.794" width="64.6813" height="64.6813" stroke="white" stroke-width="0.81875"/>
<rect x="130.478" y="388.794" width="64.6813" height="64.6813" stroke="white" stroke-width="0.81875"/>
<rect x="195.159" y="388.794" width="64.6813" height="64.6813" stroke="white" stroke-width="0.81875"/>
<rect x="259.841" y="388.794" width="64.6813" height="64.6813" stroke="white" stroke-width="0.81875"/>
<rect x="324.522" y="388.794" width="64.6813" height="64.6813" stroke="white" stroke-width="0.81875"/>
<rect x="389.203" y="388.794" width="64.6813" height="64.6813" stroke="white" stroke-width="0.81875"/>
<rect x="453.884" y="388.794" width="64.6813" height="64.6813" stroke="white" stroke-width="0.81875"/>
<rect x="518.566" y="388.794" width="64.6813" height="64.6813" stroke="white" stroke-width="0.81875"/>
</svg>
