<svg width="64" height="63" viewBox="0 0 64 63" fill="none" xmlns="http://www.w3.org/2000/svg">
<path d="M53.176 18.3427V44.7308C52.758 44.6524 52.3139 44.6002 51.8697 44.6002C48.2642 44.6002 45.338 47.5264 45.338 51.1319C45.338 51.5761 45.3902 52.0202 45.4686 52.4382H19.0805C19.1589 52.0202 19.2111 51.5761 19.2111 51.1319C19.2111 47.5264 16.2849 44.6002 12.6794 44.6002C12.2352 44.6002 11.7911 44.6524 11.373 44.7308V18.3427C11.7911 18.4211 12.2352 18.4733 12.6794 18.4733C16.2849 18.4733 19.2111 15.5471 19.2111 11.9416C19.2111 11.4974 19.1589 11.0533 19.0805 10.6353H45.4686C45.3902 11.0533 45.338 11.4974 45.338 11.9416C45.338 15.5471 48.2642 18.4733 51.8697 18.4733C52.3139 18.4733 52.758 18.4211 53.176 18.3427Z" stroke="#D42530" stroke-width="1.28845" stroke-linecap="round" stroke-linejoin="round"/>
<path d="M19.2099 11.9416C19.2099 15.5471 16.2837 18.4733 12.6782 18.4733C12.234 18.4733 11.7899 18.4211 11.3719 18.3427C8.39339 17.7418 6.14648 15.103 6.14648 11.9416C6.14648 8.33612 9.07269 5.40991 12.6782 5.40991C15.8396 5.40991 18.4784 7.65682 19.0793 10.6353C19.1577 11.0533 19.2099 11.4975 19.2099 11.9416Z" stroke="#D42530" stroke-width="1.28845" stroke-linecap="round" stroke-linejoin="round"/>
<path d="M58.4013 11.9416C58.4013 15.103 56.1544 17.7418 53.176 18.3427C52.7579 18.4211 52.3138 18.4733 51.8696 18.4733C48.2641 18.4733 45.3379 15.5471 45.3379 11.9416C45.3379 11.4975 45.3901 11.0533 45.4685 10.6353C46.0694 7.65682 48.7083 5.40991 51.8696 5.40991C55.4751 5.40991 58.4013 8.33612 58.4013 11.9416Z" stroke="#D42530" stroke-width="1.28845" stroke-linecap="round" stroke-linejoin="round"/>
<path d="M19.2099 51.1319C19.2099 51.5761 19.1577 52.0202 19.0793 52.4383C18.4784 55.4167 15.8396 57.6637 12.6782 57.6637C9.07269 57.6637 6.14648 54.7374 6.14648 51.1319C6.14648 47.9706 8.39339 45.3318 11.3719 44.7309C11.7899 44.6525 12.234 44.6002 12.6782 44.6002C16.2837 44.6002 19.2099 47.5264 19.2099 51.1319Z" stroke="#D42530" stroke-width="1.28845" stroke-linecap="round" stroke-linejoin="round"/>
<path d="M58.4013 51.1319C58.4013 54.7374 55.4751 57.6637 51.8696 57.6637C48.7083 57.6637 46.0694 55.4167 45.4685 52.4383C45.3901 52.0202 45.3379 51.5761 45.3379 51.1319C45.3379 47.5264 48.2641 44.6002 51.8696 44.6002C52.3138 44.6002 52.7579 44.6525 53.176 44.7309C56.1544 45.3318 58.4013 47.9706 58.4013 51.1319Z" stroke="#D42530" stroke-width="1.28845" stroke-linecap="round" stroke-linejoin="round"/>
</svg>
