<svg width="63" height="64" viewBox="0 0 63 64" fill="none" xmlns="http://www.w3.org/2000/svg">
<g filter="url(#filter0_f_1489_5992)">
<circle cx="30.7922" cy="26.5589" r="16.9216" fill="#611313" fill-opacity="0.4"/>
</g>
<mask id="mask0_1489_5992" style="mask-type:alpha" maskUnits="userSpaceOnUse" x="17" y="13" width="27" height="27">
<circle cx="30.7921" cy="26.5589" r="12.8927" fill="white"/>
</mask>
<g mask="url(#mask0_1489_5992)">
<g filter="url(#filter1_i_1489_5992)">
<circle cx="30.7921" cy="26.5589" r="12.8927" fill="white" fill-opacity="0.01"/>
</g>
<circle cx="30.6912" cy="26.0553" r="13.3963" fill="url(#paint0_radial_1489_5992)"/>
<circle cx="31.36" cy="27.0056" r="13.3963" transform="rotate(138.992 31.36 27.0056)" fill="url(#paint1_radial_1489_5992)"/>
<circle cx="30.7921" cy="26.5589" r="12.8927" stroke="url(#paint2_linear_1489_5992)" stroke-width="0.402896"/>
<g clip-path="url(#clip0_1489_5992)">
<rect width="29.9294" height="29.9294" transform="translate(15.4536 11.5597)" fill="black" fill-opacity="0.1"/>
<path d="M30.8794 15.4735C32.5725 15.4735 34.1684 15.8634 35.6024 16.5424C34.5671 16.751 33.6874 17.2054 33.477 17.1585C33.1543 17.0878 31.5911 17.3583 31.0173 17.5732C30.4435 17.7889 30.4974 18.0621 30.3542 18.0983C30.211 18.1337 30.134 18.2619 29.9121 18.5121C29.6902 18.7631 30.0226 19.0646 30.0226 19.0646C30.0226 19.0646 30.8741 19.2564 31.0173 18.6226C31.1022 18.2468 30.9819 18.9444 31.0173 19.2308C31.0527 19.5181 31.5876 19.5889 31.874 19.2308C32.0031 19.0699 31.9854 18.6747 32.0677 18.5403C32.1685 18.3759 32.3913 18.5014 32.5097 18.4846C32.5805 18.4758 32.4178 18.5969 32.5097 18.6509C32.6927 18.7587 33.0694 18.5739 32.9792 19.0098C32.943 19.1857 32.3877 19.2202 32.3161 19.4792C32.2436 19.7383 32.1225 19.8939 32.1225 19.8939L30.9351 19.9213L30.5478 19.3687C30.5478 19.3687 30.1712 19.5323 30.2711 19.8664C30.3409 20.0963 30.1615 20.3633 30.1615 20.3633C30.1615 20.3633 29.5532 20.4605 29.5532 20.64C29.5532 20.7381 29.3056 20.7505 29.1659 20.8053C29.0519 20.8504 28.9749 21.0378 28.8627 21.0538C28.7955 21.0626 28.3755 21.1245 28.2827 21.1369C28.0298 21.1678 28.1439 21.2253 28.1439 21.3305C28.1439 21.4737 28.6133 21.4967 28.6133 21.4967C28.6133 21.4967 28.9139 21.6125 28.8078 21.8273C28.7 22.043 28.8839 22.1314 28.669 22.1314C28.5753 22.1314 28.3596 22.1023 28.1439 22.104C27.8653 22.104 27.5983 22.0165 27.5913 22.1314C27.5647 22.5735 27.5639 23.2091 27.5639 23.2091C27.5639 23.2091 27.9414 23.3948 28.1439 23.347C28.425 23.2816 28.837 23.5017 29.028 22.9881C29.043 22.9483 29.0527 22.8626 29.0837 22.8219C29.2163 22.6477 29.3604 22.2959 29.5806 22.1871C29.7159 22.1191 29.9042 22.1633 29.9678 22.1597C30.1111 22.1509 30.3542 21.9652 30.3542 21.9652C30.3542 21.9652 30.989 22.0519 31.1552 22.684C31.2047 22.8705 31.1579 23.1773 31.2657 23.2365C31.3312 23.2728 31.6256 22.9607 31.6256 22.9607L31.9571 22.9881L31.7635 22.5461L31.1552 21.8556L31.2657 21.8026C31.2657 21.8026 31.7273 21.8326 31.7635 21.9396C31.7989 22.0474 32.3541 22.3197 32.2613 22.6309C32.1057 23.1446 32.4823 23.2657 32.4823 23.2657C32.4823 23.2657 32.8086 23.3426 32.9509 23.073C33.0756 22.8369 33.0897 22.6309 33.0897 22.6309L33.5044 22.5461C33.5044 22.5461 33.4646 21.6859 33.9182 21.662C34.3726 21.639 34.4159 21.662 34.4159 21.662C34.4159 21.662 35.4132 21.9917 35.5211 22.2419C35.6281 22.493 35.6776 22.7317 35.3549 22.7671C35.0331 22.8033 34.5539 22.7406 34.5539 22.7406C34.5539 22.7406 33.286 22.5487 33.3939 22.9068C33.5008 23.2657 33.6149 23.6255 33.6149 23.6255C33.6149 23.6255 33.8899 23.5963 34.1392 23.6511C34.4062 23.7121 34.7475 23.6786 34.7475 23.6786L34.8032 24.2868L34.637 24.3416C34.4566 24.392 33.9235 24.4265 33.7802 24.4795C33.637 24.5326 32.0756 24.2603 32.0403 24.3142C32.004 24.3672 31.4974 24.5511 31.2109 24.4804C30.9245 24.4079 30.852 23.7342 30.852 23.7342C30.852 23.7342 30.7998 23.4124 30.6035 23.4301L29.0563 23.568C29.0563 23.568 28.6142 23.7652 28.6142 23.8722C28.6142 23.8722 28.4887 23.782 28.3101 23.8722C28.1306 23.9623 27.8565 23.95 27.7849 24.0932C27.7133 24.2373 27.4312 24.5052 27.2871 24.7562C27.1448 25.0064 26.7328 25.0259 26.624 25.475C26.517 25.9223 26.441 26.6711 26.4587 26.9938C26.4764 27.3165 26.4675 28.1166 26.7902 28.2925C27.1129 28.4693 27.5409 28.9043 27.7018 29.0661C27.8627 29.227 28.7274 29.3578 28.8344 29.2871C28.9422 29.2155 29.3286 29.0661 29.5258 29.0661C29.7229 29.0661 30.1464 29.097 30.272 29.204C30.3966 29.3118 30.5505 29.5435 30.6583 29.8122C30.7653 30.081 30.8732 30.5345 30.9625 30.6963C31.0518 30.8572 31.3922 31.1648 31.2657 31.4698C31.1411 31.7748 30.9262 32.0781 30.9625 32.4361C30.9979 32.7942 31.2127 33.2698 31.294 33.4307C31.3754 33.5916 31.8926 34.0982 31.874 34.26C31.8564 34.4209 32.0084 34.3811 32.2056 34.4536C32.4027 34.5243 33.24 34.2936 33.3665 34.1495C33.4911 34.0062 33.6856 33.5536 33.919 33.3202C34.1516 33.0877 34.6352 32.7058 34.8854 32.4361C35.1365 32.1674 35.3929 31.9207 35.4106 31.5804C35.4283 31.2391 35.2311 30.4903 35.4106 30.3648C35.5901 30.2392 35.8385 30.0447 36.0189 29.8122C36.1975 29.5788 36.5785 29.5974 36.8473 28.845C37.1161 28.0927 37.2045 27.8584 37.1515 27.8231C37.0984 27.7868 36.6705 27.9645 36.5989 28.0715C36.5273 28.1793 36.1082 28.2059 36.018 28.2925C35.9296 28.3791 35.5211 28.2925 35.5211 28.2925C35.5211 28.2925 35.6935 27.6135 35.6042 27.381C35.514 27.1485 35.0561 26.2388 34.9128 25.9161C34.7952 25.6518 34.7749 25.3459 34.8306 25.1435C34.8536 25.1753 34.8677 25.1938 34.8854 25.2257C34.9491 25.3406 35.293 25.7473 35.438 26.1654C35.7474 27.061 36.1011 27.7126 36.1011 27.7126C36.1011 27.7126 36.5679 27.7302 37.3451 27.1317C37.8729 26.7259 38.4379 26.7047 38.5325 26.497C38.712 26.1027 37.9799 25.7508 37.9799 25.7508H37.3168L36.8199 24.8941L36.9578 24.8393C36.9578 24.8393 37.5087 25.475 37.7589 25.475C38.01 25.475 38.6766 25.4166 38.8923 25.6677C39.1072 25.9188 39.7791 26.3431 39.887 26.7728C39.9949 27.2024 39.94 27.8036 40.1345 28.0167C40.4104 28.3155 40.6606 28.2925 40.6606 28.2925L40.9922 27.5189L41.7658 26.6349L41.9293 26.5518C41.9143 32.6474 36.9782 37.5752 30.8794 37.5752C28.1022 37.5764 25.4273 36.5272 23.3916 34.6383L23.7232 34.1495L24.1104 32.6023L23.1706 32.0224L22.0937 31.6626L21.3749 29.9227C21.3749 29.9227 20.7047 29.3808 20.1486 29.1297C19.9385 28.2771 19.8308 27.4025 19.8276 26.5244C19.8276 25.8728 19.8957 25.2372 20.0045 24.6165C20.6835 24.0949 21.5959 23.6794 21.5959 23.6794C21.5959 23.6794 22.0999 23.6211 21.237 22.1871C21.1272 22.0068 21.0444 21.8114 20.9912 21.6072C21.3537 20.8787 21.786 20.1918 22.2935 19.565C22.2493 19.8275 22.0778 20.9176 22.3969 21.1094C22.755 21.3243 23.099 20.6612 23.1706 20.4464C23.2422 20.2316 23.9893 19.412 24.2757 18.9824C24.48 18.6756 24.4084 18.0806 24.1979 17.7323C26.1165 16.266 28.4646 15.4722 30.8794 15.4735ZM28.6964 17.4627C28.5249 17.4795 28.1713 17.5714 28.1713 17.8499V18.3741C28.1713 18.3741 28.0652 18.5633 28.0059 18.6234C27.9458 18.6836 27.998 18.9576 28.0333 19.0655C28.0687 19.1733 28.089 19.5075 28.089 19.5075C28.089 19.5075 28.2623 19.5977 28.3101 19.6454C28.3578 19.6923 28.7663 19.7957 28.9458 19.7002C29.1244 19.6056 29.2287 19.3537 29.3595 19.3413C29.4913 19.3289 29.4108 19.3298 29.387 19.2308C29.364 19.1353 29.4984 18.7888 29.4984 18.7888L29.1385 18.4846C29.1385 18.4846 28.921 18.0205 28.9449 17.8773C28.9688 17.7332 28.7681 17.4795 28.7795 17.4627C28.7822 17.4538 28.753 17.4538 28.6964 17.4627ZM27.7584 18.5129C27.7097 18.5342 27.616 18.6509 27.5647 18.6783C27.4967 18.7127 27.5179 18.8312 27.4816 18.9267C27.4463 19.0222 27.3437 19.3687 27.3437 19.3687L27.5647 19.4518C27.5647 19.4518 27.9157 19.3855 27.952 19.3139C27.9803 19.2564 27.8768 18.9426 27.8406 18.8162C27.8317 18.7861 27.8406 18.7614 27.8406 18.7614L27.7858 18.5403C27.7769 18.5227 27.7743 18.505 27.7584 18.5121V18.5129ZM37.0144 21.5515C37.0958 21.5515 37.254 21.6081 37.2903 21.6346C37.338 21.6699 37.338 22.0899 37.2903 22.3524C37.2727 22.4402 37.2849 22.5313 37.3249 22.6114C37.3649 22.6915 37.4305 22.7559 37.5113 22.7945C37.5838 22.8184 37.6342 23.3939 37.6218 23.5132C37.6103 23.6326 37.2726 23.7219 37.1798 23.7342C37.0869 23.7466 36.6979 23.7431 36.7103 23.568C36.7227 23.3948 36.6431 22.8281 36.5715 22.6009C36.5007 22.3745 36.5193 22.0527 36.6272 21.9935C36.735 21.9343 36.9587 21.5789 36.9587 21.5789C36.9676 21.5594 36.987 21.5524 37.0144 21.5515ZM36.5166 31.3319C36.4733 31.3319 36.4106 31.3408 36.3504 31.3585C36.3504 31.3585 36.3257 31.8889 36.0746 32.0498C35.8244 32.2107 35.6599 32.5237 35.6599 32.6854C35.6599 32.8463 35.6069 32.9931 35.6599 33.1549C35.7139 33.3158 35.8367 33.4493 35.9915 33.4316C36.1471 33.4139 36.3151 33.078 36.3513 32.9339C36.3867 32.7906 36.5202 32.4812 36.6272 32.3813C36.735 32.2814 36.7563 32.0003 36.7377 31.8562C36.7227 31.7315 36.8173 31.3249 36.5166 31.3319Z" fill="url(#paint3_radial_1489_5992)"/>
</g>
</g>
<circle opacity="0.3" cx="11.886" cy="11.886" r="11.5407" transform="matrix(0.612372 0.612372 -1.06066 0.353553 36.3154 34.5982)" stroke="url(#paint4_radial_1489_5992)" stroke-width="0.690678"/>
<path opacity="0.3" d="M35.4589 50.5509C31.1814 51.9767 25.7117 51.1306 23.242 48.6609C20.7724 46.1913 22.238 43.0334 26.5155 41.6075C30.7931 40.1817 36.2628 41.0278 38.7324 43.4975C41.202 45.9671 39.7365 49.125 35.4589 50.5509Z" stroke="url(#paint5_radial_1489_5992)" stroke-width="0.690678"/>
<g opacity="0.3" filter="url(#filter2_d_1489_5992)">
<path d="M32.9763 48.0683C31.0736 48.7025 28.6406 48.3261 27.5421 47.2276C26.4436 46.1291 27.0955 44.7244 28.9982 44.0902C30.9009 43.4559 33.3339 43.8323 34.4324 44.9308C35.5309 46.0294 34.879 47.434 32.9763 48.0683Z" stroke="url(#paint6_radial_1489_5992)" stroke-width="0.690678" shape-rendering="crispEdges"/>
</g>
<g filter="url(#filter3_d_1489_5992)">
<path fill-rule="evenodd" clip-rule="evenodd" d="M22.0069 36.0191C21.7222 36.1037 21.4396 36.1927 21.1593 36.2861C11.7678 39.4166 8.55001 46.3499 13.9722 51.7721C19.3944 57.1942 31.4032 59.052 40.7947 55.9215C50.1862 52.791 53.4039 45.8577 47.9818 40.4355C45.926 38.3798 42.9236 36.8365 39.4759 35.883C39.3247 36.0245 39.1701 36.1624 39.0123 36.2966C42.3523 37.2067 45.2627 38.6932 47.2492 40.6797C52.4378 45.8683 49.3586 52.5029 40.3717 55.4986C31.3848 58.4942 19.8933 56.7165 14.7048 51.5279C9.51617 46.3393 12.5953 39.7047 21.5822 36.709C21.8788 36.6102 22.1782 36.5165 22.48 36.428C22.319 36.2955 22.1612 36.1591 22.0069 36.0191Z" fill="url(#paint7_linear_1489_5992)" shape-rendering="crispEdges"/>
</g>
<g filter="url(#filter4_d_1489_5992)">
<path d="M49.2077 29.1796C49.1516 29.1634 49.0968 29.1473 49.042 29.13C48.9896 29.1138 48.9373 29.0952 48.8862 29.0766C48.86 29.0667 48.8351 29.0556 48.8101 29.0456C48.8064 29.0444 48.7977 29.0469 48.7915 29.0345V29.0357C48.789 29.0345 48.7877 29.0345 48.784 29.0345C48.7815 29.0332 48.779 29.0332 48.7777 29.0332C48.7777 29.0332 48.779 29.0345 48.7802 29.0345H48.779C48.7765 29.0345 48.774 29.032 48.7715 29.0307C48.5684 28.9415 48.3739 28.8311 48.1932 28.7033C48.1733 28.6897 48.1546 28.6785 48.1359 28.6637C48.1359 28.6637 48.1334 28.6624 48.1296 28.6624V28.6587L48.1284 28.6562V28.655C48.1284 28.655 48.1284 28.6537 48.1272 28.6537C48.1259 28.6525 48.1247 28.6512 48.1222 28.65C48.1209 28.65 48.1209 28.6488 48.1197 28.6488C48.1184 28.6475 48.1159 28.6463 48.1147 28.645C48.1159 28.6463 48.1172 28.6463 48.1184 28.6475C48.1147 28.645 48.1109 28.6426 48.1097 28.6413C48.0648 28.6066 48.0212 28.5706 47.9788 28.5334C47.8966 28.4603 47.8168 28.3846 47.742 28.304C47.7059 28.2643 47.6697 28.2246 47.6361 28.1837C47.6186 28.1626 47.6012 28.1428 47.585 28.1217C47.5788 28.1142 47.57 28.0994 47.5638 28.0944C47.565 28.0956 47.565 28.0969 47.5663 28.0981L47.5626 28.0944H47.5638C47.5626 28.0919 47.5601 28.0894 47.5588 28.087C47.494 28.0014 47.4342 27.9121 47.3781 27.8203C47.312 27.7124 47.2535 27.6008 47.2011 27.4867C47.1961 27.4755 47.1887 27.4644 47.1837 27.4532C47.1824 27.4507 47.1899 27.4483 47.1774 27.4445C47.1774 27.4334 47.1724 27.4259 47.17 27.4222C47.17 27.4235 47.1724 27.4259 47.1737 27.4284C47.1762 27.4346 47.1799 27.4396 47.1824 27.4458V27.4433C47.1799 27.4185 47.1575 27.3838 47.1488 27.3614C47.1263 27.3044 47.1064 27.2498 47.0877 27.1928C47.0491 27.0861 46.9543 27.0117 46.8422 27.0117H42.369C42.1634 27.0117 41.9565 27.0005 41.7508 27.008C41.7483 27.008 41.7446 27.0067 41.7421 27.0067C41.6287 27.0067 41.5352 27.0836 41.5016 27.1878C41.4866 27.2337 41.4704 27.2796 41.453 27.3255C41.443 27.3515 41.4343 27.3763 41.423 27.4024C41.4193 27.4111 41.4168 27.4185 41.4131 27.4259L41.4156 27.421C41.4156 27.421 41.4131 27.4284 41.4081 27.4383C41.4093 27.4346 41.4118 27.4309 41.4131 27.4272C41.4118 27.4309 41.4093 27.4359 41.4068 27.4421C41.362 27.5438 41.3121 27.643 41.2573 27.7397C41.2024 27.8352 41.1426 27.9295 41.079 28.0187C41.0628 28.0411 41.0479 28.0622 41.0317 28.0832C41.0292 28.087 41.0255 28.0907 41.0217 28.0944C41.0205 28.0969 41.018 28.0994 41.0155 28.1031C41.0142 28.1056 41.0117 28.1068 41.0105 28.1093C40.9744 28.1527 40.9395 28.1973 40.9008 28.2395C40.8298 28.3201 40.755 28.3958 40.6765 28.4689C40.6378 28.5049 40.5967 28.5409 40.5556 28.5744C40.5344 28.5917 40.5145 28.6091 40.4933 28.6252C40.487 28.6302 40.482 28.6339 40.4758 28.6388C40.4771 28.6376 40.4783 28.6364 40.4808 28.6351C40.4771 28.6376 40.4733 28.6413 40.4708 28.6426C40.4721 28.6413 40.4746 28.6388 40.4771 28.6376C40.4708 28.6413 40.4658 28.6463 40.4596 28.65C40.2839 28.7802 40.0957 28.8943 39.8988 28.9873C39.8688 29.001 39.8389 29.0146 39.8078 29.0283C39.804 29.0295 39.8003 29.032 39.7966 29.0332C39.8003 29.032 39.8053 29.0295 39.809 29.0283C39.7916 29.0382 39.7841 29.0407 39.7828 29.0419C39.7841 29.0407 39.7903 29.0369 39.7978 29.0345L39.7679 29.0456C39.7081 29.0692 39.6482 29.0915 39.5872 29.1114C39.5174 29.1337 39.4476 29.1548 39.3778 29.1759C39.2718 29.2069 39.1958 29.3048 39.1958 29.4152V30.9109C39.1958 31.1738 39.1946 31.4367 39.2145 31.6996C39.2531 32.2118 39.3416 32.7228 39.4862 33.2164C39.7729 34.1937 40.2677 35.1027 40.927 35.8803C41.2473 36.2586 41.6075 36.6021 42.0013 36.906C42.2431 37.092 42.4949 37.2607 42.7529 37.4244L44.1326 38.295C44.1438 38.3024 44.1563 38.3074 44.1675 38.3148C44.1999 38.3347 44.2373 38.3459 44.2747 38.3459C44.3233 38.3583 44.3731 38.3434 44.418 38.3148H44.4193C44.4255 38.3111 44.433 38.3074 44.4392 38.3024C44.8542 38.0408 45.268 37.7803 45.6831 37.5174C45.875 37.3971 46.0682 37.278 46.2539 37.1503C46.6776 36.8551 47.0727 36.519 47.4255 36.1433C48.1234 35.3979 48.6568 34.5124 48.9921 33.55C49.2713 32.7501 49.3897 31.9117 49.3897 31.0671V29.4189C49.3897 29.3073 49.3124 29.2106 49.2077 29.1796ZM46.7437 31.1205L46.3835 31.4789L44.8193 33.0353L43.831 34.0188C43.6877 34.1614 43.4446 34.1614 43.3025 34.0188L43.1206 33.8377L41.8406 32.5641C41.6923 32.4165 41.7035 32.187 41.8406 32.0382C41.9777 31.8906 42.2307 31.9006 42.369 32.0395C42.4301 32.1002 42.4912 32.161 42.551 32.2218C42.89 32.5591 43.2278 32.8915 43.5668 33.2313L43.6615 33.137C44.1825 32.6174 44.7047 32.0965 45.2257 31.5781L46.214 30.5946C46.3623 30.4471 46.5941 30.4582 46.7425 30.5946C46.8933 30.7311 46.882 30.9828 46.7437 31.1205Z" fill="url(#paint8_linear_1489_5992)"/>
<path fill-rule="evenodd" clip-rule="evenodd" d="M49.1765 29.1796C49.1204 29.1634 49.0656 29.1473 49.0107 29.13C48.9584 29.1138 48.906 29.0952 48.8549 29.0766C48.8396 29.0708 48.8246 29.0646 48.8099 29.0584L48.8099 29.0584C48.7995 29.054 48.7892 29.0497 48.7789 29.0456C48.7781 29.0454 48.777 29.0453 48.7758 29.0452C48.7715 29.0448 48.7651 29.0442 48.7602 29.0345V29.0357C48.7577 29.0345 48.7565 29.0345 48.7527 29.0345C48.7502 29.0332 48.7477 29.0332 48.7465 29.0332C48.7465 29.0332 48.7477 29.0345 48.749 29.0345H48.7477C48.7461 29.0345 48.7444 29.0334 48.7428 29.0323L48.7403 29.0307C48.5371 28.9415 48.3427 28.8311 48.162 28.7033L48.1438 28.6912C48.1305 28.6825 48.1176 28.6739 48.1046 28.6637C48.1046 28.6637 48.1021 28.6624 48.0984 28.6624V28.6587L48.0971 28.6562V28.655C48.0971 28.655 48.0971 28.6537 48.0959 28.6537C48.0947 28.6525 48.0934 28.6512 48.0909 28.65C48.0903 28.65 48.09 28.6497 48.0897 28.6494C48.0894 28.6491 48.089 28.6488 48.0884 28.6488C48.0878 28.6481 48.0869 28.6475 48.0859 28.6469C48.085 28.6463 48.0841 28.6457 48.0834 28.645C48.0841 28.6457 48.0847 28.646 48.0853 28.6463C48.0823 28.6443 48.0795 28.6424 48.0785 28.6413C48.0336 28.6066 47.99 28.5706 47.9476 28.5334C47.8653 28.4603 47.7856 28.3846 47.7108 28.304C47.6746 28.2643 47.6385 28.2246 47.6048 28.1837L47.5885 28.1642L47.5885 28.1642C47.5766 28.1501 47.5649 28.1362 47.5537 28.1217C47.5514 28.1189 47.5487 28.115 47.5459 28.111C47.5413 28.1044 47.5364 28.0975 47.5326 28.0944C47.5319 28.0932 47.531 28.0919 47.5301 28.0907C47.5291 28.0894 47.5282 28.0882 47.5276 28.087C47.4628 28.0014 47.4029 27.9121 47.3468 27.8203C47.2808 27.7124 47.2222 27.6008 47.1699 27.4867C47.1674 27.4811 47.1643 27.4755 47.1611 27.47C47.158 27.4644 47.1549 27.4588 47.1524 27.4532C47.152 27.4525 47.1524 27.4517 47.1529 27.451C47.1539 27.4492 47.1549 27.4472 47.1462 27.4445C47.1462 27.4372 47.144 27.4315 47.1419 27.4274L47.1424 27.4284C47.1437 27.4315 47.1452 27.4343 47.1468 27.4371C47.1484 27.4399 47.1499 27.4427 47.1512 27.4458V27.4433C47.1495 27.4268 47.139 27.4058 47.1296 27.3871C47.1249 27.3777 47.1204 27.3689 47.1175 27.3614C47.0951 27.3044 47.0751 27.2498 47.0564 27.1928C47.0178 27.0861 46.9231 27.0117 46.8109 27.0117H47.4686C47.5807 27.0117 47.6755 27.0861 47.7141 27.1928C47.7328 27.2498 47.7527 27.3044 47.7752 27.3614C47.7781 27.3689 47.7825 27.3777 47.7872 27.3871C47.7966 27.4058 47.8072 27.4268 47.8088 27.4433V27.4458C47.8076 27.4427 47.806 27.4399 47.8045 27.4371C47.8029 27.4343 47.8013 27.4315 47.8001 27.4284C47.7999 27.4281 47.7997 27.4277 47.7995 27.4274C47.8017 27.4315 47.8038 27.4372 47.8038 27.4445C47.8126 27.4472 47.8115 27.4492 47.8105 27.451C47.8101 27.4517 47.8097 27.4525 47.8101 27.4532C47.8126 27.4588 47.8157 27.4644 47.8188 27.47C47.8219 27.4755 47.825 27.4811 47.8275 27.4867C47.8799 27.6008 47.9384 27.7124 48.0045 27.8203C48.0606 27.9121 48.1204 28.0014 48.1852 28.087C48.1858 28.0882 48.1868 28.0894 48.1877 28.0907C48.1886 28.0919 48.1896 28.0932 48.1902 28.0944H48.189L48.1927 28.0981C48.1921 28.0975 48.1918 28.0969 48.1914 28.0963C48.1911 28.0956 48.1908 28.095 48.1902 28.0944C48.1941 28.0975 48.1989 28.1044 48.2035 28.111C48.2063 28.115 48.209 28.1189 48.2114 28.1217C48.2225 28.1362 48.2342 28.1501 48.2461 28.1642C48.2515 28.1706 48.257 28.1771 48.2625 28.1837C48.2961 28.2246 48.3323 28.2643 48.3684 28.304C48.4432 28.3846 48.523 28.4603 48.6052 28.5334C48.6476 28.5706 48.6912 28.6066 48.7361 28.6413C48.7373 28.6426 48.7411 28.645 48.7448 28.6475C48.7442 28.6469 48.7436 28.6466 48.743 28.6463C48.7423 28.646 48.7417 28.6457 48.7411 28.645C48.7417 28.6457 48.7426 28.6463 48.7436 28.6469C48.7445 28.6475 48.7454 28.6481 48.7461 28.6488C48.7467 28.6488 48.747 28.6491 48.7473 28.6494C48.7476 28.6497 48.7479 28.65 48.7486 28.65C48.7511 28.6512 48.7523 28.6525 48.7535 28.6537C48.7548 28.6537 48.7548 28.655 48.7548 28.655V28.6562L48.756 28.6587V28.6624C48.7598 28.6624 48.7623 28.6637 48.7623 28.6637C48.7752 28.6739 48.7881 28.6825 48.8015 28.6912C48.8074 28.6952 48.8135 28.6991 48.8196 28.7033C49.0003 28.8311 49.1948 28.9415 49.3979 29.0307C49.3987 29.0312 49.3996 29.0317 49.4004 29.0323C49.4021 29.0334 49.4037 29.0345 49.4054 29.0345H49.4066C49.4054 29.0345 49.4041 29.0332 49.4041 29.0332C49.4054 29.0332 49.4079 29.0332 49.4104 29.0345C49.4141 29.0345 49.4154 29.0345 49.4179 29.0357V29.0345C49.4227 29.0442 49.4291 29.0448 49.4335 29.0452C49.4347 29.0453 49.4357 29.0454 49.4365 29.0456C49.4468 29.0497 49.4571 29.054 49.4675 29.0584C49.4823 29.0646 49.4972 29.0708 49.5126 29.0766C49.5637 29.0952 49.616 29.1138 49.6684 29.13C49.7232 29.1473 49.778 29.1634 49.8341 29.1796C49.9388 29.2106 50.0161 29.3073 50.0161 29.4189V31.0671C50.0161 31.9117 49.8977 32.7501 49.6185 33.55C49.2832 34.5124 48.7498 35.3979 48.0519 36.1433C47.6991 36.519 47.304 36.8551 46.8803 37.1503C46.719 37.2613 46.552 37.3657 46.3852 37.47C46.3599 37.4858 46.3347 37.5016 46.3095 37.5174C45.9823 37.7246 45.6559 37.9303 45.3291 38.1363C45.2413 38.1917 45.1535 38.247 45.0656 38.3024C45.061 38.3061 45.0558 38.3091 45.0509 38.3119C45.0491 38.3129 45.0473 38.3139 45.0457 38.3148H45.0444C44.9995 38.3434 44.9497 38.3583 44.9011 38.3459C44.8637 38.3459 44.8263 38.3347 44.7939 38.3148C44.7883 38.3111 44.7824 38.308 44.7765 38.3049C44.7705 38.3018 44.7646 38.2987 44.759 38.295L44.5895 38.188L44.671 38.1367C44.998 37.9306 45.3245 37.7248 45.6518 37.5174L45.7275 37.47L45.7276 37.47C45.8944 37.3656 46.0614 37.2612 46.2226 37.1503C46.6464 36.8551 47.0415 36.519 47.3942 36.1433C48.0922 35.3979 48.6256 34.5124 48.9609 33.55C49.24 32.7501 49.3585 31.9117 49.3585 31.0671V29.4189C49.3585 29.3073 49.2812 29.2106 49.1765 29.1796ZM42.3194 27.0117C42.3352 27.0084 42.3516 27.0067 42.3685 27.0067C42.3697 27.0067 42.3713 27.0071 42.3729 27.0074C42.3744 27.0077 42.376 27.008 42.3772 27.008C42.5058 27.0033 42.6349 27.006 42.7638 27.0086C42.8411 27.0101 42.9183 27.0117 42.9954 27.0117H42.3378C42.3316 27.0117 42.3255 27.0117 42.3194 27.0117ZM47.5326 28.0944C47.5332 28.095 47.5335 28.0956 47.5338 28.0963C47.5341 28.0969 47.5344 28.0975 47.535 28.0981L47.5313 28.0944H47.5326Z" fill="url(#paint9_linear_1489_5992)"/>
</g>
<path d="M54.6206 34.2715C54.6206 46.9865 44.0828 57.2941 31.3678 57.2941V57.2941C18.6527 57.2941 8.11492 46.9865 8.11492 34.2715L8.11492 17.2347L54.6206 17.2347L54.6206 34.2715Z" fill="url(#paint10_linear_1489_5992)"/>
<defs>
<filter id="filter0_f_1489_5992" x="5.0069" y="0.773562" width="51.5707" height="51.5707" filterUnits="userSpaceOnUse" color-interpolation-filters="sRGB">
<feFlood flood-opacity="0" result="BackgroundImageFix"/>
<feBlend mode="normal" in="SourceGraphic" in2="BackgroundImageFix" result="shape"/>
<feGaussianBlur stdDeviation="4.43185" result="effect1_foregroundBlur_1489_5992"/>
</filter>
<filter id="filter1_i_1489_5992" x="17.8994" y="13.6663" width="25.7852" height="26.5911" filterUnits="userSpaceOnUse" color-interpolation-filters="sRGB">
<feFlood flood-opacity="0" result="BackgroundImageFix"/>
<feBlend mode="normal" in="SourceGraphic" in2="BackgroundImageFix" result="shape"/>
<feColorMatrix in="SourceAlpha" type="matrix" values="0 0 0 0 0 0 0 0 0 0 0 0 0 0 0 0 0 0 127 0" result="hardAlpha"/>
<feMorphology radius="0.402896" operator="erode" in="SourceAlpha" result="effect1_innerShadow_1489_5992"/>
<feOffset dy="0.805792"/>
<feGaussianBlur stdDeviation="0.402896"/>
<feComposite in2="hardAlpha" operator="arithmetic" k2="-1" k3="1"/>
<feColorMatrix type="matrix" values="0 0 0 0 1 0 0 0 0 0.0916667 0 0 0 0 0.148763 0 0 0 1 0"/>
<feBlend mode="normal" in2="shape" result="effect1_innerShadow_1489_5992"/>
</filter>
<filter id="filter2_d_1489_5992" x="22.9018" y="40.0844" width="16.1709" height="12.45" filterUnits="userSpaceOnUse" color-interpolation-filters="sRGB">
<feFlood flood-opacity="0" result="BackgroundImageFix"/>
<feColorMatrix in="SourceAlpha" type="matrix" values="0 0 0 0 0 0 0 0 0 0 0 0 0 0 0 0 0 0 127 0" result="hardAlpha"/>
<feOffset dy="0.230226"/>
<feGaussianBlur stdDeviation="1.84181"/>
<feComposite in2="hardAlpha" operator="out"/>
<feColorMatrix type="matrix" values="0 0 0 0 0.945833 0 0 0 0 0.0157639 0 0 0 0 0.0742258 0 0 0 1 0"/>
<feBlend mode="normal" in2="BackgroundImageFix" result="effect1_dropShadow_1489_5992"/>
<feBlend mode="normal" in="SourceGraphic" in2="effect1_dropShadow_1489_5992" result="shape"/>
</filter>
<filter id="filter3_d_1489_5992" x="8.57567" y="33.5808" width="44.8028" height="27.0846" filterUnits="userSpaceOnUse" color-interpolation-filters="sRGB">
<feFlood flood-opacity="0" result="BackgroundImageFix"/>
<feColorMatrix in="SourceAlpha" type="matrix" values="0 0 0 0 0 0 0 0 0 0 0 0 0 0 0 0 0 0 127 0" result="hardAlpha"/>
<feOffset dy="0.460452"/>
<feGaussianBlur stdDeviation="1.38136"/>
<feComposite in2="hardAlpha" operator="out"/>
<feColorMatrix type="matrix" values="0 0 0 0 1 0 0 0 0 0.0541667 0 0 0 0 0.113619 0 0 0 1 0"/>
<feBlend mode="normal" in2="BackgroundImageFix" result="effect1_dropShadow_1489_5992"/>
<feBlend mode="normal" in="SourceGraphic" in2="effect1_dropShadow_1489_5992" result="shape"/>
</filter>
<filter id="filter4_d_1489_5992" x="26.7636" y="15.4941" width="35.6847" height="36.2093" filterUnits="userSpaceOnUse" color-interpolation-filters="sRGB">
<feFlood flood-opacity="0" result="BackgroundImageFix"/>
<feColorMatrix in="SourceAlpha" type="matrix" values="0 0 0 0 0 0 0 0 0 0 0 0 0 0 0 0 0 0 127 0" result="hardAlpha"/>
<feOffset dy="0.920905"/>
<feGaussianBlur stdDeviation="6.21611"/>
<feComposite in2="hardAlpha" operator="out"/>
<feColorMatrix type="matrix" values="0 0 0 0 0.945833 0 0 0 0 0.0157639 0 0 0 0 0.0742258 0 0 0 0.4 0"/>
<feBlend mode="normal" in2="BackgroundImageFix" result="effect1_dropShadow_1489_5992"/>
<feBlend mode="normal" in="SourceGraphic" in2="effect1_dropShadow_1489_5992" result="shape"/>
</filter>
<radialGradient id="paint0_radial_1489_5992" cx="0" cy="0" r="1" gradientUnits="userSpaceOnUse" gradientTransform="translate(30.6912 26.0553) rotate(90) scale(13.3963 13.3963)">
<stop offset="0.94761" stop-color="#F10413" stop-opacity="0"/>
<stop offset="1" stop-color="#F10413"/>
</radialGradient>
<radialGradient id="paint1_radial_1489_5992" cx="0" cy="0" r="1" gradientUnits="userSpaceOnUse" gradientTransform="translate(31.36 27.0056) rotate(90) scale(13.3963 13.3963)">
<stop offset="0.94761" stop-color="#F10413" stop-opacity="0"/>
<stop offset="1" stop-color="#F10413"/>
</radialGradient>
<linearGradient id="paint2_linear_1489_5992" x1="30.7921" y1="13.6663" x2="30.7921" y2="39.4516" gradientUnits="userSpaceOnUse">
<stop stop-color="white"/>
<stop offset="1" stop-color="white" stop-opacity="0"/>
</linearGradient>
<radialGradient id="paint3_radial_1489_5992" cx="0" cy="0" r="1" gradientUnits="userSpaceOnUse" gradientTransform="translate(31.8458 28.2701) rotate(46.7966) scale(17.5553 30.1372)">
<stop stop-color="white" stop-opacity="0.47"/>
<stop offset="1" stop-color="white" stop-opacity="0"/>
</radialGradient>
<radialGradient id="paint4_radial_1489_5992" cx="0" cy="0" r="1" gradientUnits="userSpaceOnUse" gradientTransform="rotate(47.959) scale(38.8883 65.5573)">
<stop stop-color="white" stop-opacity="0.7"/>
<stop offset="1" stop-color="white" stop-opacity="0"/>
</radialGradient>
<radialGradient id="paint5_radial_1489_5992" cx="0" cy="0" r="1" gradientUnits="userSpaceOnUse" gradientTransform="translate(34.4155 38.6922) rotate(119.31) scale(19.3015 47.3539)">
<stop stop-color="white" stop-opacity="0.7"/>
<stop offset="1" stop-color="white" stop-opacity="0"/>
</radialGradient>
<radialGradient id="paint6_radial_1489_5992" cx="0" cy="0" r="1" gradientUnits="userSpaceOnUse" gradientTransform="translate(32.5981 42.6082) rotate(119.31) scale(9.06939 22.2506)">
<stop stop-color="white" stop-opacity="0.7"/>
<stop offset="1" stop-color="white" stop-opacity="0"/>
</radialGradient>
<linearGradient id="paint7_linear_1489_5992" x1="-9.80352" y1="53.5646" x2="3.45885" y2="15.9902" gradientUnits="userSpaceOnUse">
<stop stop-color="#C8020E"/>
<stop offset="1" stop-color="#FF0010" stop-opacity="0.29"/>
</linearGradient>
<linearGradient id="paint8_linear_1489_5992" x1="39.7713" y1="30.4582" x2="49.5498" y2="22.2178" gradientUnits="userSpaceOnUse">
<stop stop-color="#C8020E"/>
<stop offset="1" stop-color="#FF0010" stop-opacity="0.29"/>
</linearGradient>
<linearGradient id="paint9_linear_1489_5992" x1="33.3235" y1="36.3098" x2="43.6189" y2="20.9955" gradientUnits="userSpaceOnUse">
<stop stop-color="#C8020E"/>
<stop offset="1" stop-color="#FF0010" stop-opacity="0.29"/>
</linearGradient>
<linearGradient id="paint10_linear_1489_5992" x1="31.3678" y1="73.4883" x2="31.3678" y2="20.4736" gradientUnits="userSpaceOnUse">
<stop stop-color="#FF1726" stop-opacity="0.55"/>
<stop offset="1" stop-color="#D42530" stop-opacity="0"/>
</linearGradient>
<clipPath id="clip0_1489_5992">
<rect width="29.9294" height="29.9294" fill="white" transform="translate(15.4536 11.5597)"/>
</clipPath>
</defs>
</svg>
