<svg width="183" height="39" viewBox="0 0 183 39" fill="none" xmlns="http://www.w3.org/2000/svg">
<g id="Logo" clip-path="url(#clip0_1813_18100)">
<path id="Vector" d="M27.5288 33.6836L26.4221 34.306L25.3155 33.6836C19.886 30.5365 15.6323 25.5567 13.3844 19.7121C12.4161 17.1876 11.8282 14.5593 11.6207 11.8619C10.272 11.2394 9.02703 10.7206 7.95496 10.3748C8.05872 13.8676 8.78493 17.2914 10.0299 20.5767C12.6237 27.2857 17.4998 32.9919 23.7593 36.6231L26.4221 38.1447L29.085 36.6231C31.9208 34.9977 34.4453 32.9227 36.624 30.5365C36.0015 29.8103 35.2408 29.0149 34.3416 28.0811C32.405 30.2945 30.0879 32.1965 27.5288 33.6836ZM44.9584 8.61113L44.8201 5.70615L42.2956 4.25367C37.5232 1.48706 32.0245 0 26.4221 0C21.4422 0 16.4969 1.17581 12.0703 3.42369C13.4536 4.04618 14.9407 4.807 16.4969 5.67156C19.6439 4.46117 23.033 3.8041 26.4567 3.8041C31.3329 3.8041 36.1053 5.08366 40.2898 7.50442L41.3273 8.09237L41.3964 9.30277C41.3964 9.40647 41.3964 9.5448 41.3964 9.64856C41.3964 13.1069 40.7739 16.4613 39.529 19.643C39.2177 20.473 38.8373 21.2684 38.4569 22.0638C39.3561 22.8938 40.186 23.7237 40.9469 24.5537C41.6731 23.2742 42.3302 21.9255 42.8489 20.5075C44.2668 16.8418 44.9931 13.0031 44.9931 9.02611C44.9584 8.95691 44.9584 8.78402 44.9584 8.61113Z" fill="#D42530"/>
<path id="Vector_2" d="M35.2406 21.9601C35.6902 21.1301 36.1052 20.2655 36.451 19.4009C37.3848 16.9801 37.8689 14.421 37.8689 11.8273C37.8689 11.7236 37.8689 11.6544 37.8689 11.5507L37.8343 10.6515L37.0389 10.2019C33.8573 8.36901 30.2261 7.40071 26.5258 7.40071C23.7246 7.40071 20.958 7.95402 18.3989 9.02609C13.2114 5.70618 7.8857 3.18164 3.87412 3.18164C1.5225 3.18164 0.0354364 4.56495 0.0008537 6.81282C-0.0683117 10.9628 4.08161 17.3606 6.5024 20.473C5.32659 18.8822 3.94328 15.6314 3.66662 14.8014C3.35538 13.9023 3.07871 12.9685 2.9058 12.0002C2.14498 7.81569 3.32079 7.0549 6.29491 7.57367C8.71568 7.98866 11.8627 9.37195 15.2519 11.3086V11.5852C15.2519 11.689 15.2519 11.7581 15.2519 11.8619C15.2519 14.4902 15.736 17.0147 16.6697 19.4355C18.3297 23.8621 21.5804 27.597 25.6958 30.0178L26.5258 30.502L27.3558 30.0178C29.7419 28.6345 31.817 26.8016 33.4769 24.6575C41.6384 32.0582 45.5808 38.3176 35.5518 34.9977C39.9093 37.3148 41.8114 37.5914 43.1601 37.9373C48.9354 39.4935 46.5492 32.3348 35.2406 21.9601ZM27.5979 17.6372L28.4279 21.5104H24.6583L25.0042 19.8159C25.0388 19.7122 25.35 18.156 25.6266 16.7726C25.0387 16.4614 24.6238 15.8389 24.6238 15.1127C24.6238 14.0752 25.4537 13.2106 26.5258 13.2106C27.5632 13.2106 28.4279 14.0406 28.4279 15.1127C28.4279 15.8389 28.0129 16.4614 27.4249 16.7726L27.5979 17.6372Z" fill="white"/>
<path id="Vector_3" d="M161.419 28.6429L159.241 24.3893H145.511V28.6429H161.419Z" fill="#D42530"/>
<g id="Group 8786">
<path id="Vector_4" d="M58.2592 9.02136V28.6644H53.3485V9.02136H58.2592Z" fill="white"/>
<path id="Vector_5" d="M161.419 9.06897L159.241 13.3573H145.511V9.06897H161.419Z" fill="#D42530"/>
<path id="Vector_6" d="M159.275 16.6082H145.511V20.8272H159.275V16.6082Z" fill="#D42530"/>
<path id="Vector_7" d="M66.5593 17.1268V28.6774H61.6831V9.10359L61.6486 9.069H61.6831V9.03442H66.5593V9.069L74.4438 20.4813V9.069H79.3895V28.5736L79.4589 28.6774H74.4438V28.5045L66.5593 17.1268Z" fill="white"/>
<path id="Vector_8" d="M98.6519 9.06897L96.5079 13.2535H82.7437V9.06897H98.6519ZM87.6199 20.7925V28.6774L82.7437 28.6427V16.608H96.5079V20.7925H87.6199Z" fill="white"/>
<path id="Vector_9" d="M121.061 18.8213C121.061 21.7608 120.197 24.1124 118.468 25.9454C116.738 27.7783 114.318 28.6428 111.205 28.6428C108.093 28.6428 105.672 27.7091 103.943 25.8416C102.214 23.9741 101.35 21.6225 101.35 18.8559C101.35 15.9164 102.283 13.5648 104.116 11.7319C105.949 9.89899 108.335 9.03442 111.205 9.03442C114.214 9.03442 116.6 9.93357 118.399 11.7319C120.163 13.5301 121.061 15.9164 121.061 18.8213ZM115.909 18.8213C115.909 17.2651 115.563 15.9164 114.871 14.8097C114.179 13.7031 113.039 13.1844 111.448 13.1844C109.753 13.1844 108.508 13.7377 107.747 14.8443C106.952 15.9509 106.572 17.2651 106.572 18.8213C106.572 20.1009 106.952 21.3804 107.747 22.6255C108.508 23.8704 109.753 24.4929 111.448 24.4929C113.039 24.4929 114.179 23.9395 114.871 22.8329C115.563 21.7263 115.909 20.3776 115.909 18.8213Z" fill="white"/>
<path id="Vector_10" d="M136.866 16.7118C140.324 17.2997 142.053 19.098 142.088 22.1067V22.66C142.053 26.2566 140.324 28.2624 136.9 28.6774H124.416L126.353 24.4237H135.656C136.658 24.2508 137.177 23.6283 137.177 22.5217C137.177 21.5534 136.624 21.0001 135.552 20.8271H129.604C126.145 20.2392 124.416 18.4409 124.382 15.4322V14.8789C124.416 11.4206 126.145 9.484 129.569 9.03442H142.053L140.082 13.2535H130.71C129.742 13.3918 129.257 14.0143 129.292 15.0518C129.292 16.0201 129.846 16.5389 130.918 16.6772H136.866V16.7118Z" fill="#D42530"/>
<path id="Vector_11" d="M179.887 24.4239H177.985L177.95 24.3893H173.005C170.584 24.3893 169.339 22.5219 169.304 18.7869C169.374 15.1211 170.757 13.2882 173.489 13.2537H179.887L181.858 9H173.005C167.126 9.65707 164.152 12.9424 164.152 18.8215C164.152 24.7006 166.849 27.9859 172.21 28.643H181.858L179.887 24.4239Z" fill="#D42530"/>
</g>
</g>
<defs>
<clipPath id="clip0_1813_18100">
<rect width="182.483" height="38.6435" fill="white"/>
</clipPath>
</defs>
</svg>
