<svg width="786" height="471" viewBox="0 0 786 471" fill="none" xmlns="http://www.w3.org/2000/svg">
<mask id="mask0_1008_7802" style="mask-type:alpha" maskUnits="userSpaceOnUse" x="0" y="0" width="786" height="471">
<rect y="0.928101" width="786" height="469.144" fill="url(#paint0_radial_1008_7802)"/>
</mask>
<g mask="url(#mask0_1008_7802)">
<rect x="101.115" y="8.70625" width="64.6813" height="64.6813" stroke="white" stroke-width="0.81875"/>
<rect x="165.797" y="8.70625" width="64.6813" height="64.6813" stroke="white" stroke-width="0.81875"/>
<rect x="230.478" y="8.70625" width="64.6813" height="64.6813" stroke="white" stroke-width="0.81875"/>
<rect x="295.159" y="8.70625" width="64.6813" height="64.6813" stroke="white" stroke-width="0.81875"/>
<rect x="359.84" y="8.70625" width="64.6813" height="64.6813" stroke="white" stroke-width="0.81875"/>
<rect x="424.522" y="8.70625" width="64.6813" height="64.6813" stroke="white" stroke-width="0.81875"/>
<rect x="489.203" y="8.70625" width="64.6813" height="64.6813" fill="white" fill-opacity="0.25" stroke="white" stroke-width="0.81875"/>
<rect x="553.884" y="8.70625" width="64.6813" height="64.6813" stroke="white" stroke-width="0.81875"/>
<rect x="618.566" y="8.70625" width="64.6813" height="64.6813" stroke="white" stroke-width="0.81875"/>
<rect x="101.115" y="73.3875" width="64.6813" height="64.6813" stroke="white" stroke-width="0.81875"/>
<rect x="165.797" y="73.3875" width="64.6813" height="64.6813" stroke="white" stroke-width="0.81875"/>
<rect x="230.478" y="73.3875" width="64.6813" height="64.6813" stroke="white" stroke-width="0.81875"/>
<rect x="295.159" y="73.3875" width="64.6813" height="64.6813" stroke="white" stroke-width="0.81875"/>
<rect x="359.84" y="73.3875" width="64.6813" height="64.6813" stroke="white" stroke-width="0.81875"/>
<rect x="424.522" y="73.3875" width="64.6813" height="64.6813" stroke="white" stroke-width="0.81875"/>
<rect x="489.203" y="73.3875" width="64.6813" height="64.6813" stroke="white" stroke-width="0.81875"/>
<rect x="553.884" y="73.3875" width="64.6813" height="64.6813" stroke="white" stroke-width="0.81875"/>
<rect x="618.566" y="73.3875" width="64.6813" height="64.6813" stroke="white" stroke-width="0.81875"/>
<rect x="101.115" y="138.069" width="64.6813" height="64.6813" stroke="white" stroke-width="0.81875"/>
<rect x="165.797" y="138.069" width="64.6813" height="64.6813" stroke="white" stroke-width="0.81875"/>
<rect x="230.478" y="138.069" width="64.6813" height="64.6813" stroke="white" stroke-width="0.81875"/>
<rect x="295.159" y="138.069" width="64.6813" height="64.6813" stroke="white" stroke-width="0.81875"/>
<rect x="359.84" y="138.069" width="64.6813" height="64.6813" fill="white" fill-opacity="0.25" stroke="white" stroke-width="0.81875"/>
<rect x="424.522" y="138.069" width="64.6813" height="64.6813" stroke="white" stroke-width="0.81875"/>
<rect x="489.203" y="138.069" width="64.6813" height="64.6813" fill="white" fill-opacity="0.25" stroke="white" stroke-width="0.81875"/>
<rect x="553.884" y="138.069" width="64.6813" height="64.6813" stroke="white" stroke-width="0.81875"/>
<rect x="618.566" y="138.069" width="64.6813" height="64.6813" stroke="white" stroke-width="0.81875"/>
<rect x="101.115" y="202.75" width="64.6813" height="64.6813" stroke="white" stroke-width="0.81875"/>
<rect x="165.797" y="202.75" width="64.6813" height="64.6813" stroke="white" stroke-width="0.81875"/>
<rect x="230.478" y="202.75" width="64.6813" height="64.6813" stroke="white" stroke-width="0.81875"/>
<rect x="295.159" y="202.75" width="64.6813" height="64.6813" stroke="white" stroke-width="0.81875"/>
<rect x="359.84" y="202.75" width="64.6813" height="64.6813" stroke="white" stroke-width="0.81875"/>
<rect x="424.522" y="202.75" width="64.6813" height="64.6813" stroke="white" stroke-width="0.81875"/>
<rect x="489.203" y="202.75" width="64.6813" height="64.6813" stroke="white" stroke-width="0.81875"/>
<rect x="553.884" y="202.75" width="64.6813" height="64.6813" stroke="white" stroke-width="0.81875"/>
<rect x="618.566" y="202.75" width="64.6813" height="64.6813" stroke="white" stroke-width="0.81875"/>
<rect x="101.115" y="267.431" width="64.6813" height="64.6813" stroke="white" stroke-width="0.81875"/>
<rect x="165.797" y="267.431" width="64.6813" height="64.6813" stroke="white" stroke-width="0.81875"/>
<rect x="230.478" y="267.431" width="64.6813" height="64.6813" stroke="white" stroke-width="0.81875"/>
<rect x="295.159" y="267.431" width="64.6813" height="64.6813" fill="white" fill-opacity="0.25" stroke="white" stroke-width="0.81875"/>
<rect x="359.84" y="267.431" width="64.6813" height="64.6813" stroke="white" stroke-width="0.81875"/>
<rect x="424.522" y="267.431" width="64.6813" height="64.6813" stroke="white" stroke-width="0.81875"/>
<rect x="489.203" y="267.431" width="64.6813" height="64.6813" stroke="white" stroke-width="0.81875"/>
<rect x="553.884" y="267.431" width="64.6813" height="64.6813" stroke="white" stroke-width="0.81875"/>
<rect x="618.566" y="267.431" width="64.6813" height="64.6813" stroke="white" stroke-width="0.81875"/>
<rect x="101.115" y="332.113" width="64.6813" height="64.6813" stroke="white" stroke-width="0.81875"/>
<rect x="165.797" y="332.113" width="64.6813" height="64.6813" stroke="white" stroke-width="0.81875"/>
<rect x="230.478" y="332.113" width="64.6813" height="64.6813" stroke="white" stroke-width="0.81875"/>
<rect x="295.159" y="332.113" width="64.6813" height="64.6813" stroke="white" stroke-width="0.81875"/>
<rect x="359.84" y="332.113" width="64.6813" height="64.6813" stroke="white" stroke-width="0.81875"/>
<rect x="424.522" y="332.113" width="64.6813" height="64.6813" stroke="white" stroke-width="0.81875"/>
<rect x="489.203" y="332.113" width="64.6813" height="64.6813" stroke="white" stroke-width="0.81875"/>
<rect x="553.884" y="332.113" width="64.6813" height="64.6813" stroke="white" stroke-width="0.81875"/>
<rect x="618.566" y="332.113" width="64.6813" height="64.6813" stroke="white" stroke-width="0.81875"/>
<rect x="101.115" y="396.794" width="64.6813" height="64.6813" stroke="white" stroke-width="0.81875"/>
<rect x="165.797" y="396.794" width="64.6813" height="64.6813" stroke="white" stroke-width="0.81875"/>
<rect x="230.478" y="396.794" width="64.6813" height="64.6813" stroke="white" stroke-width="0.81875"/>
<rect x="295.159" y="396.794" width="64.6813" height="64.6813" stroke="white" stroke-width="0.81875"/>
<rect x="359.84" y="396.794" width="64.6813" height="64.6813" stroke="white" stroke-width="0.81875"/>
<rect x="424.522" y="396.794" width="64.6813" height="64.6813" stroke="white" stroke-width="0.81875"/>
<rect x="489.203" y="396.794" width="64.6813" height="64.6813" stroke="white" stroke-width="0.81875"/>
<rect x="553.884" y="396.794" width="64.6813" height="64.6813" stroke="white" stroke-width="0.81875"/>
<rect x="618.566" y="396.794" width="64.6813" height="64.6813" stroke="white" stroke-width="0.81875"/>
</g>
<defs>
<radialGradient id="paint0_radial_1008_7802" cx="0" cy="0" r="1" gradientUnits="userSpaceOnUse" gradientTransform="translate(393 235.5) rotate(90) scale(289.174 484.48)">
<stop stop-color="#D9D9D9" stop-opacity="0.2"/>
<stop offset="0.802083" stop-color="#D9D9D9" stop-opacity="0"/>
</radialGradient>
</defs>
</svg>
