<svg width="16" height="16" viewBox="0 0 16 16" fill="none" xmlns="http://www.w3.org/2000/svg">
<path d="M15.189 0.824519C14.8079 0.433369 14.2439 0.287646 13.7179 0.441038L1.45386 4.00741C0.898969 4.16157 0.505665 4.6041 0.399717 5.16629C0.291482 5.73844 0.669542 6.46475 1.16346 6.76847L4.99817 9.12534C5.39148 9.36693 5.89911 9.30634 6.22458 8.97808L10.6157 4.55962C10.8368 4.32953 11.2026 4.32953 11.4237 4.55962C11.6447 4.78204 11.6447 5.14251 11.4237 5.3726L7.02491 9.79183C6.69868 10.1193 6.6377 10.6293 6.8778 11.0251L9.22085 14.8983C9.49525 15.3584 9.96782 15.6192 10.4861 15.6192C10.5471 15.6192 10.6157 15.6192 10.6767 15.6115C11.2712 15.5348 11.7438 15.1283 11.9191 14.5531L15.5549 2.30475C15.7149 1.78322 15.5701 1.21567 15.189 0.824519Z" fill="white"/>
</svg>
