<svg width="32" height="32" viewBox="0 0 32 32" fill="none" xmlns="http://www.w3.org/2000/svg">
<path d="M16 1C12.0218 1 8.20644 2.58035 5.3934 5.3934C2.58035 8.20644 1 12.0218 1 16C1 19.9782 2.58035 23.7936 5.3934 26.6066C8.20644 29.4196 12.0218 31 16 31C19.9782 31 23.7936 29.4196 26.6066 26.6066C29.4196 23.7936 31 19.9782 31 16C31 12.0218 29.4196 8.20644 26.6066 5.3934C23.7936 2.58035 19.9782 1 16 1Z" fill="#2B4896"/>
<path d="M6.1792 4.68665C5.41718 5.34836 4.72389 6.08529 4.10986 6.88623L9.64429 13.5H13.5553L6.1792 4.68665ZM25.743 4.60156L17.7207 13.5H21.7581L27.8213 6.77539C27.2031 5.98299 26.5069 5.25472 25.743 4.60156ZM10.4689 18.5L4.28308 25.3613C4.90042 26.1349 5.5928 26.8454 6.3501 27.4825L14.356 18.5H10.4689ZM17.6316 18.5L25.6855 27.4326C26.4519 26.7832 27.151 26.0584 27.7725 25.2692L21.6698 18.5H17.6316Z" fill="white"/>
<path d="M5.13525 5.68408C4.90637 5.91844 4.68522 6.16022 4.47217 6.40906L10.4545 13.5H11.7308L5.13525 5.68408ZM26.191 5.01917L18.4835 13.5H19.7994L26.8912 5.69861C26.6653 5.46459 26.4317 5.23799 26.191 5.01917ZM12.3628 18.4998V18.5L5.18835 26.3923C5.40334 26.6088 5.62488 26.8187 5.85266 27.0217L13.5048 18.4998H12.3628ZM19.5077 18.5L26.7371 26.4528C26.9669 26.2216 27.1892 25.983 27.4036 25.7373L20.8262 18.5H19.5077Z" fill="#E32D3C"/>
<path d="M16 1C15.1622 1.00082 14.3259 1.07183 13.5 1.21228V30.7736C14.3255 30.9188 15.1618 30.9945 16 31C16.8378 30.9992 17.6741 30.9282 18.5 30.7877V1.22644C17.6745 1.08124 16.8382 1.0055 16 1Z" fill="white"/>
<path d="M1.22644 13.5C1.08124 14.3255 1.0055 15.1618 1 16C1.00082 16.8378 1.07183 17.6741 1.21228 18.5H30.7736C30.9188 17.6745 30.9945 16.8382 31 16C30.9992 15.1622 30.9282 14.3259 30.7877 13.5H1.22644Z" fill="white"/>
<path d="M16 1C15.4988 1.00519 14.9982 1.0355 14.5 1.09082V30.9247C14.9984 30.9748 15.4991 31 16 31C16.5012 30.9948 17.0018 30.9645 17.5 30.9092V1.07532C17.0016 1.02518 16.5009 1.00004 16 1Z" fill="#E32D3C"/>
<path d="M1.07532 14.5C1.02518 14.9984 1.00004 15.4991 1 16C1.00519 16.5012 1.0355 17.0018 1.09082 17.5H30.9247C30.9748 17.0016 31 16.5009 31 16C30.9948 15.4988 30.9645 14.9982 30.9092 14.5H1.07532Z" fill="#E32D3C"/>
</svg>
