<svg width="478" height="574" viewBox="0 0 478 574" fill="none" xmlns="http://www.w3.org/2000/svg">
<mask id="mask0_676_5568" style="mask-type:alpha" maskUnits="userSpaceOnUse" x="-154" y="0" width="632" height="574">
<rect x="477.066" width="573.718" height="631.066" transform="rotate(90 477.066 0)" fill="url(#paint0_radial_676_5568)"/>
</mask>
<g mask="url(#mask0_676_5568)">
<rect x="466.8" y="73.8613" width="55.8862" height="55.8862" transform="rotate(90 466.8 73.8613)" stroke="white" stroke-width="0.707421"/>
<rect x="466.8" y="129.748" width="55.8862" height="55.8862" transform="rotate(90 466.8 129.748)" stroke="white" stroke-width="0.707421"/>
<rect x="466.8" y="185.634" width="55.8862" height="55.8862" transform="rotate(90 466.8 185.634)" stroke="white" stroke-width="0.707421"/>
<rect x="466.8" y="241.52" width="55.8862" height="55.8862" transform="rotate(90 466.8 241.52)" stroke="white" stroke-width="0.707421"/>
<rect x="466.8" y="297.406" width="55.8862" height="55.8862" transform="rotate(90 466.8 297.406)" stroke="white" stroke-width="0.707421"/>
<rect x="466.8" y="353.292" width="55.8862" height="55.8862" transform="rotate(90 466.8 353.292)" stroke="white" stroke-width="0.707421"/>
<rect x="466.8" y="409.179" width="55.8862" height="55.8862" transform="rotate(90 466.8 409.179)" fill="white" fill-opacity="0.25" stroke="white" stroke-width="0.707421"/>
<rect x="466.8" y="465.065" width="55.8862" height="55.8862" transform="rotate(90 466.8 465.065)" stroke="white" stroke-width="0.707421"/>
<rect x="466.8" y="520.951" width="55.8862" height="55.8862" transform="rotate(90 466.8 520.951)" stroke="white" stroke-width="0.707421"/>
<rect x="410.914" y="73.8613" width="55.8862" height="55.8862" transform="rotate(90 410.914 73.8613)" stroke="white" stroke-width="0.707421"/>
<rect x="410.914" y="129.748" width="55.8862" height="55.8862" transform="rotate(90 410.914 129.748)" stroke="white" stroke-width="0.707421"/>
<rect x="410.914" y="185.634" width="55.8862" height="55.8862" transform="rotate(90 410.914 185.634)" stroke="white" stroke-width="0.707421"/>
<rect x="410.914" y="241.52" width="55.8862" height="55.8862" transform="rotate(90 410.914 241.52)" stroke="white" stroke-width="0.707421"/>
<rect x="410.914" y="297.406" width="55.8862" height="55.8862" transform="rotate(90 410.914 297.406)" stroke="white" stroke-width="0.707421"/>
<rect x="410.914" y="353.292" width="55.8862" height="55.8862" transform="rotate(90 410.914 353.292)" stroke="white" stroke-width="0.707421"/>
<rect x="410.914" y="409.179" width="55.8862" height="55.8862" transform="rotate(90 410.914 409.179)" stroke="white" stroke-width="0.707421"/>
<rect x="410.914" y="465.065" width="55.8862" height="55.8862" transform="rotate(90 410.914 465.065)" stroke="white" stroke-width="0.707421"/>
<rect x="410.914" y="520.951" width="55.8862" height="55.8862" transform="rotate(90 410.914 520.951)" stroke="white" stroke-width="0.707421"/>
<rect x="355.027" y="73.8613" width="55.8862" height="55.8862" transform="rotate(90 355.027 73.8613)" stroke="white" stroke-width="0.707421"/>
<rect x="355.027" y="129.748" width="55.8862" height="55.8862" transform="rotate(90 355.027 129.748)" stroke="white" stroke-width="0.707421"/>
<rect x="355.027" y="185.634" width="55.8862" height="55.8862" transform="rotate(90 355.027 185.634)" stroke="white" stroke-width="0.707421"/>
<rect x="355.027" y="241.52" width="55.8862" height="55.8862" transform="rotate(90 355.027 241.52)" stroke="white" stroke-width="0.707421"/>
<rect x="355.027" y="297.406" width="55.8862" height="55.8862" transform="rotate(90 355.027 297.406)" fill="white" fill-opacity="0.25" stroke="white" stroke-width="0.707421"/>
<rect x="355.027" y="353.292" width="55.8862" height="55.8862" transform="rotate(90 355.027 353.292)" stroke="white" stroke-width="0.707421"/>
<rect x="355.027" y="409.179" width="55.8862" height="55.8862" transform="rotate(90 355.027 409.179)" fill="white" fill-opacity="0.25" stroke="white" stroke-width="0.707421"/>
<rect x="355.027" y="465.065" width="55.8862" height="55.8862" transform="rotate(90 355.027 465.065)" stroke="white" stroke-width="0.707421"/>
<rect x="355.027" y="520.951" width="55.8862" height="55.8862" transform="rotate(90 355.027 520.951)" stroke="white" stroke-width="0.707421"/>
<rect x="299.141" y="73.8613" width="55.8862" height="55.8862" transform="rotate(90 299.141 73.8613)" stroke="white" stroke-width="0.707421"/>
<rect x="299.141" y="129.748" width="55.8862" height="55.8862" transform="rotate(90 299.141 129.748)" stroke="white" stroke-width="0.707421"/>
<rect x="299.141" y="185.634" width="55.8862" height="55.8862" transform="rotate(90 299.141 185.634)" stroke="white" stroke-width="0.707421"/>
<rect x="299.141" y="241.52" width="55.8862" height="55.8862" transform="rotate(90 299.141 241.52)" stroke="white" stroke-width="0.707421"/>
<rect x="299.141" y="297.406" width="55.8862" height="55.8862" transform="rotate(90 299.141 297.406)" stroke="white" stroke-width="0.707421"/>
<rect x="299.141" y="353.292" width="55.8862" height="55.8862" transform="rotate(90 299.141 353.292)" stroke="white" stroke-width="0.707421"/>
<rect x="299.141" y="409.179" width="55.8862" height="55.8862" transform="rotate(90 299.141 409.179)" stroke="white" stroke-width="0.707421"/>
<rect x="299.141" y="465.065" width="55.8862" height="55.8862" transform="rotate(90 299.141 465.065)" stroke="white" stroke-width="0.707421"/>
<rect x="299.141" y="520.951" width="55.8862" height="55.8862" transform="rotate(90 299.141 520.951)" stroke="white" stroke-width="0.707421"/>
<rect x="243.255" y="73.8613" width="55.8862" height="55.8862" transform="rotate(90 243.255 73.8613)" stroke="white" stroke-width="0.707421"/>
<rect x="243.255" y="129.748" width="55.8862" height="55.8862" transform="rotate(90 243.255 129.748)" stroke="white" stroke-width="0.707421"/>
<rect x="243.255" y="185.634" width="55.8862" height="55.8862" transform="rotate(90 243.255 185.634)" stroke="white" stroke-width="0.707421"/>
<rect x="243.255" y="241.52" width="55.8862" height="55.8862" transform="rotate(90 243.255 241.52)" fill="white" fill-opacity="0.25" stroke="white" stroke-width="0.707421"/>
<rect x="243.255" y="297.406" width="55.8862" height="55.8862" transform="rotate(90 243.255 297.406)" stroke="white" stroke-width="0.707421"/>
<rect x="243.255" y="353.292" width="55.8862" height="55.8862" transform="rotate(90 243.255 353.292)" stroke="white" stroke-width="0.707421"/>
<rect x="243.255" y="409.179" width="55.8862" height="55.8862" transform="rotate(90 243.255 409.179)" stroke="white" stroke-width="0.707421"/>
<rect x="243.255" y="465.065" width="55.8862" height="55.8862" transform="rotate(90 243.255 465.065)" stroke="white" stroke-width="0.707421"/>
<rect x="243.255" y="520.951" width="55.8862" height="55.8862" transform="rotate(90 243.255 520.951)" stroke="white" stroke-width="0.707421"/>
<rect x="187.369" y="73.8613" width="55.8862" height="55.8862" transform="rotate(90 187.369 73.8613)" stroke="white" stroke-width="0.707421"/>
<rect x="187.369" y="129.748" width="55.8862" height="55.8862" transform="rotate(90 187.369 129.748)" stroke="white" stroke-width="0.707421"/>
<rect x="187.369" y="185.634" width="55.8862" height="55.8862" transform="rotate(90 187.369 185.634)" stroke="white" stroke-width="0.707421"/>
<rect x="187.369" y="241.52" width="55.8862" height="55.8862" transform="rotate(90 187.369 241.52)" stroke="white" stroke-width="0.707421"/>
<rect x="187.369" y="297.406" width="55.8862" height="55.8862" transform="rotate(90 187.369 297.406)" stroke="white" stroke-width="0.707421"/>
<rect x="187.369" y="353.292" width="55.8862" height="55.8862" transform="rotate(90 187.369 353.292)" stroke="white" stroke-width="0.707421"/>
<rect x="187.369" y="409.179" width="55.8862" height="55.8862" transform="rotate(90 187.369 409.179)" stroke="white" stroke-width="0.707421"/>
<rect x="187.369" y="465.065" width="55.8862" height="55.8862" transform="rotate(90 187.369 465.065)" stroke="white" stroke-width="0.707421"/>
<rect x="187.369" y="520.951" width="55.8862" height="55.8862" transform="rotate(90 187.369 520.951)" stroke="white" stroke-width="0.707421"/>
<rect x="131.482" y="73.8613" width="55.8862" height="55.8862" transform="rotate(90 131.482 73.8613)" stroke="white" stroke-width="0.707421"/>
<rect x="131.482" y="129.748" width="55.8862" height="55.8862" transform="rotate(90 131.482 129.748)" stroke="white" stroke-width="0.707421"/>
<rect x="131.482" y="185.634" width="55.8862" height="55.8862" transform="rotate(90 131.482 185.634)" stroke="white" stroke-width="0.707421"/>
<rect x="131.482" y="241.52" width="55.8862" height="55.8862" transform="rotate(90 131.482 241.52)" stroke="white" stroke-width="0.707421"/>
<rect x="131.482" y="297.406" width="55.8862" height="55.8862" transform="rotate(90 131.482 297.406)" stroke="white" stroke-width="0.707421"/>
<rect x="131.482" y="353.292" width="55.8862" height="55.8862" transform="rotate(90 131.482 353.292)" stroke="white" stroke-width="0.707421"/>
<rect x="131.482" y="409.179" width="55.8862" height="55.8862" transform="rotate(90 131.482 409.179)" stroke="white" stroke-width="0.707421"/>
<rect x="131.482" y="465.065" width="55.8862" height="55.8862" transform="rotate(90 131.482 465.065)" stroke="white" stroke-width="0.707421"/>
<rect x="131.482" y="520.951" width="55.8862" height="55.8862" transform="rotate(90 131.482 520.951)" stroke="white" stroke-width="0.707421"/>
</g>
<defs>
<radialGradient id="paint0_radial_676_5568" cx="0" cy="0" r="1" gradientUnits="userSpaceOnUse" gradientTransform="translate(763.925 315.533) rotate(90) scale(388.981 353.633)">
<stop stop-color="#D9D9D9" stop-opacity="0.2"/>
<stop offset="0.802083" stop-color="#D9D9D9" stop-opacity="0"/>
</radialGradient>
</defs>
</svg>
