<svg width="21" height="21" viewBox="0 0 21 21" fill="none" xmlns="http://www.w3.org/2000/svg">
<path d="M19.0344 0.772095H18.7379C18.334 0.774447 17.9474 0.938341 17.6626 1.22796C17.3778 1.51758 17.218 1.90937 17.2181 2.31772V2.32705C12.7333 6.24252 8.72095 6.51422 7.66452 6.50489V5.76482C7.66186 5.68455 7.62849 5.60845 7.57143 5.55255C7.51438 5.49666 7.43809 5.46532 7.35864 5.46515H2.87376C2.22624 5.46649 1.60576 5.72776 1.14876 6.19148C0.69176 6.6552 0.435658 7.28342 0.436771 7.93798V10.5236C0.437659 11.1766 0.694704 11.8027 1.15154 12.2645C1.60838 12.7262 2.22773 12.986 2.87376 12.9869H3.29076V18.8415C3.29038 19.0237 3.32558 19.2041 3.39436 19.3725C3.46314 19.5409 3.56414 19.6938 3.69155 19.8226C3.81897 19.9514 3.9703 20.0535 4.13685 20.1231C4.3034 20.1926 4.4819 20.2282 4.6621 20.2278H4.92164C5.28511 20.227 5.63346 20.0807 5.89047 19.8209C6.14747 19.5611 6.2922 19.209 6.29298 18.8415V17.7361H8.06286C8.11725 17.734 8.1702 17.7179 8.21672 17.6893C8.26324 17.6607 8.30177 17.6206 8.32868 17.5728C8.35559 17.525 8.36998 17.471 8.3705 17.416C8.37102 17.361 8.35764 17.3067 8.33163 17.2584L6.29319 13.905V12.9869H7.35885C7.44109 12.9856 7.51949 12.9515 7.57683 12.8919C7.63418 12.8323 7.66579 12.7521 7.66473 12.669V11.9484C8.72117 11.9391 12.7148 12.2108 17.2184 16.1447C17.2238 16.5495 17.386 16.9359 17.6701 17.2212C17.9543 17.5065 18.3377 17.6678 18.7381 17.6706H19.0346C19.4385 17.6707 19.826 17.5091 20.1125 17.2212C20.3989 16.9334 20.561 16.5426 20.5634 16.1343V2.31772C20.563 1.90792 20.4017 1.51501 20.1151 1.22523C19.8284 0.935456 19.4398 0.772488 19.0344 0.772095Z" fill="white"/>
</svg>
