<svg width="21" height="22" viewBox="0 0 21 22" fill="none" xmlns="http://www.w3.org/2000/svg">
<g opacity="0.7">
<path d="M18.5682 16.876C18.1286 15.8348 17.4908 14.8891 16.6901 14.0914C15.8918 13.2915 14.9462 12.6537 13.9055 12.2133C13.8962 12.2086 13.8868 12.2063 13.8775 12.2016C15.3292 11.153 16.273 9.445 16.273 7.51792C16.273 4.32554 13.6864 1.73901 10.4941 1.73901C7.30167 1.73901 4.71514 4.32554 4.71514 7.51792C4.71514 9.445 5.65888 11.153 7.11059 12.204C7.10127 12.2086 7.09195 12.211 7.08263 12.2156C6.0387 12.656 5.10196 13.2875 4.29804 14.0938C3.4981 14.892 2.86031 15.8376 2.41989 16.8784C1.98722 17.8973 1.75388 18.9896 1.73248 20.0964C1.73186 20.1212 1.73622 20.146 1.74531 20.1691C1.7544 20.1923 1.76803 20.2134 1.7854 20.2312C1.80278 20.249 1.82354 20.2632 1.84646 20.2728C1.86939 20.2825 1.89402 20.2875 1.9189 20.2875H3.31702C3.41955 20.2875 3.50111 20.2059 3.50344 20.1057C3.55004 18.3068 4.2724 16.622 5.54936 15.3451C6.87058 14.0239 8.62523 13.2968 10.4941 13.2968C12.3629 13.2968 14.1175 14.0239 15.4387 15.3451C16.7157 16.622 17.4381 18.3068 17.4847 20.1057C17.487 20.2082 17.5686 20.2875 17.6711 20.2875H19.0692C19.0941 20.2875 19.1187 20.2825 19.1416 20.2728C19.1646 20.2632 19.1853 20.249 19.2027 20.2312C19.2201 20.2134 19.2337 20.1923 19.2428 20.1691C19.2519 20.146 19.2562 20.1212 19.2556 20.0964C19.2323 18.9825 19.0016 17.899 18.5682 16.876ZM10.4941 11.5259C9.42449 11.5259 8.41784 11.1088 7.66052 10.3515C6.90321 9.59414 6.4861 8.58749 6.4861 7.51792C6.4861 6.44836 6.90321 5.44171 7.66052 4.68439C8.41784 3.92708 9.42449 3.50997 10.4941 3.50997C11.5636 3.50997 12.5703 3.92708 13.3276 4.68439C14.0849 5.44171 14.502 6.44836 14.502 7.51792C14.502 8.58749 14.0849 9.59414 13.3276 10.3515C12.5703 11.1088 11.5636 11.5259 10.4941 11.5259Z" fill="white"/>
</g>
</svg>
